G04 #@! TF.GenerationSoftware,KiCad,Pcbnew,(5.0.2)-1*
G04 #@! TF.CreationDate,2019-04-19T09:09:22-07:00*
G04 #@! TF.ProjectId,AngularRGB,416e6775-6c61-4725-9247-422e6b696361,v1.0*
G04 #@! TF.SameCoordinates,Original*
G04 #@! TF.FileFunction,Legend,Top*
G04 #@! TF.FilePolarity,Positive*
%FSLAX46Y46*%
G04 Gerber Fmt 4.6, Leading zero omitted, Abs format (unit mm)*
G04 Created by KiCad (PCBNEW (5.0.2)-1) date 2019-04-19 9:09:22 AM*
%MOMM*%
%LPD*%
G01*
G04 APERTURE LIST*
%ADD10C,0.150000*%
G04 APERTURE END LIST*
D10*
G04 #@! TO.C,LED1*
X46710600Y-61010800D02*
X46710600Y-61264800D01*
X46710600Y-61264800D02*
X46710600Y-61391800D01*
X46710600Y-61391800D02*
X46329600Y-61391800D01*
X42900600Y-61391800D02*
X42392600Y-61391800D01*
X42392600Y-61391800D02*
X42392600Y-61010800D01*
X46710600Y-57454800D02*
X46710600Y-57073800D01*
X46710600Y-57073800D02*
X46329600Y-57073800D01*
X42519600Y-56946800D02*
G75*
G03X42519600Y-56946800I-127000J0D01*
G01*
G04 #@! TO.C,LED5*
X65760600Y-61010800D02*
X65760600Y-61264800D01*
X65760600Y-61264800D02*
X65760600Y-61391800D01*
X65760600Y-61391800D02*
X65379600Y-61391800D01*
X61950600Y-61391800D02*
X61442600Y-61391800D01*
X61442600Y-61391800D02*
X61442600Y-61010800D01*
X65760600Y-57454800D02*
X65760600Y-57073800D01*
X65760600Y-57073800D02*
X65379600Y-57073800D01*
X61569600Y-56946800D02*
G75*
G03X61569600Y-56946800I-127000J0D01*
G01*
G04 #@! TO.C,LED8*
X80619600Y-56946800D02*
G75*
G03X80619600Y-56946800I-127000J0D01*
G01*
X84810600Y-57073800D02*
X84429600Y-57073800D01*
X84810600Y-57454800D02*
X84810600Y-57073800D01*
X80492600Y-61391800D02*
X80492600Y-61010800D01*
X81000600Y-61391800D02*
X80492600Y-61391800D01*
X84810600Y-61391800D02*
X84429600Y-61391800D01*
X84810600Y-61264800D02*
X84810600Y-61391800D01*
X84810600Y-61010800D02*
X84810600Y-61264800D01*
G04 #@! TO.C,LED12*
X103860600Y-61010800D02*
X103860600Y-61264800D01*
X103860600Y-61264800D02*
X103860600Y-61391800D01*
X103860600Y-61391800D02*
X103479600Y-61391800D01*
X100050600Y-61391800D02*
X99542600Y-61391800D01*
X99542600Y-61391800D02*
X99542600Y-61010800D01*
X103860600Y-57454800D02*
X103860600Y-57073800D01*
X103860600Y-57073800D02*
X103479600Y-57073800D01*
X99669600Y-56946800D02*
G75*
G03X99669600Y-56946800I-127000J0D01*
G01*
G04 #@! TO.C,LED16*
X118719600Y-56946800D02*
G75*
G03X118719600Y-56946800I-127000J0D01*
G01*
X122910600Y-57073800D02*
X122529600Y-57073800D01*
X122910600Y-57454800D02*
X122910600Y-57073800D01*
X118592600Y-61391800D02*
X118592600Y-61010800D01*
X119100600Y-61391800D02*
X118592600Y-61391800D01*
X122910600Y-61391800D02*
X122529600Y-61391800D01*
X122910600Y-61264800D02*
X122910600Y-61391800D01*
X122910600Y-61010800D02*
X122910600Y-61264800D01*
G04 #@! TO.C,LED20*
X141960600Y-61010800D02*
X141960600Y-61264800D01*
X141960600Y-61264800D02*
X141960600Y-61391800D01*
X141960600Y-61391800D02*
X141579600Y-61391800D01*
X138150600Y-61391800D02*
X137642600Y-61391800D01*
X137642600Y-61391800D02*
X137642600Y-61010800D01*
X141960600Y-57454800D02*
X141960600Y-57073800D01*
X141960600Y-57073800D02*
X141579600Y-57073800D01*
X137769600Y-56946800D02*
G75*
G03X137769600Y-56946800I-127000J0D01*
G01*
G04 #@! TO.C,LED24*
X156819600Y-56946800D02*
G75*
G03X156819600Y-56946800I-127000J0D01*
G01*
X161010600Y-57073800D02*
X160629600Y-57073800D01*
X161010600Y-57454800D02*
X161010600Y-57073800D01*
X156692600Y-61391800D02*
X156692600Y-61010800D01*
X157200600Y-61391800D02*
X156692600Y-61391800D01*
X161010600Y-61391800D02*
X160629600Y-61391800D01*
X161010600Y-61264800D02*
X161010600Y-61391800D01*
X161010600Y-61010800D02*
X161010600Y-61264800D01*
G04 #@! TO.C,LED28*
X180060600Y-61010800D02*
X180060600Y-61264800D01*
X180060600Y-61264800D02*
X180060600Y-61391800D01*
X180060600Y-61391800D02*
X179679600Y-61391800D01*
X176250600Y-61391800D02*
X175742600Y-61391800D01*
X175742600Y-61391800D02*
X175742600Y-61010800D01*
X180060600Y-57454800D02*
X180060600Y-57073800D01*
X180060600Y-57073800D02*
X179679600Y-57073800D01*
X175869600Y-56946800D02*
G75*
G03X175869600Y-56946800I-127000J0D01*
G01*
G04 #@! TO.C,LED32*
X194919600Y-56946800D02*
G75*
G03X194919600Y-56946800I-127000J0D01*
G01*
X199110600Y-57073800D02*
X198729600Y-57073800D01*
X199110600Y-57454800D02*
X199110600Y-57073800D01*
X194792600Y-61391800D02*
X194792600Y-61010800D01*
X195300600Y-61391800D02*
X194792600Y-61391800D01*
X199110600Y-61391800D02*
X198729600Y-61391800D01*
X199110600Y-61264800D02*
X199110600Y-61391800D01*
X199110600Y-61010800D02*
X199110600Y-61264800D01*
G04 #@! TO.C,LED36*
X218160600Y-61010800D02*
X218160600Y-61264800D01*
X218160600Y-61264800D02*
X218160600Y-61391800D01*
X218160600Y-61391800D02*
X217779600Y-61391800D01*
X214350600Y-61391800D02*
X213842600Y-61391800D01*
X213842600Y-61391800D02*
X213842600Y-61010800D01*
X218160600Y-57454800D02*
X218160600Y-57073800D01*
X218160600Y-57073800D02*
X217779600Y-57073800D01*
X213969600Y-56946800D02*
G75*
G03X213969600Y-56946800I-127000J0D01*
G01*
G04 #@! TO.C,LED40*
X233019600Y-56946800D02*
G75*
G03X233019600Y-56946800I-127000J0D01*
G01*
X237210600Y-57073800D02*
X236829600Y-57073800D01*
X237210600Y-57454800D02*
X237210600Y-57073800D01*
X232892600Y-61391800D02*
X232892600Y-61010800D01*
X233400600Y-61391800D02*
X232892600Y-61391800D01*
X237210600Y-61391800D02*
X236829600Y-61391800D01*
X237210600Y-61264800D02*
X237210600Y-61391800D01*
X237210600Y-61010800D02*
X237210600Y-61264800D01*
G04 #@! TO.C,LED43*
X256260600Y-61010800D02*
X256260600Y-61264800D01*
X256260600Y-61264800D02*
X256260600Y-61391800D01*
X256260600Y-61391800D02*
X255879600Y-61391800D01*
X252450600Y-61391800D02*
X251942600Y-61391800D01*
X251942600Y-61391800D02*
X251942600Y-61010800D01*
X256260600Y-57454800D02*
X256260600Y-57073800D01*
X256260600Y-57073800D02*
X255879600Y-57073800D01*
X252069600Y-56946800D02*
G75*
G03X252069600Y-56946800I-127000J0D01*
G01*
G04 #@! TO.C,LED2*
X49123600Y-80060800D02*
X49123600Y-80314800D01*
X49123600Y-80314800D02*
X49123600Y-80441800D01*
X49123600Y-80441800D02*
X48742600Y-80441800D01*
X45313600Y-80441800D02*
X44805600Y-80441800D01*
X44805600Y-80441800D02*
X44805600Y-80060800D01*
X49123600Y-76504800D02*
X49123600Y-76123800D01*
X49123600Y-76123800D02*
X48742600Y-76123800D01*
X44932600Y-75996800D02*
G75*
G03X44932600Y-75996800I-127000J0D01*
G01*
G04 #@! TO.C,LED6*
X66395600Y-75996800D02*
G75*
G03X66395600Y-75996800I-127000J0D01*
G01*
X70586600Y-76123800D02*
X70205600Y-76123800D01*
X70586600Y-76504800D02*
X70586600Y-76123800D01*
X66268600Y-80441800D02*
X66268600Y-80060800D01*
X66776600Y-80441800D02*
X66268600Y-80441800D01*
X70586600Y-80441800D02*
X70205600Y-80441800D01*
X70586600Y-80314800D02*
X70586600Y-80441800D01*
X70586600Y-80060800D02*
X70586600Y-80314800D01*
G04 #@! TO.C,LED9*
X89636600Y-80060800D02*
X89636600Y-80314800D01*
X89636600Y-80314800D02*
X89636600Y-80441800D01*
X89636600Y-80441800D02*
X89255600Y-80441800D01*
X85826600Y-80441800D02*
X85318600Y-80441800D01*
X85318600Y-80441800D02*
X85318600Y-80060800D01*
X89636600Y-76504800D02*
X89636600Y-76123800D01*
X89636600Y-76123800D02*
X89255600Y-76123800D01*
X85445600Y-75996800D02*
G75*
G03X85445600Y-75996800I-127000J0D01*
G01*
G04 #@! TO.C,LED13*
X104495600Y-75996800D02*
G75*
G03X104495600Y-75996800I-127000J0D01*
G01*
X108686600Y-76123800D02*
X108305600Y-76123800D01*
X108686600Y-76504800D02*
X108686600Y-76123800D01*
X104368600Y-80441800D02*
X104368600Y-80060800D01*
X104876600Y-80441800D02*
X104368600Y-80441800D01*
X108686600Y-80441800D02*
X108305600Y-80441800D01*
X108686600Y-80314800D02*
X108686600Y-80441800D01*
X108686600Y-80060800D02*
X108686600Y-80314800D01*
G04 #@! TO.C,LED17*
X127736600Y-80060800D02*
X127736600Y-80314800D01*
X127736600Y-80314800D02*
X127736600Y-80441800D01*
X127736600Y-80441800D02*
X127355600Y-80441800D01*
X123926600Y-80441800D02*
X123418600Y-80441800D01*
X123418600Y-80441800D02*
X123418600Y-80060800D01*
X127736600Y-76504800D02*
X127736600Y-76123800D01*
X127736600Y-76123800D02*
X127355600Y-76123800D01*
X123545600Y-75996800D02*
G75*
G03X123545600Y-75996800I-127000J0D01*
G01*
G04 #@! TO.C,LED21*
X142595600Y-75996800D02*
G75*
G03X142595600Y-75996800I-127000J0D01*
G01*
X146786600Y-76123800D02*
X146405600Y-76123800D01*
X146786600Y-76504800D02*
X146786600Y-76123800D01*
X142468600Y-80441800D02*
X142468600Y-80060800D01*
X142976600Y-80441800D02*
X142468600Y-80441800D01*
X146786600Y-80441800D02*
X146405600Y-80441800D01*
X146786600Y-80314800D02*
X146786600Y-80441800D01*
X146786600Y-80060800D02*
X146786600Y-80314800D01*
G04 #@! TO.C,LED25*
X165836600Y-80060800D02*
X165836600Y-80314800D01*
X165836600Y-80314800D02*
X165836600Y-80441800D01*
X165836600Y-80441800D02*
X165455600Y-80441800D01*
X162026600Y-80441800D02*
X161518600Y-80441800D01*
X161518600Y-80441800D02*
X161518600Y-80060800D01*
X165836600Y-76504800D02*
X165836600Y-76123800D01*
X165836600Y-76123800D02*
X165455600Y-76123800D01*
X161645600Y-75996800D02*
G75*
G03X161645600Y-75996800I-127000J0D01*
G01*
G04 #@! TO.C,LED29*
X180695600Y-75996800D02*
G75*
G03X180695600Y-75996800I-127000J0D01*
G01*
X184886600Y-76123800D02*
X184505600Y-76123800D01*
X184886600Y-76504800D02*
X184886600Y-76123800D01*
X180568600Y-80441800D02*
X180568600Y-80060800D01*
X181076600Y-80441800D02*
X180568600Y-80441800D01*
X184886600Y-80441800D02*
X184505600Y-80441800D01*
X184886600Y-80314800D02*
X184886600Y-80441800D01*
X184886600Y-80060800D02*
X184886600Y-80314800D01*
G04 #@! TO.C,LED33*
X203936600Y-80060800D02*
X203936600Y-80314800D01*
X203936600Y-80314800D02*
X203936600Y-80441800D01*
X203936600Y-80441800D02*
X203555600Y-80441800D01*
X200126600Y-80441800D02*
X199618600Y-80441800D01*
X199618600Y-80441800D02*
X199618600Y-80060800D01*
X203936600Y-76504800D02*
X203936600Y-76123800D01*
X203936600Y-76123800D02*
X203555600Y-76123800D01*
X199745600Y-75996800D02*
G75*
G03X199745600Y-75996800I-127000J0D01*
G01*
G04 #@! TO.C,LED37*
X218795600Y-75996800D02*
G75*
G03X218795600Y-75996800I-127000J0D01*
G01*
X222986600Y-76123800D02*
X222605600Y-76123800D01*
X222986600Y-76504800D02*
X222986600Y-76123800D01*
X218668600Y-80441800D02*
X218668600Y-80060800D01*
X219176600Y-80441800D02*
X218668600Y-80441800D01*
X222986600Y-80441800D02*
X222605600Y-80441800D01*
X222986600Y-80314800D02*
X222986600Y-80441800D01*
X222986600Y-80060800D02*
X222986600Y-80314800D01*
G04 #@! TO.C,LED44*
X249148600Y-80060800D02*
X249148600Y-80314800D01*
X249148600Y-80314800D02*
X249148600Y-80441800D01*
X249148600Y-80441800D02*
X248767600Y-80441800D01*
X245338600Y-80441800D02*
X244830600Y-80441800D01*
X244830600Y-80441800D02*
X244830600Y-80060800D01*
X249148600Y-76504800D02*
X249148600Y-76123800D01*
X249148600Y-76123800D02*
X248767600Y-76123800D01*
X244957600Y-75996800D02*
G75*
G03X244957600Y-75996800I-127000J0D01*
G01*
G04 #@! TO.C,LED3*
X49758600Y-95046800D02*
G75*
G03X49758600Y-95046800I-127000J0D01*
G01*
X53949600Y-95173800D02*
X53568600Y-95173800D01*
X53949600Y-95554800D02*
X53949600Y-95173800D01*
X49631600Y-99491800D02*
X49631600Y-99110800D01*
X50139600Y-99491800D02*
X49631600Y-99491800D01*
X53949600Y-99491800D02*
X53568600Y-99491800D01*
X53949600Y-99364800D02*
X53949600Y-99491800D01*
X53949600Y-99110800D02*
X53949600Y-99364800D01*
G04 #@! TO.C,LED10*
X75920600Y-95046800D02*
G75*
G03X75920600Y-95046800I-127000J0D01*
G01*
X80111600Y-95173800D02*
X79730600Y-95173800D01*
X80111600Y-95554800D02*
X80111600Y-95173800D01*
X75793600Y-99491800D02*
X75793600Y-99110800D01*
X76301600Y-99491800D02*
X75793600Y-99491800D01*
X80111600Y-99491800D02*
X79730600Y-99491800D01*
X80111600Y-99364800D02*
X80111600Y-99491800D01*
X80111600Y-99110800D02*
X80111600Y-99364800D01*
G04 #@! TO.C,LED14*
X99161600Y-99110800D02*
X99161600Y-99364800D01*
X99161600Y-99364800D02*
X99161600Y-99491800D01*
X99161600Y-99491800D02*
X98780600Y-99491800D01*
X95351600Y-99491800D02*
X94843600Y-99491800D01*
X94843600Y-99491800D02*
X94843600Y-99110800D01*
X99161600Y-95554800D02*
X99161600Y-95173800D01*
X99161600Y-95173800D02*
X98780600Y-95173800D01*
X94970600Y-95046800D02*
G75*
G03X94970600Y-95046800I-127000J0D01*
G01*
G04 #@! TO.C,LED18*
X114020600Y-95046800D02*
G75*
G03X114020600Y-95046800I-127000J0D01*
G01*
X118211600Y-95173800D02*
X117830600Y-95173800D01*
X118211600Y-95554800D02*
X118211600Y-95173800D01*
X113893600Y-99491800D02*
X113893600Y-99110800D01*
X114401600Y-99491800D02*
X113893600Y-99491800D01*
X118211600Y-99491800D02*
X117830600Y-99491800D01*
X118211600Y-99364800D02*
X118211600Y-99491800D01*
X118211600Y-99110800D02*
X118211600Y-99364800D01*
G04 #@! TO.C,LED22*
X137261600Y-99110800D02*
X137261600Y-99364800D01*
X137261600Y-99364800D02*
X137261600Y-99491800D01*
X137261600Y-99491800D02*
X136880600Y-99491800D01*
X133451600Y-99491800D02*
X132943600Y-99491800D01*
X132943600Y-99491800D02*
X132943600Y-99110800D01*
X137261600Y-95554800D02*
X137261600Y-95173800D01*
X137261600Y-95173800D02*
X136880600Y-95173800D01*
X133070600Y-95046800D02*
G75*
G03X133070600Y-95046800I-127000J0D01*
G01*
G04 #@! TO.C,LED26*
X152120600Y-95046800D02*
G75*
G03X152120600Y-95046800I-127000J0D01*
G01*
X156311600Y-95173800D02*
X155930600Y-95173800D01*
X156311600Y-95554800D02*
X156311600Y-95173800D01*
X151993600Y-99491800D02*
X151993600Y-99110800D01*
X152501600Y-99491800D02*
X151993600Y-99491800D01*
X156311600Y-99491800D02*
X155930600Y-99491800D01*
X156311600Y-99364800D02*
X156311600Y-99491800D01*
X156311600Y-99110800D02*
X156311600Y-99364800D01*
G04 #@! TO.C,LED30*
X175361600Y-99110800D02*
X175361600Y-99364800D01*
X175361600Y-99364800D02*
X175361600Y-99491800D01*
X175361600Y-99491800D02*
X174980600Y-99491800D01*
X171551600Y-99491800D02*
X171043600Y-99491800D01*
X171043600Y-99491800D02*
X171043600Y-99110800D01*
X175361600Y-95554800D02*
X175361600Y-95173800D01*
X175361600Y-95173800D02*
X174980600Y-95173800D01*
X171170600Y-95046800D02*
G75*
G03X171170600Y-95046800I-127000J0D01*
G01*
G04 #@! TO.C,LED34*
X190220600Y-95046800D02*
G75*
G03X190220600Y-95046800I-127000J0D01*
G01*
X194411600Y-95173800D02*
X194030600Y-95173800D01*
X194411600Y-95554800D02*
X194411600Y-95173800D01*
X190093600Y-99491800D02*
X190093600Y-99110800D01*
X190601600Y-99491800D02*
X190093600Y-99491800D01*
X194411600Y-99491800D02*
X194030600Y-99491800D01*
X194411600Y-99364800D02*
X194411600Y-99491800D01*
X194411600Y-99110800D02*
X194411600Y-99364800D01*
G04 #@! TO.C,LED38*
X213461600Y-99110800D02*
X213461600Y-99364800D01*
X213461600Y-99364800D02*
X213461600Y-99491800D01*
X213461600Y-99491800D02*
X213080600Y-99491800D01*
X209651600Y-99491800D02*
X209143600Y-99491800D01*
X209143600Y-99491800D02*
X209143600Y-99110800D01*
X213461600Y-95554800D02*
X213461600Y-95173800D01*
X213461600Y-95173800D02*
X213080600Y-95173800D01*
X209270600Y-95046800D02*
G75*
G03X209270600Y-95046800I-127000J0D01*
G01*
G04 #@! TO.C,LED41*
X234797600Y-99110800D02*
X234797600Y-99364800D01*
X234797600Y-99364800D02*
X234797600Y-99491800D01*
X234797600Y-99491800D02*
X234416600Y-99491800D01*
X230987600Y-99491800D02*
X230479600Y-99491800D01*
X230479600Y-99491800D02*
X230479600Y-99110800D01*
X234797600Y-95554800D02*
X234797600Y-95173800D01*
X234797600Y-95173800D02*
X234416600Y-95173800D01*
X230606600Y-95046800D02*
G75*
G03X230606600Y-95046800I-127000J0D01*
G01*
G04 #@! TO.C,LED45*
X256260600Y-99110800D02*
X256260600Y-99364800D01*
X256260600Y-99364800D02*
X256260600Y-99491800D01*
X256260600Y-99491800D02*
X255879600Y-99491800D01*
X252450600Y-99491800D02*
X251942600Y-99491800D01*
X251942600Y-99491800D02*
X251942600Y-99110800D01*
X256260600Y-95554800D02*
X256260600Y-95173800D01*
X256260600Y-95173800D02*
X255879600Y-95173800D01*
X252069600Y-95046800D02*
G75*
G03X252069600Y-95046800I-127000J0D01*
G01*
G04 #@! TO.C,LED4*
X44932600Y-114096800D02*
G75*
G03X44932600Y-114096800I-127000J0D01*
G01*
X49123600Y-114223800D02*
X48742600Y-114223800D01*
X49123600Y-114604800D02*
X49123600Y-114223800D01*
X44805600Y-118541800D02*
X44805600Y-118160800D01*
X45313600Y-118541800D02*
X44805600Y-118541800D01*
X49123600Y-118541800D02*
X48742600Y-118541800D01*
X49123600Y-118414800D02*
X49123600Y-118541800D01*
X49123600Y-118160800D02*
X49123600Y-118414800D01*
G04 #@! TO.C,LED7*
X70586600Y-118160800D02*
X70586600Y-118414800D01*
X70586600Y-118414800D02*
X70586600Y-118541800D01*
X70586600Y-118541800D02*
X70205600Y-118541800D01*
X66776600Y-118541800D02*
X66268600Y-118541800D01*
X66268600Y-118541800D02*
X66268600Y-118160800D01*
X70586600Y-114604800D02*
X70586600Y-114223800D01*
X70586600Y-114223800D02*
X70205600Y-114223800D01*
X66395600Y-114096800D02*
G75*
G03X66395600Y-114096800I-127000J0D01*
G01*
G04 #@! TO.C,LED11*
X87731600Y-114096800D02*
G75*
G03X87731600Y-114096800I-127000J0D01*
G01*
X91922600Y-114223800D02*
X91541600Y-114223800D01*
X91922600Y-114604800D02*
X91922600Y-114223800D01*
X87604600Y-118541800D02*
X87604600Y-118160800D01*
X88112600Y-118541800D02*
X87604600Y-118541800D01*
X91922600Y-118541800D02*
X91541600Y-118541800D01*
X91922600Y-118414800D02*
X91922600Y-118541800D01*
X91922600Y-118160800D02*
X91922600Y-118414800D01*
G04 #@! TO.C,LED19*
X130022600Y-118160800D02*
X130022600Y-118414800D01*
X130022600Y-118414800D02*
X130022600Y-118541800D01*
X130022600Y-118541800D02*
X129641600Y-118541800D01*
X126212600Y-118541800D02*
X125704600Y-118541800D01*
X125704600Y-118541800D02*
X125704600Y-118160800D01*
X130022600Y-114604800D02*
X130022600Y-114223800D01*
X130022600Y-114223800D02*
X129641600Y-114223800D01*
X125831600Y-114096800D02*
G75*
G03X125831600Y-114096800I-127000J0D01*
G01*
G04 #@! TO.C,LED23*
X142341600Y-118287800D02*
G75*
G03X142341600Y-118287800I-127000J0D01*
G01*
X146532600Y-118414800D02*
X146151600Y-118414800D01*
X146532600Y-118795800D02*
X146532600Y-118414800D01*
X142214600Y-122732800D02*
X142214600Y-122351800D01*
X142722600Y-122732800D02*
X142214600Y-122732800D01*
X146532600Y-122732800D02*
X146151600Y-122732800D01*
X146532600Y-122605800D02*
X146532600Y-122732800D01*
X146532600Y-122351800D02*
X146532600Y-122605800D01*
G04 #@! TO.C,LED27*
X161645600Y-122351800D02*
X161645600Y-122605800D01*
X161645600Y-122605800D02*
X161645600Y-122732800D01*
X161645600Y-122732800D02*
X161264600Y-122732800D01*
X157835600Y-122732800D02*
X157327600Y-122732800D01*
X157327600Y-122732800D02*
X157327600Y-122351800D01*
X161645600Y-118795800D02*
X161645600Y-118414800D01*
X161645600Y-118414800D02*
X161264600Y-118414800D01*
X157454600Y-118287800D02*
G75*
G03X157454600Y-118287800I-127000J0D01*
G01*
G04 #@! TO.C,LED31*
X177647600Y-118160800D02*
X177647600Y-118414800D01*
X177647600Y-118414800D02*
X177647600Y-118541800D01*
X177647600Y-118541800D02*
X177266600Y-118541800D01*
X173837600Y-118541800D02*
X173329600Y-118541800D01*
X173329600Y-118541800D02*
X173329600Y-118160800D01*
X177647600Y-114604800D02*
X177647600Y-114223800D01*
X177647600Y-114223800D02*
X177266600Y-114223800D01*
X173456600Y-114096800D02*
G75*
G03X173456600Y-114096800I-127000J0D01*
G01*
G04 #@! TO.C,LED35*
X193522600Y-122351800D02*
X193522600Y-122605800D01*
X193522600Y-122605800D02*
X193522600Y-122732800D01*
X193522600Y-122732800D02*
X193141600Y-122732800D01*
X189712600Y-122732800D02*
X189204600Y-122732800D01*
X189204600Y-122732800D02*
X189204600Y-122351800D01*
X193522600Y-118795800D02*
X193522600Y-118414800D01*
X193522600Y-118414800D02*
X193141600Y-118414800D01*
X189331600Y-118287800D02*
G75*
G03X189331600Y-118287800I-127000J0D01*
G01*
G04 #@! TO.C,LED39*
X210921600Y-118160800D02*
X210921600Y-118414800D01*
X210921600Y-118414800D02*
X210921600Y-118541800D01*
X210921600Y-118541800D02*
X210540600Y-118541800D01*
X207111600Y-118541800D02*
X206603600Y-118541800D01*
X206603600Y-118541800D02*
X206603600Y-118160800D01*
X210921600Y-114604800D02*
X210921600Y-114223800D01*
X210921600Y-114223800D02*
X210540600Y-114223800D01*
X206730600Y-114096800D02*
G75*
G03X206730600Y-114096800I-127000J0D01*
G01*
G04 #@! TO.C,LED42*
X228193600Y-114096800D02*
G75*
G03X228193600Y-114096800I-127000J0D01*
G01*
X232384600Y-114223800D02*
X232003600Y-114223800D01*
X232384600Y-114604800D02*
X232384600Y-114223800D01*
X228066600Y-118541800D02*
X228066600Y-118160800D01*
X228574600Y-118541800D02*
X228066600Y-118541800D01*
X232384600Y-118541800D02*
X232003600Y-118541800D01*
X232384600Y-118414800D02*
X232384600Y-118541800D01*
X232384600Y-118160800D02*
X232384600Y-118414800D01*
G04 #@! TO.C,LED46*
X249656600Y-114096800D02*
G75*
G03X249656600Y-114096800I-127000J0D01*
G01*
X253847600Y-114223800D02*
X253466600Y-114223800D01*
X253847600Y-114604800D02*
X253847600Y-114223800D01*
X249529600Y-118541800D02*
X249529600Y-118160800D01*
X250037600Y-118541800D02*
X249529600Y-118541800D01*
X253847600Y-118541800D02*
X253466600Y-118541800D01*
X253847600Y-118414800D02*
X253847600Y-118541800D01*
X253847600Y-118160800D02*
X253847600Y-118414800D01*
G04 #@! TO.C,SW28*
X208731076Y-104722561D02*
X208873933Y-104770180D01*
X209112028Y-104770180D01*
X209207266Y-104722561D01*
X209254885Y-104674942D01*
X209302504Y-104579704D01*
X209302504Y-104484466D01*
X209254885Y-104389228D01*
X209207266Y-104341609D01*
X209112028Y-104293990D01*
X208921552Y-104246371D01*
X208826314Y-104198752D01*
X208778695Y-104151133D01*
X208731076Y-104055895D01*
X208731076Y-103960657D01*
X208778695Y-103865419D01*
X208826314Y-103817800D01*
X208921552Y-103770180D01*
X209159647Y-103770180D01*
X209302504Y-103817800D01*
X209635838Y-103770180D02*
X209873933Y-104770180D01*
X210064409Y-104055895D01*
X210254885Y-104770180D01*
X210492980Y-103770180D01*
X210826314Y-103865419D02*
X210873933Y-103817800D01*
X210969171Y-103770180D01*
X211207266Y-103770180D01*
X211302504Y-103817800D01*
X211350123Y-103865419D01*
X211397742Y-103960657D01*
X211397742Y-104055895D01*
X211350123Y-104198752D01*
X210778695Y-104770180D01*
X211397742Y-104770180D01*
X211969171Y-104198752D02*
X211873933Y-104151133D01*
X211826314Y-104103514D01*
X211778695Y-104008276D01*
X211778695Y-103960657D01*
X211826314Y-103865419D01*
X211873933Y-103817800D01*
X211969171Y-103770180D01*
X212159647Y-103770180D01*
X212254885Y-103817800D01*
X212302504Y-103865419D01*
X212350123Y-103960657D01*
X212350123Y-104008276D01*
X212302504Y-104103514D01*
X212254885Y-104151133D01*
X212159647Y-104198752D01*
X211969171Y-104198752D01*
X211873933Y-104246371D01*
X211826314Y-104293990D01*
X211778695Y-104389228D01*
X211778695Y-104579704D01*
X211826314Y-104674942D01*
X211873933Y-104722561D01*
X211969171Y-104770180D01*
X212159647Y-104770180D01*
X212254885Y-104722561D01*
X212302504Y-104674942D01*
X212350123Y-104579704D01*
X212350123Y-104389228D01*
X212302504Y-104293990D01*
X212254885Y-104246371D01*
X212159647Y-104198752D01*
G04 #@! TO.C,SW31*
X251657076Y-66876561D02*
X251799933Y-66924180D01*
X252038028Y-66924180D01*
X252133266Y-66876561D01*
X252180885Y-66828942D01*
X252228504Y-66733704D01*
X252228504Y-66638466D01*
X252180885Y-66543228D01*
X252133266Y-66495609D01*
X252038028Y-66447990D01*
X251847552Y-66400371D01*
X251752314Y-66352752D01*
X251704695Y-66305133D01*
X251657076Y-66209895D01*
X251657076Y-66114657D01*
X251704695Y-66019419D01*
X251752314Y-65971800D01*
X251847552Y-65924180D01*
X252085647Y-65924180D01*
X252228504Y-65971800D01*
X252561838Y-65924180D02*
X252799933Y-66924180D01*
X252990409Y-66209895D01*
X253180885Y-66924180D01*
X253418980Y-65924180D01*
X253704695Y-65924180D02*
X254323742Y-65924180D01*
X253990409Y-66305133D01*
X254133266Y-66305133D01*
X254228504Y-66352752D01*
X254276123Y-66400371D01*
X254323742Y-66495609D01*
X254323742Y-66733704D01*
X254276123Y-66828942D01*
X254228504Y-66876561D01*
X254133266Y-66924180D01*
X253847552Y-66924180D01*
X253752314Y-66876561D01*
X253704695Y-66828942D01*
X255276123Y-66924180D02*
X254704695Y-66924180D01*
X254990409Y-66924180D02*
X254990409Y-65924180D01*
X254895171Y-66067038D01*
X254799933Y-66162276D01*
X254704695Y-66209895D01*
G04 #@! TO.C,SW2*
X43154766Y-66813061D02*
X43297623Y-66860680D01*
X43535719Y-66860680D01*
X43630957Y-66813061D01*
X43678576Y-66765442D01*
X43726195Y-66670204D01*
X43726195Y-66574966D01*
X43678576Y-66479728D01*
X43630957Y-66432109D01*
X43535719Y-66384490D01*
X43345242Y-66336871D01*
X43250004Y-66289252D01*
X43202385Y-66241633D01*
X43154766Y-66146395D01*
X43154766Y-66051157D01*
X43202385Y-65955919D01*
X43250004Y-65908300D01*
X43345242Y-65860680D01*
X43583338Y-65860680D01*
X43726195Y-65908300D01*
X44059528Y-65860680D02*
X44297623Y-66860680D01*
X44488100Y-66146395D01*
X44678576Y-66860680D01*
X44916671Y-65860680D01*
X45250004Y-65955919D02*
X45297623Y-65908300D01*
X45392861Y-65860680D01*
X45630957Y-65860680D01*
X45726195Y-65908300D01*
X45773814Y-65955919D01*
X45821433Y-66051157D01*
X45821433Y-66146395D01*
X45773814Y-66289252D01*
X45202385Y-66860680D01*
X45821433Y-66860680D01*
G04 #@! TO.C,SW3*
X62230166Y-66813061D02*
X62373023Y-66860680D01*
X62611119Y-66860680D01*
X62706357Y-66813061D01*
X62753976Y-66765442D01*
X62801595Y-66670204D01*
X62801595Y-66574966D01*
X62753976Y-66479728D01*
X62706357Y-66432109D01*
X62611119Y-66384490D01*
X62420642Y-66336871D01*
X62325404Y-66289252D01*
X62277785Y-66241633D01*
X62230166Y-66146395D01*
X62230166Y-66051157D01*
X62277785Y-65955919D01*
X62325404Y-65908300D01*
X62420642Y-65860680D01*
X62658738Y-65860680D01*
X62801595Y-65908300D01*
X63134928Y-65860680D02*
X63373023Y-66860680D01*
X63563500Y-66146395D01*
X63753976Y-66860680D01*
X63992071Y-65860680D01*
X64277785Y-65860680D02*
X64896833Y-65860680D01*
X64563500Y-66241633D01*
X64706357Y-66241633D01*
X64801595Y-66289252D01*
X64849214Y-66336871D01*
X64896833Y-66432109D01*
X64896833Y-66670204D01*
X64849214Y-66765442D01*
X64801595Y-66813061D01*
X64706357Y-66860680D01*
X64420642Y-66860680D01*
X64325404Y-66813061D01*
X64277785Y-66765442D01*
G04 #@! TO.C,SW4*
X66713266Y-85926561D02*
X66856123Y-85974180D01*
X67094219Y-85974180D01*
X67189457Y-85926561D01*
X67237076Y-85878942D01*
X67284695Y-85783704D01*
X67284695Y-85688466D01*
X67237076Y-85593228D01*
X67189457Y-85545609D01*
X67094219Y-85497990D01*
X66903742Y-85450371D01*
X66808504Y-85402752D01*
X66760885Y-85355133D01*
X66713266Y-85259895D01*
X66713266Y-85164657D01*
X66760885Y-85069419D01*
X66808504Y-85021800D01*
X66903742Y-84974180D01*
X67141838Y-84974180D01*
X67284695Y-85021800D01*
X67618028Y-84974180D02*
X67856123Y-85974180D01*
X68046600Y-85259895D01*
X68237076Y-85974180D01*
X68475171Y-84974180D01*
X69284695Y-85307514D02*
X69284695Y-85974180D01*
X69046600Y-84926561D02*
X68808504Y-85640847D01*
X69427552Y-85640847D01*
G04 #@! TO.C,SW5*
X66713266Y-124026561D02*
X66856123Y-124074180D01*
X67094219Y-124074180D01*
X67189457Y-124026561D01*
X67237076Y-123978942D01*
X67284695Y-123883704D01*
X67284695Y-123788466D01*
X67237076Y-123693228D01*
X67189457Y-123645609D01*
X67094219Y-123597990D01*
X66903742Y-123550371D01*
X66808504Y-123502752D01*
X66760885Y-123455133D01*
X66713266Y-123359895D01*
X66713266Y-123264657D01*
X66760885Y-123169419D01*
X66808504Y-123121800D01*
X66903742Y-123074180D01*
X67141838Y-123074180D01*
X67284695Y-123121800D01*
X67618028Y-123074180D02*
X67856123Y-124074180D01*
X68046600Y-123359895D01*
X68237076Y-124074180D01*
X68475171Y-123074180D01*
X69332314Y-123074180D02*
X68856123Y-123074180D01*
X68808504Y-123550371D01*
X68856123Y-123502752D01*
X68951361Y-123455133D01*
X69189457Y-123455133D01*
X69284695Y-123502752D01*
X69332314Y-123550371D01*
X69379933Y-123645609D01*
X69379933Y-123883704D01*
X69332314Y-123978942D01*
X69284695Y-124026561D01*
X69189457Y-124074180D01*
X68951361Y-124074180D01*
X68856123Y-124026561D01*
X68808504Y-123978942D01*
G04 #@! TO.C,SW6*
X81280166Y-66876561D02*
X81423023Y-66924180D01*
X81661119Y-66924180D01*
X81756357Y-66876561D01*
X81803976Y-66828942D01*
X81851595Y-66733704D01*
X81851595Y-66638466D01*
X81803976Y-66543228D01*
X81756357Y-66495609D01*
X81661119Y-66447990D01*
X81470642Y-66400371D01*
X81375404Y-66352752D01*
X81327785Y-66305133D01*
X81280166Y-66209895D01*
X81280166Y-66114657D01*
X81327785Y-66019419D01*
X81375404Y-65971800D01*
X81470642Y-65924180D01*
X81708738Y-65924180D01*
X81851595Y-65971800D01*
X82184928Y-65924180D02*
X82423023Y-66924180D01*
X82613500Y-66209895D01*
X82803976Y-66924180D01*
X83042071Y-65924180D01*
X83851595Y-65924180D02*
X83661119Y-65924180D01*
X83565880Y-65971800D01*
X83518261Y-66019419D01*
X83423023Y-66162276D01*
X83375404Y-66352752D01*
X83375404Y-66733704D01*
X83423023Y-66828942D01*
X83470642Y-66876561D01*
X83565880Y-66924180D01*
X83756357Y-66924180D01*
X83851595Y-66876561D01*
X83899214Y-66828942D01*
X83946833Y-66733704D01*
X83946833Y-66495609D01*
X83899214Y-66400371D01*
X83851595Y-66352752D01*
X83756357Y-66305133D01*
X83565880Y-66305133D01*
X83470642Y-66352752D01*
X83423023Y-66400371D01*
X83375404Y-66495609D01*
G04 #@! TO.C,SW7*
X86017266Y-85926561D02*
X86160123Y-85974180D01*
X86398219Y-85974180D01*
X86493457Y-85926561D01*
X86541076Y-85878942D01*
X86588695Y-85783704D01*
X86588695Y-85688466D01*
X86541076Y-85593228D01*
X86493457Y-85545609D01*
X86398219Y-85497990D01*
X86207742Y-85450371D01*
X86112504Y-85402752D01*
X86064885Y-85355133D01*
X86017266Y-85259895D01*
X86017266Y-85164657D01*
X86064885Y-85069419D01*
X86112504Y-85021800D01*
X86207742Y-84974180D01*
X86445838Y-84974180D01*
X86588695Y-85021800D01*
X86922028Y-84974180D02*
X87160123Y-85974180D01*
X87350600Y-85259895D01*
X87541076Y-85974180D01*
X87779171Y-84974180D01*
X88064885Y-84974180D02*
X88731552Y-84974180D01*
X88302980Y-85974180D01*
G04 #@! TO.C,SW8*
X76365266Y-104976561D02*
X76508123Y-105024180D01*
X76746219Y-105024180D01*
X76841457Y-104976561D01*
X76889076Y-104928942D01*
X76936695Y-104833704D01*
X76936695Y-104738466D01*
X76889076Y-104643228D01*
X76841457Y-104595609D01*
X76746219Y-104547990D01*
X76555742Y-104500371D01*
X76460504Y-104452752D01*
X76412885Y-104405133D01*
X76365266Y-104309895D01*
X76365266Y-104214657D01*
X76412885Y-104119419D01*
X76460504Y-104071800D01*
X76555742Y-104024180D01*
X76793838Y-104024180D01*
X76936695Y-104071800D01*
X77270028Y-104024180D02*
X77508123Y-105024180D01*
X77698600Y-104309895D01*
X77889076Y-105024180D01*
X78127171Y-104024180D01*
X78650980Y-104452752D02*
X78555742Y-104405133D01*
X78508123Y-104357514D01*
X78460504Y-104262276D01*
X78460504Y-104214657D01*
X78508123Y-104119419D01*
X78555742Y-104071800D01*
X78650980Y-104024180D01*
X78841457Y-104024180D01*
X78936695Y-104071800D01*
X78984314Y-104119419D01*
X79031933Y-104214657D01*
X79031933Y-104262276D01*
X78984314Y-104357514D01*
X78936695Y-104405133D01*
X78841457Y-104452752D01*
X78650980Y-104452752D01*
X78555742Y-104500371D01*
X78508123Y-104547990D01*
X78460504Y-104643228D01*
X78460504Y-104833704D01*
X78508123Y-104928942D01*
X78555742Y-104976561D01*
X78650980Y-105024180D01*
X78841457Y-105024180D01*
X78936695Y-104976561D01*
X78984314Y-104928942D01*
X79031933Y-104833704D01*
X79031933Y-104643228D01*
X78984314Y-104547990D01*
X78936695Y-104500371D01*
X78841457Y-104452752D01*
G04 #@! TO.C,SW9*
X100330166Y-66876561D02*
X100473023Y-66924180D01*
X100711119Y-66924180D01*
X100806357Y-66876561D01*
X100853976Y-66828942D01*
X100901595Y-66733704D01*
X100901595Y-66638466D01*
X100853976Y-66543228D01*
X100806357Y-66495609D01*
X100711119Y-66447990D01*
X100520642Y-66400371D01*
X100425404Y-66352752D01*
X100377785Y-66305133D01*
X100330166Y-66209895D01*
X100330166Y-66114657D01*
X100377785Y-66019419D01*
X100425404Y-65971800D01*
X100520642Y-65924180D01*
X100758738Y-65924180D01*
X100901595Y-65971800D01*
X101234928Y-65924180D02*
X101473023Y-66924180D01*
X101663500Y-66209895D01*
X101853976Y-66924180D01*
X102092071Y-65924180D01*
X102520642Y-66924180D02*
X102711119Y-66924180D01*
X102806357Y-66876561D01*
X102853976Y-66828942D01*
X102949214Y-66686085D01*
X102996833Y-66495609D01*
X102996833Y-66114657D01*
X102949214Y-66019419D01*
X102901595Y-65971800D01*
X102806357Y-65924180D01*
X102615880Y-65924180D01*
X102520642Y-65971800D01*
X102473023Y-66019419D01*
X102425404Y-66114657D01*
X102425404Y-66352752D01*
X102473023Y-66447990D01*
X102520642Y-66495609D01*
X102615880Y-66543228D01*
X102806357Y-66543228D01*
X102901595Y-66495609D01*
X102949214Y-66447990D01*
X102996833Y-66352752D01*
G04 #@! TO.C,SW10*
X104337076Y-85926561D02*
X104479933Y-85974180D01*
X104718028Y-85974180D01*
X104813266Y-85926561D01*
X104860885Y-85878942D01*
X104908504Y-85783704D01*
X104908504Y-85688466D01*
X104860885Y-85593228D01*
X104813266Y-85545609D01*
X104718028Y-85497990D01*
X104527552Y-85450371D01*
X104432314Y-85402752D01*
X104384695Y-85355133D01*
X104337076Y-85259895D01*
X104337076Y-85164657D01*
X104384695Y-85069419D01*
X104432314Y-85021800D01*
X104527552Y-84974180D01*
X104765647Y-84974180D01*
X104908504Y-85021800D01*
X105241838Y-84974180D02*
X105479933Y-85974180D01*
X105670409Y-85259895D01*
X105860885Y-85974180D01*
X106098980Y-84974180D01*
X107003742Y-85974180D02*
X106432314Y-85974180D01*
X106718028Y-85974180D02*
X106718028Y-84974180D01*
X106622790Y-85117038D01*
X106527552Y-85212276D01*
X106432314Y-85259895D01*
X107622790Y-84974180D02*
X107718028Y-84974180D01*
X107813266Y-85021800D01*
X107860885Y-85069419D01*
X107908504Y-85164657D01*
X107956123Y-85355133D01*
X107956123Y-85593228D01*
X107908504Y-85783704D01*
X107860885Y-85878942D01*
X107813266Y-85926561D01*
X107718028Y-85974180D01*
X107622790Y-85974180D01*
X107527552Y-85926561D01*
X107479933Y-85878942D01*
X107432314Y-85783704D01*
X107384695Y-85593228D01*
X107384695Y-85355133D01*
X107432314Y-85164657D01*
X107479933Y-85069419D01*
X107527552Y-85021800D01*
X107622790Y-84974180D01*
G04 #@! TO.C,SW11*
X94685076Y-104976561D02*
X94827933Y-105024180D01*
X95066028Y-105024180D01*
X95161266Y-104976561D01*
X95208885Y-104928942D01*
X95256504Y-104833704D01*
X95256504Y-104738466D01*
X95208885Y-104643228D01*
X95161266Y-104595609D01*
X95066028Y-104547990D01*
X94875552Y-104500371D01*
X94780314Y-104452752D01*
X94732695Y-104405133D01*
X94685076Y-104309895D01*
X94685076Y-104214657D01*
X94732695Y-104119419D01*
X94780314Y-104071800D01*
X94875552Y-104024180D01*
X95113647Y-104024180D01*
X95256504Y-104071800D01*
X95589838Y-104024180D02*
X95827933Y-105024180D01*
X96018409Y-104309895D01*
X96208885Y-105024180D01*
X96446980Y-104024180D01*
X97351742Y-105024180D02*
X96780314Y-105024180D01*
X97066028Y-105024180D02*
X97066028Y-104024180D01*
X96970790Y-104167038D01*
X96875552Y-104262276D01*
X96780314Y-104309895D01*
X98304123Y-105024180D02*
X97732695Y-105024180D01*
X98018409Y-105024180D02*
X98018409Y-104024180D01*
X97923171Y-104167038D01*
X97827933Y-104262276D01*
X97732695Y-104309895D01*
G04 #@! TO.C,SW12*
X118903976Y-66876561D02*
X119046833Y-66924180D01*
X119284928Y-66924180D01*
X119380166Y-66876561D01*
X119427785Y-66828942D01*
X119475404Y-66733704D01*
X119475404Y-66638466D01*
X119427785Y-66543228D01*
X119380166Y-66495609D01*
X119284928Y-66447990D01*
X119094452Y-66400371D01*
X118999214Y-66352752D01*
X118951595Y-66305133D01*
X118903976Y-66209895D01*
X118903976Y-66114657D01*
X118951595Y-66019419D01*
X118999214Y-65971800D01*
X119094452Y-65924180D01*
X119332547Y-65924180D01*
X119475404Y-65971800D01*
X119808738Y-65924180D02*
X120046833Y-66924180D01*
X120237309Y-66209895D01*
X120427785Y-66924180D01*
X120665880Y-65924180D01*
X121570642Y-66924180D02*
X120999214Y-66924180D01*
X121284928Y-66924180D02*
X121284928Y-65924180D01*
X121189690Y-66067038D01*
X121094452Y-66162276D01*
X120999214Y-66209895D01*
X121951595Y-66019419D02*
X121999214Y-65971800D01*
X122094452Y-65924180D01*
X122332547Y-65924180D01*
X122427785Y-65971800D01*
X122475404Y-66019419D01*
X122523023Y-66114657D01*
X122523023Y-66209895D01*
X122475404Y-66352752D01*
X121903976Y-66924180D01*
X122523023Y-66924180D01*
G04 #@! TO.C,SW13*
X123387076Y-85672561D02*
X123529933Y-85720180D01*
X123768028Y-85720180D01*
X123863266Y-85672561D01*
X123910885Y-85624942D01*
X123958504Y-85529704D01*
X123958504Y-85434466D01*
X123910885Y-85339228D01*
X123863266Y-85291609D01*
X123768028Y-85243990D01*
X123577552Y-85196371D01*
X123482314Y-85148752D01*
X123434695Y-85101133D01*
X123387076Y-85005895D01*
X123387076Y-84910657D01*
X123434695Y-84815419D01*
X123482314Y-84767800D01*
X123577552Y-84720180D01*
X123815647Y-84720180D01*
X123958504Y-84767800D01*
X124291838Y-84720180D02*
X124529933Y-85720180D01*
X124720409Y-85005895D01*
X124910885Y-85720180D01*
X125148980Y-84720180D01*
X126053742Y-85720180D02*
X125482314Y-85720180D01*
X125768028Y-85720180D02*
X125768028Y-84720180D01*
X125672790Y-84863038D01*
X125577552Y-84958276D01*
X125482314Y-85005895D01*
X126387076Y-84720180D02*
X127006123Y-84720180D01*
X126672790Y-85101133D01*
X126815647Y-85101133D01*
X126910885Y-85148752D01*
X126958504Y-85196371D01*
X127006123Y-85291609D01*
X127006123Y-85529704D01*
X126958504Y-85624942D01*
X126910885Y-85672561D01*
X126815647Y-85720180D01*
X126529933Y-85720180D01*
X126434695Y-85672561D01*
X126387076Y-85624942D01*
G04 #@! TO.C,SW14*
X137357076Y-66876561D02*
X137499933Y-66924180D01*
X137738028Y-66924180D01*
X137833266Y-66876561D01*
X137880885Y-66828942D01*
X137928504Y-66733704D01*
X137928504Y-66638466D01*
X137880885Y-66543228D01*
X137833266Y-66495609D01*
X137738028Y-66447990D01*
X137547552Y-66400371D01*
X137452314Y-66352752D01*
X137404695Y-66305133D01*
X137357076Y-66209895D01*
X137357076Y-66114657D01*
X137404695Y-66019419D01*
X137452314Y-65971800D01*
X137547552Y-65924180D01*
X137785647Y-65924180D01*
X137928504Y-65971800D01*
X138261838Y-65924180D02*
X138499933Y-66924180D01*
X138690409Y-66209895D01*
X138880885Y-66924180D01*
X139118980Y-65924180D01*
X140023742Y-66924180D02*
X139452314Y-66924180D01*
X139738028Y-66924180D02*
X139738028Y-65924180D01*
X139642790Y-66067038D01*
X139547552Y-66162276D01*
X139452314Y-66209895D01*
X140880885Y-66257514D02*
X140880885Y-66924180D01*
X140642790Y-65876561D02*
X140404695Y-66590847D01*
X141023742Y-66590847D01*
G04 #@! TO.C,SW15*
X142691076Y-85672561D02*
X142833933Y-85720180D01*
X143072028Y-85720180D01*
X143167266Y-85672561D01*
X143214885Y-85624942D01*
X143262504Y-85529704D01*
X143262504Y-85434466D01*
X143214885Y-85339228D01*
X143167266Y-85291609D01*
X143072028Y-85243990D01*
X142881552Y-85196371D01*
X142786314Y-85148752D01*
X142738695Y-85101133D01*
X142691076Y-85005895D01*
X142691076Y-84910657D01*
X142738695Y-84815419D01*
X142786314Y-84767800D01*
X142881552Y-84720180D01*
X143119647Y-84720180D01*
X143262504Y-84767800D01*
X143595838Y-84720180D02*
X143833933Y-85720180D01*
X144024409Y-85005895D01*
X144214885Y-85720180D01*
X144452980Y-84720180D01*
X145357742Y-85720180D02*
X144786314Y-85720180D01*
X145072028Y-85720180D02*
X145072028Y-84720180D01*
X144976790Y-84863038D01*
X144881552Y-84958276D01*
X144786314Y-85005895D01*
X146262504Y-84720180D02*
X145786314Y-84720180D01*
X145738695Y-85196371D01*
X145786314Y-85148752D01*
X145881552Y-85101133D01*
X146119647Y-85101133D01*
X146214885Y-85148752D01*
X146262504Y-85196371D01*
X146310123Y-85291609D01*
X146310123Y-85529704D01*
X146262504Y-85624942D01*
X146214885Y-85672561D01*
X146119647Y-85720180D01*
X145881552Y-85720180D01*
X145786314Y-85672561D01*
X145738695Y-85624942D01*
G04 #@! TO.C,SW16*
X132531076Y-104976561D02*
X132673933Y-105024180D01*
X132912028Y-105024180D01*
X133007266Y-104976561D01*
X133054885Y-104928942D01*
X133102504Y-104833704D01*
X133102504Y-104738466D01*
X133054885Y-104643228D01*
X133007266Y-104595609D01*
X132912028Y-104547990D01*
X132721552Y-104500371D01*
X132626314Y-104452752D01*
X132578695Y-104405133D01*
X132531076Y-104309895D01*
X132531076Y-104214657D01*
X132578695Y-104119419D01*
X132626314Y-104071800D01*
X132721552Y-104024180D01*
X132959647Y-104024180D01*
X133102504Y-104071800D01*
X133435838Y-104024180D02*
X133673933Y-105024180D01*
X133864409Y-104309895D01*
X134054885Y-105024180D01*
X134292980Y-104024180D01*
X135197742Y-105024180D02*
X134626314Y-105024180D01*
X134912028Y-105024180D02*
X134912028Y-104024180D01*
X134816790Y-104167038D01*
X134721552Y-104262276D01*
X134626314Y-104309895D01*
X136054885Y-104024180D02*
X135864409Y-104024180D01*
X135769171Y-104071800D01*
X135721552Y-104119419D01*
X135626314Y-104262276D01*
X135578695Y-104452752D01*
X135578695Y-104833704D01*
X135626314Y-104928942D01*
X135673933Y-104976561D01*
X135769171Y-105024180D01*
X135959647Y-105024180D01*
X136054885Y-104976561D01*
X136102504Y-104928942D01*
X136150123Y-104833704D01*
X136150123Y-104595609D01*
X136102504Y-104500371D01*
X136054885Y-104452752D01*
X135959647Y-104405133D01*
X135769171Y-104405133D01*
X135673933Y-104452752D01*
X135626314Y-104500371D01*
X135578695Y-104595609D01*
G04 #@! TO.C,SW17*
X156915076Y-66876561D02*
X157057933Y-66924180D01*
X157296028Y-66924180D01*
X157391266Y-66876561D01*
X157438885Y-66828942D01*
X157486504Y-66733704D01*
X157486504Y-66638466D01*
X157438885Y-66543228D01*
X157391266Y-66495609D01*
X157296028Y-66447990D01*
X157105552Y-66400371D01*
X157010314Y-66352752D01*
X156962695Y-66305133D01*
X156915076Y-66209895D01*
X156915076Y-66114657D01*
X156962695Y-66019419D01*
X157010314Y-65971800D01*
X157105552Y-65924180D01*
X157343647Y-65924180D01*
X157486504Y-65971800D01*
X157819838Y-65924180D02*
X158057933Y-66924180D01*
X158248409Y-66209895D01*
X158438885Y-66924180D01*
X158676980Y-65924180D01*
X159581742Y-66924180D02*
X159010314Y-66924180D01*
X159296028Y-66924180D02*
X159296028Y-65924180D01*
X159200790Y-66067038D01*
X159105552Y-66162276D01*
X159010314Y-66209895D01*
X159915076Y-65924180D02*
X160581742Y-65924180D01*
X160153171Y-66924180D01*
G04 #@! TO.C,SW18*
X161741076Y-85926561D02*
X161883933Y-85974180D01*
X162122028Y-85974180D01*
X162217266Y-85926561D01*
X162264885Y-85878942D01*
X162312504Y-85783704D01*
X162312504Y-85688466D01*
X162264885Y-85593228D01*
X162217266Y-85545609D01*
X162122028Y-85497990D01*
X161931552Y-85450371D01*
X161836314Y-85402752D01*
X161788695Y-85355133D01*
X161741076Y-85259895D01*
X161741076Y-85164657D01*
X161788695Y-85069419D01*
X161836314Y-85021800D01*
X161931552Y-84974180D01*
X162169647Y-84974180D01*
X162312504Y-85021800D01*
X162645838Y-84974180D02*
X162883933Y-85974180D01*
X163074409Y-85259895D01*
X163264885Y-85974180D01*
X163502980Y-84974180D01*
X164407742Y-85974180D02*
X163836314Y-85974180D01*
X164122028Y-85974180D02*
X164122028Y-84974180D01*
X164026790Y-85117038D01*
X163931552Y-85212276D01*
X163836314Y-85259895D01*
X164979171Y-85402752D02*
X164883933Y-85355133D01*
X164836314Y-85307514D01*
X164788695Y-85212276D01*
X164788695Y-85164657D01*
X164836314Y-85069419D01*
X164883933Y-85021800D01*
X164979171Y-84974180D01*
X165169647Y-84974180D01*
X165264885Y-85021800D01*
X165312504Y-85069419D01*
X165360123Y-85164657D01*
X165360123Y-85212276D01*
X165312504Y-85307514D01*
X165264885Y-85355133D01*
X165169647Y-85402752D01*
X164979171Y-85402752D01*
X164883933Y-85450371D01*
X164836314Y-85497990D01*
X164788695Y-85593228D01*
X164788695Y-85783704D01*
X164836314Y-85878942D01*
X164883933Y-85926561D01*
X164979171Y-85974180D01*
X165169647Y-85974180D01*
X165264885Y-85926561D01*
X165312504Y-85878942D01*
X165360123Y-85783704D01*
X165360123Y-85593228D01*
X165312504Y-85497990D01*
X165264885Y-85450371D01*
X165169647Y-85402752D01*
G04 #@! TO.C,SW19*
X151835076Y-104976561D02*
X151977933Y-105024180D01*
X152216028Y-105024180D01*
X152311266Y-104976561D01*
X152358885Y-104928942D01*
X152406504Y-104833704D01*
X152406504Y-104738466D01*
X152358885Y-104643228D01*
X152311266Y-104595609D01*
X152216028Y-104547990D01*
X152025552Y-104500371D01*
X151930314Y-104452752D01*
X151882695Y-104405133D01*
X151835076Y-104309895D01*
X151835076Y-104214657D01*
X151882695Y-104119419D01*
X151930314Y-104071800D01*
X152025552Y-104024180D01*
X152263647Y-104024180D01*
X152406504Y-104071800D01*
X152739838Y-104024180D02*
X152977933Y-105024180D01*
X153168409Y-104309895D01*
X153358885Y-105024180D01*
X153596980Y-104024180D01*
X154501742Y-105024180D02*
X153930314Y-105024180D01*
X154216028Y-105024180D02*
X154216028Y-104024180D01*
X154120790Y-104167038D01*
X154025552Y-104262276D01*
X153930314Y-104309895D01*
X154977933Y-105024180D02*
X155168409Y-105024180D01*
X155263647Y-104976561D01*
X155311266Y-104928942D01*
X155406504Y-104786085D01*
X155454123Y-104595609D01*
X155454123Y-104214657D01*
X155406504Y-104119419D01*
X155358885Y-104071800D01*
X155263647Y-104024180D01*
X155073171Y-104024180D01*
X154977933Y-104071800D01*
X154930314Y-104119419D01*
X154882695Y-104214657D01*
X154882695Y-104452752D01*
X154930314Y-104547990D01*
X154977933Y-104595609D01*
X155073171Y-104643228D01*
X155263647Y-104643228D01*
X155358885Y-104595609D01*
X155406504Y-104547990D01*
X155454123Y-104452752D01*
G04 #@! TO.C,SW20*
X175965076Y-66876561D02*
X176107933Y-66924180D01*
X176346028Y-66924180D01*
X176441266Y-66876561D01*
X176488885Y-66828942D01*
X176536504Y-66733704D01*
X176536504Y-66638466D01*
X176488885Y-66543228D01*
X176441266Y-66495609D01*
X176346028Y-66447990D01*
X176155552Y-66400371D01*
X176060314Y-66352752D01*
X176012695Y-66305133D01*
X175965076Y-66209895D01*
X175965076Y-66114657D01*
X176012695Y-66019419D01*
X176060314Y-65971800D01*
X176155552Y-65924180D01*
X176393647Y-65924180D01*
X176536504Y-65971800D01*
X176869838Y-65924180D02*
X177107933Y-66924180D01*
X177298409Y-66209895D01*
X177488885Y-66924180D01*
X177726980Y-65924180D01*
X178060314Y-66019419D02*
X178107933Y-65971800D01*
X178203171Y-65924180D01*
X178441266Y-65924180D01*
X178536504Y-65971800D01*
X178584123Y-66019419D01*
X178631742Y-66114657D01*
X178631742Y-66209895D01*
X178584123Y-66352752D01*
X178012695Y-66924180D01*
X178631742Y-66924180D01*
X179250790Y-65924180D02*
X179346028Y-65924180D01*
X179441266Y-65971800D01*
X179488885Y-66019419D01*
X179536504Y-66114657D01*
X179584123Y-66305133D01*
X179584123Y-66543228D01*
X179536504Y-66733704D01*
X179488885Y-66828942D01*
X179441266Y-66876561D01*
X179346028Y-66924180D01*
X179250790Y-66924180D01*
X179155552Y-66876561D01*
X179107933Y-66828942D01*
X179060314Y-66733704D01*
X179012695Y-66543228D01*
X179012695Y-66305133D01*
X179060314Y-66114657D01*
X179107933Y-66019419D01*
X179155552Y-65971800D01*
X179250790Y-65924180D01*
G04 #@! TO.C,SW21*
X180791076Y-85926561D02*
X180933933Y-85974180D01*
X181172028Y-85974180D01*
X181267266Y-85926561D01*
X181314885Y-85878942D01*
X181362504Y-85783704D01*
X181362504Y-85688466D01*
X181314885Y-85593228D01*
X181267266Y-85545609D01*
X181172028Y-85497990D01*
X180981552Y-85450371D01*
X180886314Y-85402752D01*
X180838695Y-85355133D01*
X180791076Y-85259895D01*
X180791076Y-85164657D01*
X180838695Y-85069419D01*
X180886314Y-85021800D01*
X180981552Y-84974180D01*
X181219647Y-84974180D01*
X181362504Y-85021800D01*
X181695838Y-84974180D02*
X181933933Y-85974180D01*
X182124409Y-85259895D01*
X182314885Y-85974180D01*
X182552980Y-84974180D01*
X182886314Y-85069419D02*
X182933933Y-85021800D01*
X183029171Y-84974180D01*
X183267266Y-84974180D01*
X183362504Y-85021800D01*
X183410123Y-85069419D01*
X183457742Y-85164657D01*
X183457742Y-85259895D01*
X183410123Y-85402752D01*
X182838695Y-85974180D01*
X183457742Y-85974180D01*
X184410123Y-85974180D02*
X183838695Y-85974180D01*
X184124409Y-85974180D02*
X184124409Y-84974180D01*
X184029171Y-85117038D01*
X183933933Y-85212276D01*
X183838695Y-85259895D01*
G04 #@! TO.C,SW22*
X171139076Y-104976561D02*
X171281933Y-105024180D01*
X171520028Y-105024180D01*
X171615266Y-104976561D01*
X171662885Y-104928942D01*
X171710504Y-104833704D01*
X171710504Y-104738466D01*
X171662885Y-104643228D01*
X171615266Y-104595609D01*
X171520028Y-104547990D01*
X171329552Y-104500371D01*
X171234314Y-104452752D01*
X171186695Y-104405133D01*
X171139076Y-104309895D01*
X171139076Y-104214657D01*
X171186695Y-104119419D01*
X171234314Y-104071800D01*
X171329552Y-104024180D01*
X171567647Y-104024180D01*
X171710504Y-104071800D01*
X172043838Y-104024180D02*
X172281933Y-105024180D01*
X172472409Y-104309895D01*
X172662885Y-105024180D01*
X172900980Y-104024180D01*
X173234314Y-104119419D02*
X173281933Y-104071800D01*
X173377171Y-104024180D01*
X173615266Y-104024180D01*
X173710504Y-104071800D01*
X173758123Y-104119419D01*
X173805742Y-104214657D01*
X173805742Y-104309895D01*
X173758123Y-104452752D01*
X173186695Y-105024180D01*
X173805742Y-105024180D01*
X174186695Y-104119419D02*
X174234314Y-104071800D01*
X174329552Y-104024180D01*
X174567647Y-104024180D01*
X174662885Y-104071800D01*
X174710504Y-104119419D01*
X174758123Y-104214657D01*
X174758123Y-104309895D01*
X174710504Y-104452752D01*
X174139076Y-105024180D01*
X174758123Y-105024180D01*
G04 #@! TO.C,SW23*
X194761076Y-66876561D02*
X194903933Y-66924180D01*
X195142028Y-66924180D01*
X195237266Y-66876561D01*
X195284885Y-66828942D01*
X195332504Y-66733704D01*
X195332504Y-66638466D01*
X195284885Y-66543228D01*
X195237266Y-66495609D01*
X195142028Y-66447990D01*
X194951552Y-66400371D01*
X194856314Y-66352752D01*
X194808695Y-66305133D01*
X194761076Y-66209895D01*
X194761076Y-66114657D01*
X194808695Y-66019419D01*
X194856314Y-65971800D01*
X194951552Y-65924180D01*
X195189647Y-65924180D01*
X195332504Y-65971800D01*
X195665838Y-65924180D02*
X195903933Y-66924180D01*
X196094409Y-66209895D01*
X196284885Y-66924180D01*
X196522980Y-65924180D01*
X196856314Y-66019419D02*
X196903933Y-65971800D01*
X196999171Y-65924180D01*
X197237266Y-65924180D01*
X197332504Y-65971800D01*
X197380123Y-66019419D01*
X197427742Y-66114657D01*
X197427742Y-66209895D01*
X197380123Y-66352752D01*
X196808695Y-66924180D01*
X197427742Y-66924180D01*
X197761076Y-65924180D02*
X198380123Y-65924180D01*
X198046790Y-66305133D01*
X198189647Y-66305133D01*
X198284885Y-66352752D01*
X198332504Y-66400371D01*
X198380123Y-66495609D01*
X198380123Y-66733704D01*
X198332504Y-66828942D01*
X198284885Y-66876561D01*
X198189647Y-66924180D01*
X197903933Y-66924180D01*
X197808695Y-66876561D01*
X197761076Y-66828942D01*
G04 #@! TO.C,SW24*
X199587076Y-85926561D02*
X199729933Y-85974180D01*
X199968028Y-85974180D01*
X200063266Y-85926561D01*
X200110885Y-85878942D01*
X200158504Y-85783704D01*
X200158504Y-85688466D01*
X200110885Y-85593228D01*
X200063266Y-85545609D01*
X199968028Y-85497990D01*
X199777552Y-85450371D01*
X199682314Y-85402752D01*
X199634695Y-85355133D01*
X199587076Y-85259895D01*
X199587076Y-85164657D01*
X199634695Y-85069419D01*
X199682314Y-85021800D01*
X199777552Y-84974180D01*
X200015647Y-84974180D01*
X200158504Y-85021800D01*
X200491838Y-84974180D02*
X200729933Y-85974180D01*
X200920409Y-85259895D01*
X201110885Y-85974180D01*
X201348980Y-84974180D01*
X201682314Y-85069419D02*
X201729933Y-85021800D01*
X201825171Y-84974180D01*
X202063266Y-84974180D01*
X202158504Y-85021800D01*
X202206123Y-85069419D01*
X202253742Y-85164657D01*
X202253742Y-85259895D01*
X202206123Y-85402752D01*
X201634695Y-85974180D01*
X202253742Y-85974180D01*
X203110885Y-85307514D02*
X203110885Y-85974180D01*
X202872790Y-84926561D02*
X202634695Y-85640847D01*
X203253742Y-85640847D01*
G04 #@! TO.C,SW25*
X190189076Y-104976561D02*
X190331933Y-105024180D01*
X190570028Y-105024180D01*
X190665266Y-104976561D01*
X190712885Y-104928942D01*
X190760504Y-104833704D01*
X190760504Y-104738466D01*
X190712885Y-104643228D01*
X190665266Y-104595609D01*
X190570028Y-104547990D01*
X190379552Y-104500371D01*
X190284314Y-104452752D01*
X190236695Y-104405133D01*
X190189076Y-104309895D01*
X190189076Y-104214657D01*
X190236695Y-104119419D01*
X190284314Y-104071800D01*
X190379552Y-104024180D01*
X190617647Y-104024180D01*
X190760504Y-104071800D01*
X191093838Y-104024180D02*
X191331933Y-105024180D01*
X191522409Y-104309895D01*
X191712885Y-105024180D01*
X191950980Y-104024180D01*
X192284314Y-104119419D02*
X192331933Y-104071800D01*
X192427171Y-104024180D01*
X192665266Y-104024180D01*
X192760504Y-104071800D01*
X192808123Y-104119419D01*
X192855742Y-104214657D01*
X192855742Y-104309895D01*
X192808123Y-104452752D01*
X192236695Y-105024180D01*
X192855742Y-105024180D01*
X193760504Y-104024180D02*
X193284314Y-104024180D01*
X193236695Y-104500371D01*
X193284314Y-104452752D01*
X193379552Y-104405133D01*
X193617647Y-104405133D01*
X193712885Y-104452752D01*
X193760504Y-104500371D01*
X193808123Y-104595609D01*
X193808123Y-104833704D01*
X193760504Y-104928942D01*
X193712885Y-104976561D01*
X193617647Y-105024180D01*
X193379552Y-105024180D01*
X193284314Y-104976561D01*
X193236695Y-104928942D01*
G04 #@! TO.C,SW26*
X213811076Y-66876561D02*
X213953933Y-66924180D01*
X214192028Y-66924180D01*
X214287266Y-66876561D01*
X214334885Y-66828942D01*
X214382504Y-66733704D01*
X214382504Y-66638466D01*
X214334885Y-66543228D01*
X214287266Y-66495609D01*
X214192028Y-66447990D01*
X214001552Y-66400371D01*
X213906314Y-66352752D01*
X213858695Y-66305133D01*
X213811076Y-66209895D01*
X213811076Y-66114657D01*
X213858695Y-66019419D01*
X213906314Y-65971800D01*
X214001552Y-65924180D01*
X214239647Y-65924180D01*
X214382504Y-65971800D01*
X214715838Y-65924180D02*
X214953933Y-66924180D01*
X215144409Y-66209895D01*
X215334885Y-66924180D01*
X215572980Y-65924180D01*
X215906314Y-66019419D02*
X215953933Y-65971800D01*
X216049171Y-65924180D01*
X216287266Y-65924180D01*
X216382504Y-65971800D01*
X216430123Y-66019419D01*
X216477742Y-66114657D01*
X216477742Y-66209895D01*
X216430123Y-66352752D01*
X215858695Y-66924180D01*
X216477742Y-66924180D01*
X217334885Y-65924180D02*
X217144409Y-65924180D01*
X217049171Y-65971800D01*
X217001552Y-66019419D01*
X216906314Y-66162276D01*
X216858695Y-66352752D01*
X216858695Y-66733704D01*
X216906314Y-66828942D01*
X216953933Y-66876561D01*
X217049171Y-66924180D01*
X217239647Y-66924180D01*
X217334885Y-66876561D01*
X217382504Y-66828942D01*
X217430123Y-66733704D01*
X217430123Y-66495609D01*
X217382504Y-66400371D01*
X217334885Y-66352752D01*
X217239647Y-66305133D01*
X217049171Y-66305133D01*
X216953933Y-66352752D01*
X216906314Y-66400371D01*
X216858695Y-66495609D01*
G04 #@! TO.C,SW27*
X218637076Y-85926561D02*
X218779933Y-85974180D01*
X219018028Y-85974180D01*
X219113266Y-85926561D01*
X219160885Y-85878942D01*
X219208504Y-85783704D01*
X219208504Y-85688466D01*
X219160885Y-85593228D01*
X219113266Y-85545609D01*
X219018028Y-85497990D01*
X218827552Y-85450371D01*
X218732314Y-85402752D01*
X218684695Y-85355133D01*
X218637076Y-85259895D01*
X218637076Y-85164657D01*
X218684695Y-85069419D01*
X218732314Y-85021800D01*
X218827552Y-84974180D01*
X219065647Y-84974180D01*
X219208504Y-85021800D01*
X219541838Y-84974180D02*
X219779933Y-85974180D01*
X219970409Y-85259895D01*
X220160885Y-85974180D01*
X220398980Y-84974180D01*
X220732314Y-85069419D02*
X220779933Y-85021800D01*
X220875171Y-84974180D01*
X221113266Y-84974180D01*
X221208504Y-85021800D01*
X221256123Y-85069419D01*
X221303742Y-85164657D01*
X221303742Y-85259895D01*
X221256123Y-85402752D01*
X220684695Y-85974180D01*
X221303742Y-85974180D01*
X221637076Y-84974180D02*
X222303742Y-84974180D01*
X221875171Y-85974180D01*
G04 #@! TO.C,SW29*
X232861076Y-66876561D02*
X233003933Y-66924180D01*
X233242028Y-66924180D01*
X233337266Y-66876561D01*
X233384885Y-66828942D01*
X233432504Y-66733704D01*
X233432504Y-66638466D01*
X233384885Y-66543228D01*
X233337266Y-66495609D01*
X233242028Y-66447990D01*
X233051552Y-66400371D01*
X232956314Y-66352752D01*
X232908695Y-66305133D01*
X232861076Y-66209895D01*
X232861076Y-66114657D01*
X232908695Y-66019419D01*
X232956314Y-65971800D01*
X233051552Y-65924180D01*
X233289647Y-65924180D01*
X233432504Y-65971800D01*
X233765838Y-65924180D02*
X234003933Y-66924180D01*
X234194409Y-66209895D01*
X234384885Y-66924180D01*
X234622980Y-65924180D01*
X234956314Y-66019419D02*
X235003933Y-65971800D01*
X235099171Y-65924180D01*
X235337266Y-65924180D01*
X235432504Y-65971800D01*
X235480123Y-66019419D01*
X235527742Y-66114657D01*
X235527742Y-66209895D01*
X235480123Y-66352752D01*
X234908695Y-66924180D01*
X235527742Y-66924180D01*
X236003933Y-66924180D02*
X236194409Y-66924180D01*
X236289647Y-66876561D01*
X236337266Y-66828942D01*
X236432504Y-66686085D01*
X236480123Y-66495609D01*
X236480123Y-66114657D01*
X236432504Y-66019419D01*
X236384885Y-65971800D01*
X236289647Y-65924180D01*
X236099171Y-65924180D01*
X236003933Y-65971800D01*
X235956314Y-66019419D01*
X235908695Y-66114657D01*
X235908695Y-66352752D01*
X235956314Y-66447990D01*
X236003933Y-66495609D01*
X236099171Y-66543228D01*
X236289647Y-66543228D01*
X236384885Y-66495609D01*
X236432504Y-66447990D01*
X236480123Y-66352752D01*
G04 #@! TO.C,SW30*
X228035076Y-124026561D02*
X228177933Y-124074180D01*
X228416028Y-124074180D01*
X228511266Y-124026561D01*
X228558885Y-123978942D01*
X228606504Y-123883704D01*
X228606504Y-123788466D01*
X228558885Y-123693228D01*
X228511266Y-123645609D01*
X228416028Y-123597990D01*
X228225552Y-123550371D01*
X228130314Y-123502752D01*
X228082695Y-123455133D01*
X228035076Y-123359895D01*
X228035076Y-123264657D01*
X228082695Y-123169419D01*
X228130314Y-123121800D01*
X228225552Y-123074180D01*
X228463647Y-123074180D01*
X228606504Y-123121800D01*
X228939838Y-123074180D02*
X229177933Y-124074180D01*
X229368409Y-123359895D01*
X229558885Y-124074180D01*
X229796980Y-123074180D01*
X230082695Y-123074180D02*
X230701742Y-123074180D01*
X230368409Y-123455133D01*
X230511266Y-123455133D01*
X230606504Y-123502752D01*
X230654123Y-123550371D01*
X230701742Y-123645609D01*
X230701742Y-123883704D01*
X230654123Y-123978942D01*
X230606504Y-124026561D01*
X230511266Y-124074180D01*
X230225552Y-124074180D01*
X230130314Y-124026561D01*
X230082695Y-123978942D01*
X231320790Y-123074180D02*
X231416028Y-123074180D01*
X231511266Y-123121800D01*
X231558885Y-123169419D01*
X231606504Y-123264657D01*
X231654123Y-123455133D01*
X231654123Y-123693228D01*
X231606504Y-123883704D01*
X231558885Y-123978942D01*
X231511266Y-124026561D01*
X231416028Y-124074180D01*
X231320790Y-124074180D01*
X231225552Y-124026561D01*
X231177933Y-123978942D01*
X231130314Y-123883704D01*
X231082695Y-123693228D01*
X231082695Y-123455133D01*
X231130314Y-123264657D01*
X231177933Y-123169419D01*
X231225552Y-123121800D01*
X231320790Y-123074180D01*
G04 #@! TO.C,SW32*
X251911076Y-104722561D02*
X252053933Y-104770180D01*
X252292028Y-104770180D01*
X252387266Y-104722561D01*
X252434885Y-104674942D01*
X252482504Y-104579704D01*
X252482504Y-104484466D01*
X252434885Y-104389228D01*
X252387266Y-104341609D01*
X252292028Y-104293990D01*
X252101552Y-104246371D01*
X252006314Y-104198752D01*
X251958695Y-104151133D01*
X251911076Y-104055895D01*
X251911076Y-103960657D01*
X251958695Y-103865419D01*
X252006314Y-103817800D01*
X252101552Y-103770180D01*
X252339647Y-103770180D01*
X252482504Y-103817800D01*
X252815838Y-103770180D02*
X253053933Y-104770180D01*
X253244409Y-104055895D01*
X253434885Y-104770180D01*
X253672980Y-103770180D01*
X253958695Y-103770180D02*
X254577742Y-103770180D01*
X254244409Y-104151133D01*
X254387266Y-104151133D01*
X254482504Y-104198752D01*
X254530123Y-104246371D01*
X254577742Y-104341609D01*
X254577742Y-104579704D01*
X254530123Y-104674942D01*
X254482504Y-104722561D01*
X254387266Y-104770180D01*
X254101552Y-104770180D01*
X254006314Y-104722561D01*
X253958695Y-104674942D01*
X254958695Y-103865419D02*
X255006314Y-103817800D01*
X255101552Y-103770180D01*
X255339647Y-103770180D01*
X255434885Y-103817800D01*
X255482504Y-103865419D01*
X255530123Y-103960657D01*
X255530123Y-104055895D01*
X255482504Y-104198752D01*
X254911076Y-104770180D01*
X255530123Y-104770180D01*
G04 #@! TO.C,SW1.25U1*
X42932790Y-85926561D02*
X43075647Y-85974180D01*
X43313742Y-85974180D01*
X43408980Y-85926561D01*
X43456600Y-85878942D01*
X43504219Y-85783704D01*
X43504219Y-85688466D01*
X43456600Y-85593228D01*
X43408980Y-85545609D01*
X43313742Y-85497990D01*
X43123266Y-85450371D01*
X43028028Y-85402752D01*
X42980409Y-85355133D01*
X42932790Y-85259895D01*
X42932790Y-85164657D01*
X42980409Y-85069419D01*
X43028028Y-85021800D01*
X43123266Y-84974180D01*
X43361361Y-84974180D01*
X43504219Y-85021800D01*
X43837552Y-84974180D02*
X44075647Y-85974180D01*
X44266123Y-85259895D01*
X44456600Y-85974180D01*
X44694695Y-84974180D01*
X45599457Y-85974180D02*
X45028028Y-85974180D01*
X45313742Y-85974180D02*
X45313742Y-84974180D01*
X45218504Y-85117038D01*
X45123266Y-85212276D01*
X45028028Y-85259895D01*
X46028028Y-85878942D02*
X46075647Y-85926561D01*
X46028028Y-85974180D01*
X45980409Y-85926561D01*
X46028028Y-85878942D01*
X46028028Y-85974180D01*
X46456600Y-85069419D02*
X46504219Y-85021800D01*
X46599457Y-84974180D01*
X46837552Y-84974180D01*
X46932790Y-85021800D01*
X46980409Y-85069419D01*
X47028028Y-85164657D01*
X47028028Y-85259895D01*
X46980409Y-85402752D01*
X46408980Y-85974180D01*
X47028028Y-85974180D01*
X47932790Y-84974180D02*
X47456600Y-84974180D01*
X47408980Y-85450371D01*
X47456600Y-85402752D01*
X47551838Y-85355133D01*
X47789933Y-85355133D01*
X47885171Y-85402752D01*
X47932790Y-85450371D01*
X47980409Y-85545609D01*
X47980409Y-85783704D01*
X47932790Y-85878942D01*
X47885171Y-85926561D01*
X47789933Y-85974180D01*
X47551838Y-85974180D01*
X47456600Y-85926561D01*
X47408980Y-85878942D01*
X48408980Y-84974180D02*
X48408980Y-85783704D01*
X48456600Y-85878942D01*
X48504219Y-85926561D01*
X48599457Y-85974180D01*
X48789933Y-85974180D01*
X48885171Y-85926561D01*
X48932790Y-85878942D01*
X48980409Y-85783704D01*
X48980409Y-84974180D01*
X49980409Y-85974180D02*
X49408980Y-85974180D01*
X49694695Y-85974180D02*
X49694695Y-84974180D01*
X49599457Y-85117038D01*
X49504219Y-85212276D01*
X49408980Y-85259895D01*
G04 #@! TO.C,SW1.25U2*
X41408790Y-124026561D02*
X41551647Y-124074180D01*
X41789742Y-124074180D01*
X41884980Y-124026561D01*
X41932600Y-123978942D01*
X41980219Y-123883704D01*
X41980219Y-123788466D01*
X41932600Y-123693228D01*
X41884980Y-123645609D01*
X41789742Y-123597990D01*
X41599266Y-123550371D01*
X41504028Y-123502752D01*
X41456409Y-123455133D01*
X41408790Y-123359895D01*
X41408790Y-123264657D01*
X41456409Y-123169419D01*
X41504028Y-123121800D01*
X41599266Y-123074180D01*
X41837361Y-123074180D01*
X41980219Y-123121800D01*
X42313552Y-123074180D02*
X42551647Y-124074180D01*
X42742123Y-123359895D01*
X42932600Y-124074180D01*
X43170695Y-123074180D01*
X44075457Y-124074180D02*
X43504028Y-124074180D01*
X43789742Y-124074180D02*
X43789742Y-123074180D01*
X43694504Y-123217038D01*
X43599266Y-123312276D01*
X43504028Y-123359895D01*
X44504028Y-123978942D02*
X44551647Y-124026561D01*
X44504028Y-124074180D01*
X44456409Y-124026561D01*
X44504028Y-123978942D01*
X44504028Y-124074180D01*
X44932600Y-123169419D02*
X44980219Y-123121800D01*
X45075457Y-123074180D01*
X45313552Y-123074180D01*
X45408790Y-123121800D01*
X45456409Y-123169419D01*
X45504028Y-123264657D01*
X45504028Y-123359895D01*
X45456409Y-123502752D01*
X44884980Y-124074180D01*
X45504028Y-124074180D01*
X46408790Y-123074180D02*
X45932600Y-123074180D01*
X45884980Y-123550371D01*
X45932600Y-123502752D01*
X46027838Y-123455133D01*
X46265933Y-123455133D01*
X46361171Y-123502752D01*
X46408790Y-123550371D01*
X46456409Y-123645609D01*
X46456409Y-123883704D01*
X46408790Y-123978942D01*
X46361171Y-124026561D01*
X46265933Y-124074180D01*
X46027838Y-124074180D01*
X45932600Y-124026561D01*
X45884980Y-123978942D01*
X46884980Y-123074180D02*
X46884980Y-123883704D01*
X46932600Y-123978942D01*
X46980219Y-124026561D01*
X47075457Y-124074180D01*
X47265933Y-124074180D01*
X47361171Y-124026561D01*
X47408790Y-123978942D01*
X47456409Y-123883704D01*
X47456409Y-123074180D01*
X47884980Y-123169419D02*
X47932600Y-123121800D01*
X48027838Y-123074180D01*
X48265933Y-123074180D01*
X48361171Y-123121800D01*
X48408790Y-123169419D01*
X48456409Y-123264657D01*
X48456409Y-123359895D01*
X48408790Y-123502752D01*
X47837361Y-124074180D01*
X48456409Y-124074180D01*
G04 #@! TO.C,SW1.25U3*
X84080790Y-124026561D02*
X84223647Y-124074180D01*
X84461742Y-124074180D01*
X84556980Y-124026561D01*
X84604600Y-123978942D01*
X84652219Y-123883704D01*
X84652219Y-123788466D01*
X84604600Y-123693228D01*
X84556980Y-123645609D01*
X84461742Y-123597990D01*
X84271266Y-123550371D01*
X84176028Y-123502752D01*
X84128409Y-123455133D01*
X84080790Y-123359895D01*
X84080790Y-123264657D01*
X84128409Y-123169419D01*
X84176028Y-123121800D01*
X84271266Y-123074180D01*
X84509361Y-123074180D01*
X84652219Y-123121800D01*
X84985552Y-123074180D02*
X85223647Y-124074180D01*
X85414123Y-123359895D01*
X85604600Y-124074180D01*
X85842695Y-123074180D01*
X86747457Y-124074180D02*
X86176028Y-124074180D01*
X86461742Y-124074180D02*
X86461742Y-123074180D01*
X86366504Y-123217038D01*
X86271266Y-123312276D01*
X86176028Y-123359895D01*
X87176028Y-123978942D02*
X87223647Y-124026561D01*
X87176028Y-124074180D01*
X87128409Y-124026561D01*
X87176028Y-123978942D01*
X87176028Y-124074180D01*
X87604600Y-123169419D02*
X87652219Y-123121800D01*
X87747457Y-123074180D01*
X87985552Y-123074180D01*
X88080790Y-123121800D01*
X88128409Y-123169419D01*
X88176028Y-123264657D01*
X88176028Y-123359895D01*
X88128409Y-123502752D01*
X87556980Y-124074180D01*
X88176028Y-124074180D01*
X89080790Y-123074180D02*
X88604600Y-123074180D01*
X88556980Y-123550371D01*
X88604600Y-123502752D01*
X88699838Y-123455133D01*
X88937933Y-123455133D01*
X89033171Y-123502752D01*
X89080790Y-123550371D01*
X89128409Y-123645609D01*
X89128409Y-123883704D01*
X89080790Y-123978942D01*
X89033171Y-124026561D01*
X88937933Y-124074180D01*
X88699838Y-124074180D01*
X88604600Y-124026561D01*
X88556980Y-123978942D01*
X89556980Y-123074180D02*
X89556980Y-123883704D01*
X89604600Y-123978942D01*
X89652219Y-124026561D01*
X89747457Y-124074180D01*
X89937933Y-124074180D01*
X90033171Y-124026561D01*
X90080790Y-123978942D01*
X90128409Y-123883704D01*
X90128409Y-123074180D01*
X90509361Y-123074180D02*
X91128409Y-123074180D01*
X90795076Y-123455133D01*
X90937933Y-123455133D01*
X91033171Y-123502752D01*
X91080790Y-123550371D01*
X91128409Y-123645609D01*
X91128409Y-123883704D01*
X91080790Y-123978942D01*
X91033171Y-124026561D01*
X90937933Y-124074180D01*
X90652219Y-124074180D01*
X90556980Y-124026561D01*
X90509361Y-123978942D01*
G04 #@! TO.C,SW1.25U4*
X203206790Y-124026561D02*
X203349647Y-124074180D01*
X203587742Y-124074180D01*
X203682980Y-124026561D01*
X203730600Y-123978942D01*
X203778219Y-123883704D01*
X203778219Y-123788466D01*
X203730600Y-123693228D01*
X203682980Y-123645609D01*
X203587742Y-123597990D01*
X203397266Y-123550371D01*
X203302028Y-123502752D01*
X203254409Y-123455133D01*
X203206790Y-123359895D01*
X203206790Y-123264657D01*
X203254409Y-123169419D01*
X203302028Y-123121800D01*
X203397266Y-123074180D01*
X203635361Y-123074180D01*
X203778219Y-123121800D01*
X204111552Y-123074180D02*
X204349647Y-124074180D01*
X204540123Y-123359895D01*
X204730600Y-124074180D01*
X204968695Y-123074180D01*
X205873457Y-124074180D02*
X205302028Y-124074180D01*
X205587742Y-124074180D02*
X205587742Y-123074180D01*
X205492504Y-123217038D01*
X205397266Y-123312276D01*
X205302028Y-123359895D01*
X206302028Y-123978942D02*
X206349647Y-124026561D01*
X206302028Y-124074180D01*
X206254409Y-124026561D01*
X206302028Y-123978942D01*
X206302028Y-124074180D01*
X206730600Y-123169419D02*
X206778219Y-123121800D01*
X206873457Y-123074180D01*
X207111552Y-123074180D01*
X207206790Y-123121800D01*
X207254409Y-123169419D01*
X207302028Y-123264657D01*
X207302028Y-123359895D01*
X207254409Y-123502752D01*
X206682980Y-124074180D01*
X207302028Y-124074180D01*
X208206790Y-123074180D02*
X207730600Y-123074180D01*
X207682980Y-123550371D01*
X207730600Y-123502752D01*
X207825838Y-123455133D01*
X208063933Y-123455133D01*
X208159171Y-123502752D01*
X208206790Y-123550371D01*
X208254409Y-123645609D01*
X208254409Y-123883704D01*
X208206790Y-123978942D01*
X208159171Y-124026561D01*
X208063933Y-124074180D01*
X207825838Y-124074180D01*
X207730600Y-124026561D01*
X207682980Y-123978942D01*
X208682980Y-123074180D02*
X208682980Y-123883704D01*
X208730600Y-123978942D01*
X208778219Y-124026561D01*
X208873457Y-124074180D01*
X209063933Y-124074180D01*
X209159171Y-124026561D01*
X209206790Y-123978942D01*
X209254409Y-123883704D01*
X209254409Y-123074180D01*
X210159171Y-123407514D02*
X210159171Y-124074180D01*
X209921076Y-123026561D02*
X209682980Y-123740847D01*
X210302028Y-123740847D01*
G04 #@! TO.C,SW1.25U5*
X227082790Y-104722561D02*
X227225647Y-104770180D01*
X227463742Y-104770180D01*
X227558980Y-104722561D01*
X227606600Y-104674942D01*
X227654219Y-104579704D01*
X227654219Y-104484466D01*
X227606600Y-104389228D01*
X227558980Y-104341609D01*
X227463742Y-104293990D01*
X227273266Y-104246371D01*
X227178028Y-104198752D01*
X227130409Y-104151133D01*
X227082790Y-104055895D01*
X227082790Y-103960657D01*
X227130409Y-103865419D01*
X227178028Y-103817800D01*
X227273266Y-103770180D01*
X227511361Y-103770180D01*
X227654219Y-103817800D01*
X227987552Y-103770180D02*
X228225647Y-104770180D01*
X228416123Y-104055895D01*
X228606600Y-104770180D01*
X228844695Y-103770180D01*
X229749457Y-104770180D02*
X229178028Y-104770180D01*
X229463742Y-104770180D02*
X229463742Y-103770180D01*
X229368504Y-103913038D01*
X229273266Y-104008276D01*
X229178028Y-104055895D01*
X230178028Y-104674942D02*
X230225647Y-104722561D01*
X230178028Y-104770180D01*
X230130409Y-104722561D01*
X230178028Y-104674942D01*
X230178028Y-104770180D01*
X230606600Y-103865419D02*
X230654219Y-103817800D01*
X230749457Y-103770180D01*
X230987552Y-103770180D01*
X231082790Y-103817800D01*
X231130409Y-103865419D01*
X231178028Y-103960657D01*
X231178028Y-104055895D01*
X231130409Y-104198752D01*
X230558980Y-104770180D01*
X231178028Y-104770180D01*
X232082790Y-103770180D02*
X231606600Y-103770180D01*
X231558980Y-104246371D01*
X231606600Y-104198752D01*
X231701838Y-104151133D01*
X231939933Y-104151133D01*
X232035171Y-104198752D01*
X232082790Y-104246371D01*
X232130409Y-104341609D01*
X232130409Y-104579704D01*
X232082790Y-104674942D01*
X232035171Y-104722561D01*
X231939933Y-104770180D01*
X231701838Y-104770180D01*
X231606600Y-104722561D01*
X231558980Y-104674942D01*
X232558980Y-103770180D02*
X232558980Y-104579704D01*
X232606600Y-104674942D01*
X232654219Y-104722561D01*
X232749457Y-104770180D01*
X232939933Y-104770180D01*
X233035171Y-104722561D01*
X233082790Y-104674942D01*
X233130409Y-104579704D01*
X233130409Y-103770180D01*
X234082790Y-103770180D02*
X233606600Y-103770180D01*
X233558980Y-104246371D01*
X233606600Y-104198752D01*
X233701838Y-104151133D01*
X233939933Y-104151133D01*
X234035171Y-104198752D01*
X234082790Y-104246371D01*
X234130409Y-104341609D01*
X234130409Y-104579704D01*
X234082790Y-104674942D01*
X234035171Y-104722561D01*
X233939933Y-104770180D01*
X233701838Y-104770180D01*
X233606600Y-104722561D01*
X233558980Y-104674942D01*
G04 #@! TO.C,SW1.25U6*
X246132790Y-124026561D02*
X246275647Y-124074180D01*
X246513742Y-124074180D01*
X246608980Y-124026561D01*
X246656600Y-123978942D01*
X246704219Y-123883704D01*
X246704219Y-123788466D01*
X246656600Y-123693228D01*
X246608980Y-123645609D01*
X246513742Y-123597990D01*
X246323266Y-123550371D01*
X246228028Y-123502752D01*
X246180409Y-123455133D01*
X246132790Y-123359895D01*
X246132790Y-123264657D01*
X246180409Y-123169419D01*
X246228028Y-123121800D01*
X246323266Y-123074180D01*
X246561361Y-123074180D01*
X246704219Y-123121800D01*
X247037552Y-123074180D02*
X247275647Y-124074180D01*
X247466123Y-123359895D01*
X247656600Y-124074180D01*
X247894695Y-123074180D01*
X248799457Y-124074180D02*
X248228028Y-124074180D01*
X248513742Y-124074180D02*
X248513742Y-123074180D01*
X248418504Y-123217038D01*
X248323266Y-123312276D01*
X248228028Y-123359895D01*
X249228028Y-123978942D02*
X249275647Y-124026561D01*
X249228028Y-124074180D01*
X249180409Y-124026561D01*
X249228028Y-123978942D01*
X249228028Y-124074180D01*
X249656600Y-123169419D02*
X249704219Y-123121800D01*
X249799457Y-123074180D01*
X250037552Y-123074180D01*
X250132790Y-123121800D01*
X250180409Y-123169419D01*
X250228028Y-123264657D01*
X250228028Y-123359895D01*
X250180409Y-123502752D01*
X249608980Y-124074180D01*
X250228028Y-124074180D01*
X251132790Y-123074180D02*
X250656600Y-123074180D01*
X250608980Y-123550371D01*
X250656600Y-123502752D01*
X250751838Y-123455133D01*
X250989933Y-123455133D01*
X251085171Y-123502752D01*
X251132790Y-123550371D01*
X251180409Y-123645609D01*
X251180409Y-123883704D01*
X251132790Y-123978942D01*
X251085171Y-124026561D01*
X250989933Y-124074180D01*
X250751838Y-124074180D01*
X250656600Y-124026561D01*
X250608980Y-123978942D01*
X251608980Y-123074180D02*
X251608980Y-123883704D01*
X251656600Y-123978942D01*
X251704219Y-124026561D01*
X251799457Y-124074180D01*
X251989933Y-124074180D01*
X252085171Y-124026561D01*
X252132790Y-123978942D01*
X252180409Y-123883704D01*
X252180409Y-123074180D01*
X253085171Y-123074180D02*
X252894695Y-123074180D01*
X252799457Y-123121800D01*
X252751838Y-123169419D01*
X252656600Y-123312276D01*
X252608980Y-123502752D01*
X252608980Y-123883704D01*
X252656600Y-123978942D01*
X252704219Y-124026561D01*
X252799457Y-124074180D01*
X252989933Y-124074180D01*
X253085171Y-124026561D01*
X253132790Y-123978942D01*
X253180409Y-123883704D01*
X253180409Y-123645609D01*
X253132790Y-123550371D01*
X253085171Y-123502752D01*
X252989933Y-123455133D01*
X252799457Y-123455133D01*
X252704219Y-123502752D01*
X252656600Y-123550371D01*
X252608980Y-123645609D01*
G04 #@! TO.C,SW1.75U1*
X45980790Y-104722561D02*
X46123647Y-104770180D01*
X46361742Y-104770180D01*
X46456980Y-104722561D01*
X46504600Y-104674942D01*
X46552219Y-104579704D01*
X46552219Y-104484466D01*
X46504600Y-104389228D01*
X46456980Y-104341609D01*
X46361742Y-104293990D01*
X46171266Y-104246371D01*
X46076028Y-104198752D01*
X46028409Y-104151133D01*
X45980790Y-104055895D01*
X45980790Y-103960657D01*
X46028409Y-103865419D01*
X46076028Y-103817800D01*
X46171266Y-103770180D01*
X46409361Y-103770180D01*
X46552219Y-103817800D01*
X46885552Y-103770180D02*
X47123647Y-104770180D01*
X47314123Y-104055895D01*
X47504600Y-104770180D01*
X47742695Y-103770180D01*
X48647457Y-104770180D02*
X48076028Y-104770180D01*
X48361742Y-104770180D02*
X48361742Y-103770180D01*
X48266504Y-103913038D01*
X48171266Y-104008276D01*
X48076028Y-104055895D01*
X49076028Y-104674942D02*
X49123647Y-104722561D01*
X49076028Y-104770180D01*
X49028409Y-104722561D01*
X49076028Y-104674942D01*
X49076028Y-104770180D01*
X49456980Y-103770180D02*
X50123647Y-103770180D01*
X49695076Y-104770180D01*
X50980790Y-103770180D02*
X50504600Y-103770180D01*
X50456980Y-104246371D01*
X50504600Y-104198752D01*
X50599838Y-104151133D01*
X50837933Y-104151133D01*
X50933171Y-104198752D01*
X50980790Y-104246371D01*
X51028409Y-104341609D01*
X51028409Y-104579704D01*
X50980790Y-104674942D01*
X50933171Y-104722561D01*
X50837933Y-104770180D01*
X50599838Y-104770180D01*
X50504600Y-104722561D01*
X50456980Y-104674942D01*
X51456980Y-103770180D02*
X51456980Y-104579704D01*
X51504600Y-104674942D01*
X51552219Y-104722561D01*
X51647457Y-104770180D01*
X51837933Y-104770180D01*
X51933171Y-104722561D01*
X51980790Y-104674942D01*
X52028409Y-104579704D01*
X52028409Y-103770180D01*
X53028409Y-104770180D02*
X52456980Y-104770180D01*
X52742695Y-104770180D02*
X52742695Y-103770180D01*
X52647457Y-103913038D01*
X52552219Y-104008276D01*
X52456980Y-104055895D01*
G04 #@! TO.C,SW1.75U2*
X241052790Y-85926561D02*
X241195647Y-85974180D01*
X241433742Y-85974180D01*
X241528980Y-85926561D01*
X241576600Y-85878942D01*
X241624219Y-85783704D01*
X241624219Y-85688466D01*
X241576600Y-85593228D01*
X241528980Y-85545609D01*
X241433742Y-85497990D01*
X241243266Y-85450371D01*
X241148028Y-85402752D01*
X241100409Y-85355133D01*
X241052790Y-85259895D01*
X241052790Y-85164657D01*
X241100409Y-85069419D01*
X241148028Y-85021800D01*
X241243266Y-84974180D01*
X241481361Y-84974180D01*
X241624219Y-85021800D01*
X241957552Y-84974180D02*
X242195647Y-85974180D01*
X242386123Y-85259895D01*
X242576600Y-85974180D01*
X242814695Y-84974180D01*
X243719457Y-85974180D02*
X243148028Y-85974180D01*
X243433742Y-85974180D02*
X243433742Y-84974180D01*
X243338504Y-85117038D01*
X243243266Y-85212276D01*
X243148028Y-85259895D01*
X244148028Y-85878942D02*
X244195647Y-85926561D01*
X244148028Y-85974180D01*
X244100409Y-85926561D01*
X244148028Y-85878942D01*
X244148028Y-85974180D01*
X244528980Y-84974180D02*
X245195647Y-84974180D01*
X244767076Y-85974180D01*
X246052790Y-84974180D02*
X245576600Y-84974180D01*
X245528980Y-85450371D01*
X245576600Y-85402752D01*
X245671838Y-85355133D01*
X245909933Y-85355133D01*
X246005171Y-85402752D01*
X246052790Y-85450371D01*
X246100409Y-85545609D01*
X246100409Y-85783704D01*
X246052790Y-85878942D01*
X246005171Y-85926561D01*
X245909933Y-85974180D01*
X245671838Y-85974180D01*
X245576600Y-85926561D01*
X245528980Y-85878942D01*
X246528980Y-84974180D02*
X246528980Y-85783704D01*
X246576600Y-85878942D01*
X246624219Y-85926561D01*
X246719457Y-85974180D01*
X246909933Y-85974180D01*
X247005171Y-85926561D01*
X247052790Y-85878942D01*
X247100409Y-85783704D01*
X247100409Y-84974180D01*
X247528980Y-85069419D02*
X247576600Y-85021800D01*
X247671838Y-84974180D01*
X247909933Y-84974180D01*
X248005171Y-85021800D01*
X248052790Y-85069419D01*
X248100409Y-85164657D01*
X248100409Y-85259895D01*
X248052790Y-85402752D01*
X247481361Y-85974180D01*
X248100409Y-85974180D01*
G04 #@! TO.C,SW2.25U1*
X170186790Y-123772561D02*
X170329647Y-123820180D01*
X170567742Y-123820180D01*
X170662980Y-123772561D01*
X170710600Y-123724942D01*
X170758219Y-123629704D01*
X170758219Y-123534466D01*
X170710600Y-123439228D01*
X170662980Y-123391609D01*
X170567742Y-123343990D01*
X170377266Y-123296371D01*
X170282028Y-123248752D01*
X170234409Y-123201133D01*
X170186790Y-123105895D01*
X170186790Y-123010657D01*
X170234409Y-122915419D01*
X170282028Y-122867800D01*
X170377266Y-122820180D01*
X170615361Y-122820180D01*
X170758219Y-122867800D01*
X171091552Y-122820180D02*
X171329647Y-123820180D01*
X171520123Y-123105895D01*
X171710600Y-123820180D01*
X171948695Y-122820180D01*
X172282028Y-122915419D02*
X172329647Y-122867800D01*
X172424885Y-122820180D01*
X172662980Y-122820180D01*
X172758219Y-122867800D01*
X172805838Y-122915419D01*
X172853457Y-123010657D01*
X172853457Y-123105895D01*
X172805838Y-123248752D01*
X172234409Y-123820180D01*
X172853457Y-123820180D01*
X173282028Y-123724942D02*
X173329647Y-123772561D01*
X173282028Y-123820180D01*
X173234409Y-123772561D01*
X173282028Y-123724942D01*
X173282028Y-123820180D01*
X173710600Y-122915419D02*
X173758219Y-122867800D01*
X173853457Y-122820180D01*
X174091552Y-122820180D01*
X174186790Y-122867800D01*
X174234409Y-122915419D01*
X174282028Y-123010657D01*
X174282028Y-123105895D01*
X174234409Y-123248752D01*
X173662980Y-123820180D01*
X174282028Y-123820180D01*
X175186790Y-122820180D02*
X174710600Y-122820180D01*
X174662980Y-123296371D01*
X174710600Y-123248752D01*
X174805838Y-123201133D01*
X175043933Y-123201133D01*
X175139171Y-123248752D01*
X175186790Y-123296371D01*
X175234409Y-123391609D01*
X175234409Y-123629704D01*
X175186790Y-123724942D01*
X175139171Y-123772561D01*
X175043933Y-123820180D01*
X174805838Y-123820180D01*
X174710600Y-123772561D01*
X174662980Y-123724942D01*
X175662980Y-122820180D02*
X175662980Y-123629704D01*
X175710600Y-123724942D01*
X175758219Y-123772561D01*
X175853457Y-123820180D01*
X176043933Y-123820180D01*
X176139171Y-123772561D01*
X176186790Y-123724942D01*
X176234409Y-123629704D01*
X176234409Y-122820180D01*
X177234409Y-123820180D02*
X176662980Y-123820180D01*
X176948695Y-123820180D02*
X176948695Y-122820180D01*
X176853457Y-122963038D01*
X176758219Y-123058276D01*
X176662980Y-123105895D01*
G04 #@! TO.C,SW2.75U1*
X122180790Y-123772561D02*
X122323647Y-123820180D01*
X122561742Y-123820180D01*
X122656980Y-123772561D01*
X122704600Y-123724942D01*
X122752219Y-123629704D01*
X122752219Y-123534466D01*
X122704600Y-123439228D01*
X122656980Y-123391609D01*
X122561742Y-123343990D01*
X122371266Y-123296371D01*
X122276028Y-123248752D01*
X122228409Y-123201133D01*
X122180790Y-123105895D01*
X122180790Y-123010657D01*
X122228409Y-122915419D01*
X122276028Y-122867800D01*
X122371266Y-122820180D01*
X122609361Y-122820180D01*
X122752219Y-122867800D01*
X123085552Y-122820180D02*
X123323647Y-123820180D01*
X123514123Y-123105895D01*
X123704600Y-123820180D01*
X123942695Y-122820180D01*
X124276028Y-122915419D02*
X124323647Y-122867800D01*
X124418885Y-122820180D01*
X124656980Y-122820180D01*
X124752219Y-122867800D01*
X124799838Y-122915419D01*
X124847457Y-123010657D01*
X124847457Y-123105895D01*
X124799838Y-123248752D01*
X124228409Y-123820180D01*
X124847457Y-123820180D01*
X125276028Y-123724942D02*
X125323647Y-123772561D01*
X125276028Y-123820180D01*
X125228409Y-123772561D01*
X125276028Y-123724942D01*
X125276028Y-123820180D01*
X125656980Y-122820180D02*
X126323647Y-122820180D01*
X125895076Y-123820180D01*
X127180790Y-122820180D02*
X126704600Y-122820180D01*
X126656980Y-123296371D01*
X126704600Y-123248752D01*
X126799838Y-123201133D01*
X127037933Y-123201133D01*
X127133171Y-123248752D01*
X127180790Y-123296371D01*
X127228409Y-123391609D01*
X127228409Y-123629704D01*
X127180790Y-123724942D01*
X127133171Y-123772561D01*
X127037933Y-123820180D01*
X126799838Y-123820180D01*
X126704600Y-123772561D01*
X126656980Y-123724942D01*
X127656980Y-122820180D02*
X127656980Y-123629704D01*
X127704600Y-123724942D01*
X127752219Y-123772561D01*
X127847457Y-123820180D01*
X128037933Y-123820180D01*
X128133171Y-123772561D01*
X128180790Y-123724942D01*
X128228409Y-123629704D01*
X128228409Y-122820180D01*
X129228409Y-123820180D02*
X128656980Y-123820180D01*
X128942695Y-123820180D02*
X128942695Y-122820180D01*
X128847457Y-122963038D01*
X128752219Y-123058276D01*
X128656980Y-123105895D01*
G04 #@! TO.C,SW33*
X113735076Y-104976561D02*
X113877933Y-105024180D01*
X114116028Y-105024180D01*
X114211266Y-104976561D01*
X114258885Y-104928942D01*
X114306504Y-104833704D01*
X114306504Y-104738466D01*
X114258885Y-104643228D01*
X114211266Y-104595609D01*
X114116028Y-104547990D01*
X113925552Y-104500371D01*
X113830314Y-104452752D01*
X113782695Y-104405133D01*
X113735076Y-104309895D01*
X113735076Y-104214657D01*
X113782695Y-104119419D01*
X113830314Y-104071800D01*
X113925552Y-104024180D01*
X114163647Y-104024180D01*
X114306504Y-104071800D01*
X114639838Y-104024180D02*
X114877933Y-105024180D01*
X115068409Y-104309895D01*
X115258885Y-105024180D01*
X115496980Y-104024180D01*
X115782695Y-104024180D02*
X116401742Y-104024180D01*
X116068409Y-104405133D01*
X116211266Y-104405133D01*
X116306504Y-104452752D01*
X116354123Y-104500371D01*
X116401742Y-104595609D01*
X116401742Y-104833704D01*
X116354123Y-104928942D01*
X116306504Y-104976561D01*
X116211266Y-105024180D01*
X115925552Y-105024180D01*
X115830314Y-104976561D01*
X115782695Y-104928942D01*
X116735076Y-104024180D02*
X117354123Y-104024180D01*
X117020790Y-104405133D01*
X117163647Y-104405133D01*
X117258885Y-104452752D01*
X117306504Y-104500371D01*
X117354123Y-104595609D01*
X117354123Y-104833704D01*
X117306504Y-104928942D01*
X117258885Y-104976561D01*
X117163647Y-105024180D01*
X116877933Y-105024180D01*
X116782695Y-104976561D01*
X116735076Y-104928942D01*
G04 #@! TO.C,H1*
X91389295Y-70628180D02*
X91389295Y-69628180D01*
X91389295Y-70104371D02*
X91960723Y-70104371D01*
X91960723Y-70628180D02*
X91960723Y-69628180D01*
X92960723Y-70628180D02*
X92389295Y-70628180D01*
X92675009Y-70628180D02*
X92675009Y-69628180D01*
X92579771Y-69771038D01*
X92484533Y-69866276D01*
X92389295Y-69913895D01*
G04 #@! TO.C,H2*
X91389295Y-108753580D02*
X91389295Y-107753580D01*
X91389295Y-108229771D02*
X91960723Y-108229771D01*
X91960723Y-108753580D02*
X91960723Y-107753580D01*
X92389295Y-107848819D02*
X92436914Y-107801200D01*
X92532152Y-107753580D01*
X92770247Y-107753580D01*
X92865485Y-107801200D01*
X92913104Y-107848819D01*
X92960723Y-107944057D01*
X92960723Y-108039295D01*
X92913104Y-108182152D01*
X92341676Y-108753580D01*
X92960723Y-108753580D01*
G04 #@! TO.C,H3*
X53289295Y-89678180D02*
X53289295Y-88678180D01*
X53289295Y-89154371D02*
X53860723Y-89154371D01*
X53860723Y-89678180D02*
X53860723Y-88678180D01*
X54241676Y-88678180D02*
X54860723Y-88678180D01*
X54527390Y-89059133D01*
X54670247Y-89059133D01*
X54765485Y-89106752D01*
X54813104Y-89154371D01*
X54860723Y-89249609D01*
X54860723Y-89487704D01*
X54813104Y-89582942D01*
X54765485Y-89630561D01*
X54670247Y-89678180D01*
X54384533Y-89678180D01*
X54289295Y-89630561D01*
X54241676Y-89582942D01*
G04 #@! TO.C,H4*
X205663895Y-70628180D02*
X205663895Y-69628180D01*
X205663895Y-70104371D02*
X206235323Y-70104371D01*
X206235323Y-70628180D02*
X206235323Y-69628180D01*
X207140085Y-69961514D02*
X207140085Y-70628180D01*
X206901990Y-69580561D02*
X206663895Y-70294847D01*
X207282942Y-70294847D01*
G04 #@! TO.C,H5*
X243763895Y-89678180D02*
X243763895Y-88678180D01*
X243763895Y-89154371D02*
X244335323Y-89154371D01*
X244335323Y-89678180D02*
X244335323Y-88678180D01*
X245287704Y-88678180D02*
X244811514Y-88678180D01*
X244763895Y-89154371D01*
X244811514Y-89106752D01*
X244906752Y-89059133D01*
X245144847Y-89059133D01*
X245240085Y-89106752D01*
X245287704Y-89154371D01*
X245335323Y-89249609D01*
X245335323Y-89487704D01*
X245287704Y-89582942D01*
X245240085Y-89630561D01*
X245144847Y-89678180D01*
X244906752Y-89678180D01*
X244811514Y-89630561D01*
X244763895Y-89582942D01*
G04 #@! TO.C,H6*
X205663895Y-108753580D02*
X205663895Y-107753580D01*
X205663895Y-108229771D02*
X206235323Y-108229771D01*
X206235323Y-108753580D02*
X206235323Y-107753580D01*
X207140085Y-107753580D02*
X206949609Y-107753580D01*
X206854371Y-107801200D01*
X206806752Y-107848819D01*
X206711514Y-107991676D01*
X206663895Y-108182152D01*
X206663895Y-108563104D01*
X206711514Y-108658342D01*
X206759133Y-108705961D01*
X206854371Y-108753580D01*
X207044847Y-108753580D01*
X207140085Y-108705961D01*
X207187704Y-108658342D01*
X207235323Y-108563104D01*
X207235323Y-108325009D01*
X207187704Y-108229771D01*
X207140085Y-108182152D01*
X207044847Y-108134533D01*
X206854371Y-108134533D01*
X206759133Y-108182152D01*
X206711514Y-108229771D01*
X206663895Y-108325009D01*
G04 #@! TO.C,H7*
X129463895Y-70653580D02*
X129463895Y-69653580D01*
X129463895Y-70129771D02*
X130035323Y-70129771D01*
X130035323Y-70653580D02*
X130035323Y-69653580D01*
X130416276Y-69653580D02*
X131082942Y-69653580D01*
X130654371Y-70653580D01*
G04 #@! TO.C,H8*
X129463895Y-108753580D02*
X129463895Y-107753580D01*
X129463895Y-108229771D02*
X130035323Y-108229771D01*
X130035323Y-108753580D02*
X130035323Y-107753580D01*
X130654371Y-108182152D02*
X130559133Y-108134533D01*
X130511514Y-108086914D01*
X130463895Y-107991676D01*
X130463895Y-107944057D01*
X130511514Y-107848819D01*
X130559133Y-107801200D01*
X130654371Y-107753580D01*
X130844847Y-107753580D01*
X130940085Y-107801200D01*
X130987704Y-107848819D01*
X131035323Y-107944057D01*
X131035323Y-107991676D01*
X130987704Y-108086914D01*
X130940085Y-108134533D01*
X130844847Y-108182152D01*
X130654371Y-108182152D01*
X130559133Y-108229771D01*
X130511514Y-108277390D01*
X130463895Y-108372628D01*
X130463895Y-108563104D01*
X130511514Y-108658342D01*
X130559133Y-108705961D01*
X130654371Y-108753580D01*
X130844847Y-108753580D01*
X130940085Y-108705961D01*
X130987704Y-108658342D01*
X131035323Y-108563104D01*
X131035323Y-108372628D01*
X130987704Y-108277390D01*
X130940085Y-108229771D01*
X130844847Y-108182152D01*
G04 #@! TO.C,H9*
X167589295Y-70653580D02*
X167589295Y-69653580D01*
X167589295Y-70129771D02*
X168160723Y-70129771D01*
X168160723Y-70653580D02*
X168160723Y-69653580D01*
X168684533Y-70653580D02*
X168875009Y-70653580D01*
X168970247Y-70605961D01*
X169017866Y-70558342D01*
X169113104Y-70415485D01*
X169160723Y-70225009D01*
X169160723Y-69844057D01*
X169113104Y-69748819D01*
X169065485Y-69701200D01*
X168970247Y-69653580D01*
X168779771Y-69653580D01*
X168684533Y-69701200D01*
X168636914Y-69748819D01*
X168589295Y-69844057D01*
X168589295Y-70082152D01*
X168636914Y-70177390D01*
X168684533Y-70225009D01*
X168779771Y-70272628D01*
X168970247Y-70272628D01*
X169065485Y-70225009D01*
X169113104Y-70177390D01*
X169160723Y-70082152D01*
G04 #@! TO.C,H10*
X167113104Y-108728180D02*
X167113104Y-107728180D01*
X167113104Y-108204371D02*
X167684533Y-108204371D01*
X167684533Y-108728180D02*
X167684533Y-107728180D01*
X168684533Y-108728180D02*
X168113104Y-108728180D01*
X168398819Y-108728180D02*
X168398819Y-107728180D01*
X168303580Y-107871038D01*
X168208342Y-107966276D01*
X168113104Y-108013895D01*
X169303580Y-107728180D02*
X169398819Y-107728180D01*
X169494057Y-107775800D01*
X169541676Y-107823419D01*
X169589295Y-107918657D01*
X169636914Y-108109133D01*
X169636914Y-108347228D01*
X169589295Y-108537704D01*
X169541676Y-108632942D01*
X169494057Y-108680561D01*
X169398819Y-108728180D01*
X169303580Y-108728180D01*
X169208342Y-108680561D01*
X169160723Y-108632942D01*
X169113104Y-108537704D01*
X169065485Y-108347228D01*
X169065485Y-108109133D01*
X169113104Y-107918657D01*
X169160723Y-107823419D01*
X169208342Y-107775800D01*
X169303580Y-107728180D01*
G04 #@! TO.C,LED1*
X43457952Y-56459380D02*
X42981761Y-56459380D01*
X42981761Y-55459380D01*
X43791285Y-55935571D02*
X44124619Y-55935571D01*
X44267476Y-56459380D02*
X43791285Y-56459380D01*
X43791285Y-55459380D01*
X44267476Y-55459380D01*
X44696047Y-56459380D02*
X44696047Y-55459380D01*
X44934142Y-55459380D01*
X45077000Y-55507000D01*
X45172238Y-55602238D01*
X45219857Y-55697476D01*
X45267476Y-55887952D01*
X45267476Y-56030809D01*
X45219857Y-56221285D01*
X45172238Y-56316523D01*
X45077000Y-56411761D01*
X44934142Y-56459380D01*
X44696047Y-56459380D01*
X46219857Y-56459380D02*
X45648428Y-56459380D01*
X45934142Y-56459380D02*
X45934142Y-55459380D01*
X45838904Y-55602238D01*
X45743666Y-55697476D01*
X45648428Y-55745095D01*
G04 #@! TO.C,LED5*
X62507952Y-56459380D02*
X62031761Y-56459380D01*
X62031761Y-55459380D01*
X62841285Y-55935571D02*
X63174619Y-55935571D01*
X63317476Y-56459380D02*
X62841285Y-56459380D01*
X62841285Y-55459380D01*
X63317476Y-55459380D01*
X63746047Y-56459380D02*
X63746047Y-55459380D01*
X63984142Y-55459380D01*
X64127000Y-55507000D01*
X64222238Y-55602238D01*
X64269857Y-55697476D01*
X64317476Y-55887952D01*
X64317476Y-56030809D01*
X64269857Y-56221285D01*
X64222238Y-56316523D01*
X64127000Y-56411761D01*
X63984142Y-56459380D01*
X63746047Y-56459380D01*
X65222238Y-55459380D02*
X64746047Y-55459380D01*
X64698428Y-55935571D01*
X64746047Y-55887952D01*
X64841285Y-55840333D01*
X65079380Y-55840333D01*
X65174619Y-55887952D01*
X65222238Y-55935571D01*
X65269857Y-56030809D01*
X65269857Y-56268904D01*
X65222238Y-56364142D01*
X65174619Y-56411761D01*
X65079380Y-56459380D01*
X64841285Y-56459380D01*
X64746047Y-56411761D01*
X64698428Y-56364142D01*
G04 #@! TO.C,LED8*
X81684952Y-56459380D02*
X81208761Y-56459380D01*
X81208761Y-55459380D01*
X82018285Y-55935571D02*
X82351619Y-55935571D01*
X82494476Y-56459380D02*
X82018285Y-56459380D01*
X82018285Y-55459380D01*
X82494476Y-55459380D01*
X82923047Y-56459380D02*
X82923047Y-55459380D01*
X83161142Y-55459380D01*
X83304000Y-55507000D01*
X83399238Y-55602238D01*
X83446857Y-55697476D01*
X83494476Y-55887952D01*
X83494476Y-56030809D01*
X83446857Y-56221285D01*
X83399238Y-56316523D01*
X83304000Y-56411761D01*
X83161142Y-56459380D01*
X82923047Y-56459380D01*
X84065904Y-55887952D02*
X83970666Y-55840333D01*
X83923047Y-55792714D01*
X83875428Y-55697476D01*
X83875428Y-55649857D01*
X83923047Y-55554619D01*
X83970666Y-55507000D01*
X84065904Y-55459380D01*
X84256380Y-55459380D01*
X84351619Y-55507000D01*
X84399238Y-55554619D01*
X84446857Y-55649857D01*
X84446857Y-55697476D01*
X84399238Y-55792714D01*
X84351619Y-55840333D01*
X84256380Y-55887952D01*
X84065904Y-55887952D01*
X83970666Y-55935571D01*
X83923047Y-55983190D01*
X83875428Y-56078428D01*
X83875428Y-56268904D01*
X83923047Y-56364142D01*
X83970666Y-56411761D01*
X84065904Y-56459380D01*
X84256380Y-56459380D01*
X84351619Y-56411761D01*
X84399238Y-56364142D01*
X84446857Y-56268904D01*
X84446857Y-56078428D01*
X84399238Y-55983190D01*
X84351619Y-55935571D01*
X84256380Y-55887952D01*
G04 #@! TO.C,LED12*
X100131761Y-56459380D02*
X99655571Y-56459380D01*
X99655571Y-55459380D01*
X100465095Y-55935571D02*
X100798428Y-55935571D01*
X100941285Y-56459380D02*
X100465095Y-56459380D01*
X100465095Y-55459380D01*
X100941285Y-55459380D01*
X101369857Y-56459380D02*
X101369857Y-55459380D01*
X101607952Y-55459380D01*
X101750809Y-55507000D01*
X101846047Y-55602238D01*
X101893666Y-55697476D01*
X101941285Y-55887952D01*
X101941285Y-56030809D01*
X101893666Y-56221285D01*
X101846047Y-56316523D01*
X101750809Y-56411761D01*
X101607952Y-56459380D01*
X101369857Y-56459380D01*
X102893666Y-56459380D02*
X102322238Y-56459380D01*
X102607952Y-56459380D02*
X102607952Y-55459380D01*
X102512714Y-55602238D01*
X102417476Y-55697476D01*
X102322238Y-55745095D01*
X103274619Y-55554619D02*
X103322238Y-55507000D01*
X103417476Y-55459380D01*
X103655571Y-55459380D01*
X103750809Y-55507000D01*
X103798428Y-55554619D01*
X103846047Y-55649857D01*
X103846047Y-55745095D01*
X103798428Y-55887952D01*
X103227000Y-56459380D01*
X103846047Y-56459380D01*
G04 #@! TO.C,LED16*
X119156361Y-56459380D02*
X118680171Y-56459380D01*
X118680171Y-55459380D01*
X119489695Y-55935571D02*
X119823028Y-55935571D01*
X119965885Y-56459380D02*
X119489695Y-56459380D01*
X119489695Y-55459380D01*
X119965885Y-55459380D01*
X120394457Y-56459380D02*
X120394457Y-55459380D01*
X120632552Y-55459380D01*
X120775409Y-55507000D01*
X120870647Y-55602238D01*
X120918266Y-55697476D01*
X120965885Y-55887952D01*
X120965885Y-56030809D01*
X120918266Y-56221285D01*
X120870647Y-56316523D01*
X120775409Y-56411761D01*
X120632552Y-56459380D01*
X120394457Y-56459380D01*
X121918266Y-56459380D02*
X121346838Y-56459380D01*
X121632552Y-56459380D02*
X121632552Y-55459380D01*
X121537314Y-55602238D01*
X121442076Y-55697476D01*
X121346838Y-55745095D01*
X122775409Y-55459380D02*
X122584933Y-55459380D01*
X122489695Y-55507000D01*
X122442076Y-55554619D01*
X122346838Y-55697476D01*
X122299219Y-55887952D01*
X122299219Y-56268904D01*
X122346838Y-56364142D01*
X122394457Y-56411761D01*
X122489695Y-56459380D01*
X122680171Y-56459380D01*
X122775409Y-56411761D01*
X122823028Y-56364142D01*
X122870647Y-56268904D01*
X122870647Y-56030809D01*
X122823028Y-55935571D01*
X122775409Y-55887952D01*
X122680171Y-55840333D01*
X122489695Y-55840333D01*
X122394457Y-55887952D01*
X122346838Y-55935571D01*
X122299219Y-56030809D01*
G04 #@! TO.C,LED20*
X138231761Y-56459380D02*
X137755571Y-56459380D01*
X137755571Y-55459380D01*
X138565095Y-55935571D02*
X138898428Y-55935571D01*
X139041285Y-56459380D02*
X138565095Y-56459380D01*
X138565095Y-55459380D01*
X139041285Y-55459380D01*
X139469857Y-56459380D02*
X139469857Y-55459380D01*
X139707952Y-55459380D01*
X139850809Y-55507000D01*
X139946047Y-55602238D01*
X139993666Y-55697476D01*
X140041285Y-55887952D01*
X140041285Y-56030809D01*
X139993666Y-56221285D01*
X139946047Y-56316523D01*
X139850809Y-56411761D01*
X139707952Y-56459380D01*
X139469857Y-56459380D01*
X140422238Y-55554619D02*
X140469857Y-55507000D01*
X140565095Y-55459380D01*
X140803190Y-55459380D01*
X140898428Y-55507000D01*
X140946047Y-55554619D01*
X140993666Y-55649857D01*
X140993666Y-55745095D01*
X140946047Y-55887952D01*
X140374619Y-56459380D01*
X140993666Y-56459380D01*
X141612714Y-55459380D02*
X141707952Y-55459380D01*
X141803190Y-55507000D01*
X141850809Y-55554619D01*
X141898428Y-55649857D01*
X141946047Y-55840333D01*
X141946047Y-56078428D01*
X141898428Y-56268904D01*
X141850809Y-56364142D01*
X141803190Y-56411761D01*
X141707952Y-56459380D01*
X141612714Y-56459380D01*
X141517476Y-56411761D01*
X141469857Y-56364142D01*
X141422238Y-56268904D01*
X141374619Y-56078428D01*
X141374619Y-55840333D01*
X141422238Y-55649857D01*
X141469857Y-55554619D01*
X141517476Y-55507000D01*
X141612714Y-55459380D01*
G04 #@! TO.C,LED24*
X157281761Y-56459380D02*
X156805571Y-56459380D01*
X156805571Y-55459380D01*
X157615095Y-55935571D02*
X157948428Y-55935571D01*
X158091285Y-56459380D02*
X157615095Y-56459380D01*
X157615095Y-55459380D01*
X158091285Y-55459380D01*
X158519857Y-56459380D02*
X158519857Y-55459380D01*
X158757952Y-55459380D01*
X158900809Y-55507000D01*
X158996047Y-55602238D01*
X159043666Y-55697476D01*
X159091285Y-55887952D01*
X159091285Y-56030809D01*
X159043666Y-56221285D01*
X158996047Y-56316523D01*
X158900809Y-56411761D01*
X158757952Y-56459380D01*
X158519857Y-56459380D01*
X159472238Y-55554619D02*
X159519857Y-55507000D01*
X159615095Y-55459380D01*
X159853190Y-55459380D01*
X159948428Y-55507000D01*
X159996047Y-55554619D01*
X160043666Y-55649857D01*
X160043666Y-55745095D01*
X159996047Y-55887952D01*
X159424619Y-56459380D01*
X160043666Y-56459380D01*
X160900809Y-55792714D02*
X160900809Y-56459380D01*
X160662714Y-55411761D02*
X160424619Y-56126047D01*
X161043666Y-56126047D01*
G04 #@! TO.C,LED28*
X176306361Y-56459380D02*
X175830171Y-56459380D01*
X175830171Y-55459380D01*
X176639695Y-55935571D02*
X176973028Y-55935571D01*
X177115885Y-56459380D02*
X176639695Y-56459380D01*
X176639695Y-55459380D01*
X177115885Y-55459380D01*
X177544457Y-56459380D02*
X177544457Y-55459380D01*
X177782552Y-55459380D01*
X177925409Y-55507000D01*
X178020647Y-55602238D01*
X178068266Y-55697476D01*
X178115885Y-55887952D01*
X178115885Y-56030809D01*
X178068266Y-56221285D01*
X178020647Y-56316523D01*
X177925409Y-56411761D01*
X177782552Y-56459380D01*
X177544457Y-56459380D01*
X178496838Y-55554619D02*
X178544457Y-55507000D01*
X178639695Y-55459380D01*
X178877790Y-55459380D01*
X178973028Y-55507000D01*
X179020647Y-55554619D01*
X179068266Y-55649857D01*
X179068266Y-55745095D01*
X179020647Y-55887952D01*
X178449219Y-56459380D01*
X179068266Y-56459380D01*
X179639695Y-55887952D02*
X179544457Y-55840333D01*
X179496838Y-55792714D01*
X179449219Y-55697476D01*
X179449219Y-55649857D01*
X179496838Y-55554619D01*
X179544457Y-55507000D01*
X179639695Y-55459380D01*
X179830171Y-55459380D01*
X179925409Y-55507000D01*
X179973028Y-55554619D01*
X180020647Y-55649857D01*
X180020647Y-55697476D01*
X179973028Y-55792714D01*
X179925409Y-55840333D01*
X179830171Y-55887952D01*
X179639695Y-55887952D01*
X179544457Y-55935571D01*
X179496838Y-55983190D01*
X179449219Y-56078428D01*
X179449219Y-56268904D01*
X179496838Y-56364142D01*
X179544457Y-56411761D01*
X179639695Y-56459380D01*
X179830171Y-56459380D01*
X179925409Y-56411761D01*
X179973028Y-56364142D01*
X180020647Y-56268904D01*
X180020647Y-56078428D01*
X179973028Y-55983190D01*
X179925409Y-55935571D01*
X179830171Y-55887952D01*
G04 #@! TO.C,LED32*
X195381761Y-56459380D02*
X194905571Y-56459380D01*
X194905571Y-55459380D01*
X195715095Y-55935571D02*
X196048428Y-55935571D01*
X196191285Y-56459380D02*
X195715095Y-56459380D01*
X195715095Y-55459380D01*
X196191285Y-55459380D01*
X196619857Y-56459380D02*
X196619857Y-55459380D01*
X196857952Y-55459380D01*
X197000809Y-55507000D01*
X197096047Y-55602238D01*
X197143666Y-55697476D01*
X197191285Y-55887952D01*
X197191285Y-56030809D01*
X197143666Y-56221285D01*
X197096047Y-56316523D01*
X197000809Y-56411761D01*
X196857952Y-56459380D01*
X196619857Y-56459380D01*
X197524619Y-55459380D02*
X198143666Y-55459380D01*
X197810333Y-55840333D01*
X197953190Y-55840333D01*
X198048428Y-55887952D01*
X198096047Y-55935571D01*
X198143666Y-56030809D01*
X198143666Y-56268904D01*
X198096047Y-56364142D01*
X198048428Y-56411761D01*
X197953190Y-56459380D01*
X197667476Y-56459380D01*
X197572238Y-56411761D01*
X197524619Y-56364142D01*
X198524619Y-55554619D02*
X198572238Y-55507000D01*
X198667476Y-55459380D01*
X198905571Y-55459380D01*
X199000809Y-55507000D01*
X199048428Y-55554619D01*
X199096047Y-55649857D01*
X199096047Y-55745095D01*
X199048428Y-55887952D01*
X198477000Y-56459380D01*
X199096047Y-56459380D01*
G04 #@! TO.C,LED36*
X214406361Y-56459380D02*
X213930171Y-56459380D01*
X213930171Y-55459380D01*
X214739695Y-55935571D02*
X215073028Y-55935571D01*
X215215885Y-56459380D02*
X214739695Y-56459380D01*
X214739695Y-55459380D01*
X215215885Y-55459380D01*
X215644457Y-56459380D02*
X215644457Y-55459380D01*
X215882552Y-55459380D01*
X216025409Y-55507000D01*
X216120647Y-55602238D01*
X216168266Y-55697476D01*
X216215885Y-55887952D01*
X216215885Y-56030809D01*
X216168266Y-56221285D01*
X216120647Y-56316523D01*
X216025409Y-56411761D01*
X215882552Y-56459380D01*
X215644457Y-56459380D01*
X216549219Y-55459380D02*
X217168266Y-55459380D01*
X216834933Y-55840333D01*
X216977790Y-55840333D01*
X217073028Y-55887952D01*
X217120647Y-55935571D01*
X217168266Y-56030809D01*
X217168266Y-56268904D01*
X217120647Y-56364142D01*
X217073028Y-56411761D01*
X216977790Y-56459380D01*
X216692076Y-56459380D01*
X216596838Y-56411761D01*
X216549219Y-56364142D01*
X218025409Y-55459380D02*
X217834933Y-55459380D01*
X217739695Y-55507000D01*
X217692076Y-55554619D01*
X217596838Y-55697476D01*
X217549219Y-55887952D01*
X217549219Y-56268904D01*
X217596838Y-56364142D01*
X217644457Y-56411761D01*
X217739695Y-56459380D01*
X217930171Y-56459380D01*
X218025409Y-56411761D01*
X218073028Y-56364142D01*
X218120647Y-56268904D01*
X218120647Y-56030809D01*
X218073028Y-55935571D01*
X218025409Y-55887952D01*
X217930171Y-55840333D01*
X217739695Y-55840333D01*
X217644457Y-55887952D01*
X217596838Y-55935571D01*
X217549219Y-56030809D01*
G04 #@! TO.C,LED40*
X233456361Y-56459380D02*
X232980171Y-56459380D01*
X232980171Y-55459380D01*
X233789695Y-55935571D02*
X234123028Y-55935571D01*
X234265885Y-56459380D02*
X233789695Y-56459380D01*
X233789695Y-55459380D01*
X234265885Y-55459380D01*
X234694457Y-56459380D02*
X234694457Y-55459380D01*
X234932552Y-55459380D01*
X235075409Y-55507000D01*
X235170647Y-55602238D01*
X235218266Y-55697476D01*
X235265885Y-55887952D01*
X235265885Y-56030809D01*
X235218266Y-56221285D01*
X235170647Y-56316523D01*
X235075409Y-56411761D01*
X234932552Y-56459380D01*
X234694457Y-56459380D01*
X236123028Y-55792714D02*
X236123028Y-56459380D01*
X235884933Y-55411761D02*
X235646838Y-56126047D01*
X236265885Y-56126047D01*
X236837314Y-55459380D02*
X236932552Y-55459380D01*
X237027790Y-55507000D01*
X237075409Y-55554619D01*
X237123028Y-55649857D01*
X237170647Y-55840333D01*
X237170647Y-56078428D01*
X237123028Y-56268904D01*
X237075409Y-56364142D01*
X237027790Y-56411761D01*
X236932552Y-56459380D01*
X236837314Y-56459380D01*
X236742076Y-56411761D01*
X236694457Y-56364142D01*
X236646838Y-56268904D01*
X236599219Y-56078428D01*
X236599219Y-55840333D01*
X236646838Y-55649857D01*
X236694457Y-55554619D01*
X236742076Y-55507000D01*
X236837314Y-55459380D01*
G04 #@! TO.C,LED43*
X252506361Y-56459380D02*
X252030171Y-56459380D01*
X252030171Y-55459380D01*
X252839695Y-55935571D02*
X253173028Y-55935571D01*
X253315885Y-56459380D02*
X252839695Y-56459380D01*
X252839695Y-55459380D01*
X253315885Y-55459380D01*
X253744457Y-56459380D02*
X253744457Y-55459380D01*
X253982552Y-55459380D01*
X254125409Y-55507000D01*
X254220647Y-55602238D01*
X254268266Y-55697476D01*
X254315885Y-55887952D01*
X254315885Y-56030809D01*
X254268266Y-56221285D01*
X254220647Y-56316523D01*
X254125409Y-56411761D01*
X253982552Y-56459380D01*
X253744457Y-56459380D01*
X255173028Y-55792714D02*
X255173028Y-56459380D01*
X254934933Y-55411761D02*
X254696838Y-56126047D01*
X255315885Y-56126047D01*
X255601600Y-55459380D02*
X256220647Y-55459380D01*
X255887314Y-55840333D01*
X256030171Y-55840333D01*
X256125409Y-55887952D01*
X256173028Y-55935571D01*
X256220647Y-56030809D01*
X256220647Y-56268904D01*
X256173028Y-56364142D01*
X256125409Y-56411761D01*
X256030171Y-56459380D01*
X255744457Y-56459380D01*
X255649219Y-56411761D01*
X255601600Y-56364142D01*
G04 #@! TO.C,LED2*
X45845552Y-75509380D02*
X45369361Y-75509380D01*
X45369361Y-74509380D01*
X46178885Y-74985571D02*
X46512219Y-74985571D01*
X46655076Y-75509380D02*
X46178885Y-75509380D01*
X46178885Y-74509380D01*
X46655076Y-74509380D01*
X47083647Y-75509380D02*
X47083647Y-74509380D01*
X47321742Y-74509380D01*
X47464600Y-74557000D01*
X47559838Y-74652238D01*
X47607457Y-74747476D01*
X47655076Y-74937952D01*
X47655076Y-75080809D01*
X47607457Y-75271285D01*
X47559838Y-75366523D01*
X47464600Y-75461761D01*
X47321742Y-75509380D01*
X47083647Y-75509380D01*
X48036028Y-74604619D02*
X48083647Y-74557000D01*
X48178885Y-74509380D01*
X48416980Y-74509380D01*
X48512219Y-74557000D01*
X48559838Y-74604619D01*
X48607457Y-74699857D01*
X48607457Y-74795095D01*
X48559838Y-74937952D01*
X47988409Y-75509380D01*
X48607457Y-75509380D01*
G04 #@! TO.C,LED6*
X67308552Y-75509380D02*
X66832361Y-75509380D01*
X66832361Y-74509380D01*
X67641885Y-74985571D02*
X67975219Y-74985571D01*
X68118076Y-75509380D02*
X67641885Y-75509380D01*
X67641885Y-74509380D01*
X68118076Y-74509380D01*
X68546647Y-75509380D02*
X68546647Y-74509380D01*
X68784742Y-74509380D01*
X68927600Y-74557000D01*
X69022838Y-74652238D01*
X69070457Y-74747476D01*
X69118076Y-74937952D01*
X69118076Y-75080809D01*
X69070457Y-75271285D01*
X69022838Y-75366523D01*
X68927600Y-75461761D01*
X68784742Y-75509380D01*
X68546647Y-75509380D01*
X69975219Y-74509380D02*
X69784742Y-74509380D01*
X69689504Y-74557000D01*
X69641885Y-74604619D01*
X69546647Y-74747476D01*
X69499028Y-74937952D01*
X69499028Y-75318904D01*
X69546647Y-75414142D01*
X69594266Y-75461761D01*
X69689504Y-75509380D01*
X69879980Y-75509380D01*
X69975219Y-75461761D01*
X70022838Y-75414142D01*
X70070457Y-75318904D01*
X70070457Y-75080809D01*
X70022838Y-74985571D01*
X69975219Y-74937952D01*
X69879980Y-74890333D01*
X69689504Y-74890333D01*
X69594266Y-74937952D01*
X69546647Y-74985571D01*
X69499028Y-75080809D01*
G04 #@! TO.C,LED9*
X86637952Y-75509380D02*
X86161761Y-75509380D01*
X86161761Y-74509380D01*
X86971285Y-74985571D02*
X87304619Y-74985571D01*
X87447476Y-75509380D02*
X86971285Y-75509380D01*
X86971285Y-74509380D01*
X87447476Y-74509380D01*
X87876047Y-75509380D02*
X87876047Y-74509380D01*
X88114142Y-74509380D01*
X88257000Y-74557000D01*
X88352238Y-74652238D01*
X88399857Y-74747476D01*
X88447476Y-74937952D01*
X88447476Y-75080809D01*
X88399857Y-75271285D01*
X88352238Y-75366523D01*
X88257000Y-75461761D01*
X88114142Y-75509380D01*
X87876047Y-75509380D01*
X88923666Y-75509380D02*
X89114142Y-75509380D01*
X89209380Y-75461761D01*
X89257000Y-75414142D01*
X89352238Y-75271285D01*
X89399857Y-75080809D01*
X89399857Y-74699857D01*
X89352238Y-74604619D01*
X89304619Y-74557000D01*
X89209380Y-74509380D01*
X89018904Y-74509380D01*
X88923666Y-74557000D01*
X88876047Y-74604619D01*
X88828428Y-74699857D01*
X88828428Y-74937952D01*
X88876047Y-75033190D01*
X88923666Y-75080809D01*
X89018904Y-75128428D01*
X89209380Y-75128428D01*
X89304619Y-75080809D01*
X89352238Y-75033190D01*
X89399857Y-74937952D01*
G04 #@! TO.C,LED13*
X104932361Y-75509380D02*
X104456171Y-75509380D01*
X104456171Y-74509380D01*
X105265695Y-74985571D02*
X105599028Y-74985571D01*
X105741885Y-75509380D02*
X105265695Y-75509380D01*
X105265695Y-74509380D01*
X105741885Y-74509380D01*
X106170457Y-75509380D02*
X106170457Y-74509380D01*
X106408552Y-74509380D01*
X106551409Y-74557000D01*
X106646647Y-74652238D01*
X106694266Y-74747476D01*
X106741885Y-74937952D01*
X106741885Y-75080809D01*
X106694266Y-75271285D01*
X106646647Y-75366523D01*
X106551409Y-75461761D01*
X106408552Y-75509380D01*
X106170457Y-75509380D01*
X107694266Y-75509380D02*
X107122838Y-75509380D01*
X107408552Y-75509380D02*
X107408552Y-74509380D01*
X107313314Y-74652238D01*
X107218076Y-74747476D01*
X107122838Y-74795095D01*
X108027600Y-74509380D02*
X108646647Y-74509380D01*
X108313314Y-74890333D01*
X108456171Y-74890333D01*
X108551409Y-74937952D01*
X108599028Y-74985571D01*
X108646647Y-75080809D01*
X108646647Y-75318904D01*
X108599028Y-75414142D01*
X108551409Y-75461761D01*
X108456171Y-75509380D01*
X108170457Y-75509380D01*
X108075219Y-75461761D01*
X108027600Y-75414142D01*
G04 #@! TO.C,LED17*
X124261761Y-75509380D02*
X123785571Y-75509380D01*
X123785571Y-74509380D01*
X124595095Y-74985571D02*
X124928428Y-74985571D01*
X125071285Y-75509380D02*
X124595095Y-75509380D01*
X124595095Y-74509380D01*
X125071285Y-74509380D01*
X125499857Y-75509380D02*
X125499857Y-74509380D01*
X125737952Y-74509380D01*
X125880809Y-74557000D01*
X125976047Y-74652238D01*
X126023666Y-74747476D01*
X126071285Y-74937952D01*
X126071285Y-75080809D01*
X126023666Y-75271285D01*
X125976047Y-75366523D01*
X125880809Y-75461761D01*
X125737952Y-75509380D01*
X125499857Y-75509380D01*
X127023666Y-75509380D02*
X126452238Y-75509380D01*
X126737952Y-75509380D02*
X126737952Y-74509380D01*
X126642714Y-74652238D01*
X126547476Y-74747476D01*
X126452238Y-74795095D01*
X127357000Y-74509380D02*
X128023666Y-74509380D01*
X127595095Y-75509380D01*
G04 #@! TO.C,LED21*
X143311761Y-75509380D02*
X142835571Y-75509380D01*
X142835571Y-74509380D01*
X143645095Y-74985571D02*
X143978428Y-74985571D01*
X144121285Y-75509380D02*
X143645095Y-75509380D01*
X143645095Y-74509380D01*
X144121285Y-74509380D01*
X144549857Y-75509380D02*
X144549857Y-74509380D01*
X144787952Y-74509380D01*
X144930809Y-74557000D01*
X145026047Y-74652238D01*
X145073666Y-74747476D01*
X145121285Y-74937952D01*
X145121285Y-75080809D01*
X145073666Y-75271285D01*
X145026047Y-75366523D01*
X144930809Y-75461761D01*
X144787952Y-75509380D01*
X144549857Y-75509380D01*
X145502238Y-74604619D02*
X145549857Y-74557000D01*
X145645095Y-74509380D01*
X145883190Y-74509380D01*
X145978428Y-74557000D01*
X146026047Y-74604619D01*
X146073666Y-74699857D01*
X146073666Y-74795095D01*
X146026047Y-74937952D01*
X145454619Y-75509380D01*
X146073666Y-75509380D01*
X147026047Y-75509380D02*
X146454619Y-75509380D01*
X146740333Y-75509380D02*
X146740333Y-74509380D01*
X146645095Y-74652238D01*
X146549857Y-74747476D01*
X146454619Y-74795095D01*
G04 #@! TO.C,LED25*
X162082361Y-75509380D02*
X161606171Y-75509380D01*
X161606171Y-74509380D01*
X162415695Y-74985571D02*
X162749028Y-74985571D01*
X162891885Y-75509380D02*
X162415695Y-75509380D01*
X162415695Y-74509380D01*
X162891885Y-74509380D01*
X163320457Y-75509380D02*
X163320457Y-74509380D01*
X163558552Y-74509380D01*
X163701409Y-74557000D01*
X163796647Y-74652238D01*
X163844266Y-74747476D01*
X163891885Y-74937952D01*
X163891885Y-75080809D01*
X163844266Y-75271285D01*
X163796647Y-75366523D01*
X163701409Y-75461761D01*
X163558552Y-75509380D01*
X163320457Y-75509380D01*
X164272838Y-74604619D02*
X164320457Y-74557000D01*
X164415695Y-74509380D01*
X164653790Y-74509380D01*
X164749028Y-74557000D01*
X164796647Y-74604619D01*
X164844266Y-74699857D01*
X164844266Y-74795095D01*
X164796647Y-74937952D01*
X164225219Y-75509380D01*
X164844266Y-75509380D01*
X165749028Y-74509380D02*
X165272838Y-74509380D01*
X165225219Y-74985571D01*
X165272838Y-74937952D01*
X165368076Y-74890333D01*
X165606171Y-74890333D01*
X165701409Y-74937952D01*
X165749028Y-74985571D01*
X165796647Y-75080809D01*
X165796647Y-75318904D01*
X165749028Y-75414142D01*
X165701409Y-75461761D01*
X165606171Y-75509380D01*
X165368076Y-75509380D01*
X165272838Y-75461761D01*
X165225219Y-75414142D01*
G04 #@! TO.C,LED29*
X181132361Y-75509380D02*
X180656171Y-75509380D01*
X180656171Y-74509380D01*
X181465695Y-74985571D02*
X181799028Y-74985571D01*
X181941885Y-75509380D02*
X181465695Y-75509380D01*
X181465695Y-74509380D01*
X181941885Y-74509380D01*
X182370457Y-75509380D02*
X182370457Y-74509380D01*
X182608552Y-74509380D01*
X182751409Y-74557000D01*
X182846647Y-74652238D01*
X182894266Y-74747476D01*
X182941885Y-74937952D01*
X182941885Y-75080809D01*
X182894266Y-75271285D01*
X182846647Y-75366523D01*
X182751409Y-75461761D01*
X182608552Y-75509380D01*
X182370457Y-75509380D01*
X183322838Y-74604619D02*
X183370457Y-74557000D01*
X183465695Y-74509380D01*
X183703790Y-74509380D01*
X183799028Y-74557000D01*
X183846647Y-74604619D01*
X183894266Y-74699857D01*
X183894266Y-74795095D01*
X183846647Y-74937952D01*
X183275219Y-75509380D01*
X183894266Y-75509380D01*
X184370457Y-75509380D02*
X184560933Y-75509380D01*
X184656171Y-75461761D01*
X184703790Y-75414142D01*
X184799028Y-75271285D01*
X184846647Y-75080809D01*
X184846647Y-74699857D01*
X184799028Y-74604619D01*
X184751409Y-74557000D01*
X184656171Y-74509380D01*
X184465695Y-74509380D01*
X184370457Y-74557000D01*
X184322838Y-74604619D01*
X184275219Y-74699857D01*
X184275219Y-74937952D01*
X184322838Y-75033190D01*
X184370457Y-75080809D01*
X184465695Y-75128428D01*
X184656171Y-75128428D01*
X184751409Y-75080809D01*
X184799028Y-75033190D01*
X184846647Y-74937952D01*
G04 #@! TO.C,LED33*
X200182361Y-75509380D02*
X199706171Y-75509380D01*
X199706171Y-74509380D01*
X200515695Y-74985571D02*
X200849028Y-74985571D01*
X200991885Y-75509380D02*
X200515695Y-75509380D01*
X200515695Y-74509380D01*
X200991885Y-74509380D01*
X201420457Y-75509380D02*
X201420457Y-74509380D01*
X201658552Y-74509380D01*
X201801409Y-74557000D01*
X201896647Y-74652238D01*
X201944266Y-74747476D01*
X201991885Y-74937952D01*
X201991885Y-75080809D01*
X201944266Y-75271285D01*
X201896647Y-75366523D01*
X201801409Y-75461761D01*
X201658552Y-75509380D01*
X201420457Y-75509380D01*
X202325219Y-74509380D02*
X202944266Y-74509380D01*
X202610933Y-74890333D01*
X202753790Y-74890333D01*
X202849028Y-74937952D01*
X202896647Y-74985571D01*
X202944266Y-75080809D01*
X202944266Y-75318904D01*
X202896647Y-75414142D01*
X202849028Y-75461761D01*
X202753790Y-75509380D01*
X202468076Y-75509380D01*
X202372838Y-75461761D01*
X202325219Y-75414142D01*
X203277600Y-74509380D02*
X203896647Y-74509380D01*
X203563314Y-74890333D01*
X203706171Y-74890333D01*
X203801409Y-74937952D01*
X203849028Y-74985571D01*
X203896647Y-75080809D01*
X203896647Y-75318904D01*
X203849028Y-75414142D01*
X203801409Y-75461761D01*
X203706171Y-75509380D01*
X203420457Y-75509380D01*
X203325219Y-75461761D01*
X203277600Y-75414142D01*
G04 #@! TO.C,LED37*
X219511761Y-75509380D02*
X219035571Y-75509380D01*
X219035571Y-74509380D01*
X219845095Y-74985571D02*
X220178428Y-74985571D01*
X220321285Y-75509380D02*
X219845095Y-75509380D01*
X219845095Y-74509380D01*
X220321285Y-74509380D01*
X220749857Y-75509380D02*
X220749857Y-74509380D01*
X220987952Y-74509380D01*
X221130809Y-74557000D01*
X221226047Y-74652238D01*
X221273666Y-74747476D01*
X221321285Y-74937952D01*
X221321285Y-75080809D01*
X221273666Y-75271285D01*
X221226047Y-75366523D01*
X221130809Y-75461761D01*
X220987952Y-75509380D01*
X220749857Y-75509380D01*
X221654619Y-74509380D02*
X222273666Y-74509380D01*
X221940333Y-74890333D01*
X222083190Y-74890333D01*
X222178428Y-74937952D01*
X222226047Y-74985571D01*
X222273666Y-75080809D01*
X222273666Y-75318904D01*
X222226047Y-75414142D01*
X222178428Y-75461761D01*
X222083190Y-75509380D01*
X221797476Y-75509380D01*
X221702238Y-75461761D01*
X221654619Y-75414142D01*
X222607000Y-74509380D02*
X223273666Y-74509380D01*
X222845095Y-75509380D01*
G04 #@! TO.C,LED44*
X245394361Y-75509380D02*
X244918171Y-75509380D01*
X244918171Y-74509380D01*
X245727695Y-74985571D02*
X246061028Y-74985571D01*
X246203885Y-75509380D02*
X245727695Y-75509380D01*
X245727695Y-74509380D01*
X246203885Y-74509380D01*
X246632457Y-75509380D02*
X246632457Y-74509380D01*
X246870552Y-74509380D01*
X247013409Y-74557000D01*
X247108647Y-74652238D01*
X247156266Y-74747476D01*
X247203885Y-74937952D01*
X247203885Y-75080809D01*
X247156266Y-75271285D01*
X247108647Y-75366523D01*
X247013409Y-75461761D01*
X246870552Y-75509380D01*
X246632457Y-75509380D01*
X248061028Y-74842714D02*
X248061028Y-75509380D01*
X247822933Y-74461761D02*
X247584838Y-75176047D01*
X248203885Y-75176047D01*
X249013409Y-74842714D02*
X249013409Y-75509380D01*
X248775314Y-74461761D02*
X248537219Y-75176047D01*
X249156266Y-75176047D01*
G04 #@! TO.C,LED3*
X49172952Y-94559380D02*
X48696761Y-94559380D01*
X48696761Y-93559380D01*
X49506285Y-94035571D02*
X49839619Y-94035571D01*
X49982476Y-94559380D02*
X49506285Y-94559380D01*
X49506285Y-93559380D01*
X49982476Y-93559380D01*
X50411047Y-94559380D02*
X50411047Y-93559380D01*
X50649142Y-93559380D01*
X50792000Y-93607000D01*
X50887238Y-93702238D01*
X50934857Y-93797476D01*
X50982476Y-93987952D01*
X50982476Y-94130809D01*
X50934857Y-94321285D01*
X50887238Y-94416523D01*
X50792000Y-94511761D01*
X50649142Y-94559380D01*
X50411047Y-94559380D01*
X51315809Y-93559380D02*
X51934857Y-93559380D01*
X51601523Y-93940333D01*
X51744380Y-93940333D01*
X51839619Y-93987952D01*
X51887238Y-94035571D01*
X51934857Y-94130809D01*
X51934857Y-94368904D01*
X51887238Y-94464142D01*
X51839619Y-94511761D01*
X51744380Y-94559380D01*
X51458666Y-94559380D01*
X51363428Y-94511761D01*
X51315809Y-94464142D01*
G04 #@! TO.C,LED10*
X76636761Y-94559380D02*
X76160571Y-94559380D01*
X76160571Y-93559380D01*
X76970095Y-94035571D02*
X77303428Y-94035571D01*
X77446285Y-94559380D02*
X76970095Y-94559380D01*
X76970095Y-93559380D01*
X77446285Y-93559380D01*
X77874857Y-94559380D02*
X77874857Y-93559380D01*
X78112952Y-93559380D01*
X78255809Y-93607000D01*
X78351047Y-93702238D01*
X78398666Y-93797476D01*
X78446285Y-93987952D01*
X78446285Y-94130809D01*
X78398666Y-94321285D01*
X78351047Y-94416523D01*
X78255809Y-94511761D01*
X78112952Y-94559380D01*
X77874857Y-94559380D01*
X79398666Y-94559380D02*
X78827238Y-94559380D01*
X79112952Y-94559380D02*
X79112952Y-93559380D01*
X79017714Y-93702238D01*
X78922476Y-93797476D01*
X78827238Y-93845095D01*
X80017714Y-93559380D02*
X80112952Y-93559380D01*
X80208190Y-93607000D01*
X80255809Y-93654619D01*
X80303428Y-93749857D01*
X80351047Y-93940333D01*
X80351047Y-94178428D01*
X80303428Y-94368904D01*
X80255809Y-94464142D01*
X80208190Y-94511761D01*
X80112952Y-94559380D01*
X80017714Y-94559380D01*
X79922476Y-94511761D01*
X79874857Y-94464142D01*
X79827238Y-94368904D01*
X79779619Y-94178428D01*
X79779619Y-93940333D01*
X79827238Y-93749857D01*
X79874857Y-93654619D01*
X79922476Y-93607000D01*
X80017714Y-93559380D01*
G04 #@! TO.C,LED14*
X95407361Y-94559380D02*
X94931171Y-94559380D01*
X94931171Y-93559380D01*
X95740695Y-94035571D02*
X96074028Y-94035571D01*
X96216885Y-94559380D02*
X95740695Y-94559380D01*
X95740695Y-93559380D01*
X96216885Y-93559380D01*
X96645457Y-94559380D02*
X96645457Y-93559380D01*
X96883552Y-93559380D01*
X97026409Y-93607000D01*
X97121647Y-93702238D01*
X97169266Y-93797476D01*
X97216885Y-93987952D01*
X97216885Y-94130809D01*
X97169266Y-94321285D01*
X97121647Y-94416523D01*
X97026409Y-94511761D01*
X96883552Y-94559380D01*
X96645457Y-94559380D01*
X98169266Y-94559380D02*
X97597838Y-94559380D01*
X97883552Y-94559380D02*
X97883552Y-93559380D01*
X97788314Y-93702238D01*
X97693076Y-93797476D01*
X97597838Y-93845095D01*
X99026409Y-93892714D02*
X99026409Y-94559380D01*
X98788314Y-93511761D02*
X98550219Y-94226047D01*
X99169266Y-94226047D01*
G04 #@! TO.C,LED18*
X114736761Y-94559380D02*
X114260571Y-94559380D01*
X114260571Y-93559380D01*
X115070095Y-94035571D02*
X115403428Y-94035571D01*
X115546285Y-94559380D02*
X115070095Y-94559380D01*
X115070095Y-93559380D01*
X115546285Y-93559380D01*
X115974857Y-94559380D02*
X115974857Y-93559380D01*
X116212952Y-93559380D01*
X116355809Y-93607000D01*
X116451047Y-93702238D01*
X116498666Y-93797476D01*
X116546285Y-93987952D01*
X116546285Y-94130809D01*
X116498666Y-94321285D01*
X116451047Y-94416523D01*
X116355809Y-94511761D01*
X116212952Y-94559380D01*
X115974857Y-94559380D01*
X117498666Y-94559380D02*
X116927238Y-94559380D01*
X117212952Y-94559380D02*
X117212952Y-93559380D01*
X117117714Y-93702238D01*
X117022476Y-93797476D01*
X116927238Y-93845095D01*
X118070095Y-93987952D02*
X117974857Y-93940333D01*
X117927238Y-93892714D01*
X117879619Y-93797476D01*
X117879619Y-93749857D01*
X117927238Y-93654619D01*
X117974857Y-93607000D01*
X118070095Y-93559380D01*
X118260571Y-93559380D01*
X118355809Y-93607000D01*
X118403428Y-93654619D01*
X118451047Y-93749857D01*
X118451047Y-93797476D01*
X118403428Y-93892714D01*
X118355809Y-93940333D01*
X118260571Y-93987952D01*
X118070095Y-93987952D01*
X117974857Y-94035571D01*
X117927238Y-94083190D01*
X117879619Y-94178428D01*
X117879619Y-94368904D01*
X117927238Y-94464142D01*
X117974857Y-94511761D01*
X118070095Y-94559380D01*
X118260571Y-94559380D01*
X118355809Y-94511761D01*
X118403428Y-94464142D01*
X118451047Y-94368904D01*
X118451047Y-94178428D01*
X118403428Y-94083190D01*
X118355809Y-94035571D01*
X118260571Y-93987952D01*
G04 #@! TO.C,LED22*
X133507361Y-94559380D02*
X133031171Y-94559380D01*
X133031171Y-93559380D01*
X133840695Y-94035571D02*
X134174028Y-94035571D01*
X134316885Y-94559380D02*
X133840695Y-94559380D01*
X133840695Y-93559380D01*
X134316885Y-93559380D01*
X134745457Y-94559380D02*
X134745457Y-93559380D01*
X134983552Y-93559380D01*
X135126409Y-93607000D01*
X135221647Y-93702238D01*
X135269266Y-93797476D01*
X135316885Y-93987952D01*
X135316885Y-94130809D01*
X135269266Y-94321285D01*
X135221647Y-94416523D01*
X135126409Y-94511761D01*
X134983552Y-94559380D01*
X134745457Y-94559380D01*
X135697838Y-93654619D02*
X135745457Y-93607000D01*
X135840695Y-93559380D01*
X136078790Y-93559380D01*
X136174028Y-93607000D01*
X136221647Y-93654619D01*
X136269266Y-93749857D01*
X136269266Y-93845095D01*
X136221647Y-93987952D01*
X135650219Y-94559380D01*
X136269266Y-94559380D01*
X136650219Y-93654619D02*
X136697838Y-93607000D01*
X136793076Y-93559380D01*
X137031171Y-93559380D01*
X137126409Y-93607000D01*
X137174028Y-93654619D01*
X137221647Y-93749857D01*
X137221647Y-93845095D01*
X137174028Y-93987952D01*
X136602600Y-94559380D01*
X137221647Y-94559380D01*
G04 #@! TO.C,LED26*
X152836761Y-94559380D02*
X152360571Y-94559380D01*
X152360571Y-93559380D01*
X153170095Y-94035571D02*
X153503428Y-94035571D01*
X153646285Y-94559380D02*
X153170095Y-94559380D01*
X153170095Y-93559380D01*
X153646285Y-93559380D01*
X154074857Y-94559380D02*
X154074857Y-93559380D01*
X154312952Y-93559380D01*
X154455809Y-93607000D01*
X154551047Y-93702238D01*
X154598666Y-93797476D01*
X154646285Y-93987952D01*
X154646285Y-94130809D01*
X154598666Y-94321285D01*
X154551047Y-94416523D01*
X154455809Y-94511761D01*
X154312952Y-94559380D01*
X154074857Y-94559380D01*
X155027238Y-93654619D02*
X155074857Y-93607000D01*
X155170095Y-93559380D01*
X155408190Y-93559380D01*
X155503428Y-93607000D01*
X155551047Y-93654619D01*
X155598666Y-93749857D01*
X155598666Y-93845095D01*
X155551047Y-93987952D01*
X154979619Y-94559380D01*
X155598666Y-94559380D01*
X156455809Y-93559380D02*
X156265333Y-93559380D01*
X156170095Y-93607000D01*
X156122476Y-93654619D01*
X156027238Y-93797476D01*
X155979619Y-93987952D01*
X155979619Y-94368904D01*
X156027238Y-94464142D01*
X156074857Y-94511761D01*
X156170095Y-94559380D01*
X156360571Y-94559380D01*
X156455809Y-94511761D01*
X156503428Y-94464142D01*
X156551047Y-94368904D01*
X156551047Y-94130809D01*
X156503428Y-94035571D01*
X156455809Y-93987952D01*
X156360571Y-93940333D01*
X156170095Y-93940333D01*
X156074857Y-93987952D01*
X156027238Y-94035571D01*
X155979619Y-94130809D01*
G04 #@! TO.C,LED30*
X171886761Y-94559380D02*
X171410571Y-94559380D01*
X171410571Y-93559380D01*
X172220095Y-94035571D02*
X172553428Y-94035571D01*
X172696285Y-94559380D02*
X172220095Y-94559380D01*
X172220095Y-93559380D01*
X172696285Y-93559380D01*
X173124857Y-94559380D02*
X173124857Y-93559380D01*
X173362952Y-93559380D01*
X173505809Y-93607000D01*
X173601047Y-93702238D01*
X173648666Y-93797476D01*
X173696285Y-93987952D01*
X173696285Y-94130809D01*
X173648666Y-94321285D01*
X173601047Y-94416523D01*
X173505809Y-94511761D01*
X173362952Y-94559380D01*
X173124857Y-94559380D01*
X174029619Y-93559380D02*
X174648666Y-93559380D01*
X174315333Y-93940333D01*
X174458190Y-93940333D01*
X174553428Y-93987952D01*
X174601047Y-94035571D01*
X174648666Y-94130809D01*
X174648666Y-94368904D01*
X174601047Y-94464142D01*
X174553428Y-94511761D01*
X174458190Y-94559380D01*
X174172476Y-94559380D01*
X174077238Y-94511761D01*
X174029619Y-94464142D01*
X175267714Y-93559380D02*
X175362952Y-93559380D01*
X175458190Y-93607000D01*
X175505809Y-93654619D01*
X175553428Y-93749857D01*
X175601047Y-93940333D01*
X175601047Y-94178428D01*
X175553428Y-94368904D01*
X175505809Y-94464142D01*
X175458190Y-94511761D01*
X175362952Y-94559380D01*
X175267714Y-94559380D01*
X175172476Y-94511761D01*
X175124857Y-94464142D01*
X175077238Y-94368904D01*
X175029619Y-94178428D01*
X175029619Y-93940333D01*
X175077238Y-93749857D01*
X175124857Y-93654619D01*
X175172476Y-93607000D01*
X175267714Y-93559380D01*
G04 #@! TO.C,LED34*
X190936761Y-94559380D02*
X190460571Y-94559380D01*
X190460571Y-93559380D01*
X191270095Y-94035571D02*
X191603428Y-94035571D01*
X191746285Y-94559380D02*
X191270095Y-94559380D01*
X191270095Y-93559380D01*
X191746285Y-93559380D01*
X192174857Y-94559380D02*
X192174857Y-93559380D01*
X192412952Y-93559380D01*
X192555809Y-93607000D01*
X192651047Y-93702238D01*
X192698666Y-93797476D01*
X192746285Y-93987952D01*
X192746285Y-94130809D01*
X192698666Y-94321285D01*
X192651047Y-94416523D01*
X192555809Y-94511761D01*
X192412952Y-94559380D01*
X192174857Y-94559380D01*
X193079619Y-93559380D02*
X193698666Y-93559380D01*
X193365333Y-93940333D01*
X193508190Y-93940333D01*
X193603428Y-93987952D01*
X193651047Y-94035571D01*
X193698666Y-94130809D01*
X193698666Y-94368904D01*
X193651047Y-94464142D01*
X193603428Y-94511761D01*
X193508190Y-94559380D01*
X193222476Y-94559380D01*
X193127238Y-94511761D01*
X193079619Y-94464142D01*
X194555809Y-93892714D02*
X194555809Y-94559380D01*
X194317714Y-93511761D02*
X194079619Y-94226047D01*
X194698666Y-94226047D01*
G04 #@! TO.C,LED38*
X209707361Y-94559380D02*
X209231171Y-94559380D01*
X209231171Y-93559380D01*
X210040695Y-94035571D02*
X210374028Y-94035571D01*
X210516885Y-94559380D02*
X210040695Y-94559380D01*
X210040695Y-93559380D01*
X210516885Y-93559380D01*
X210945457Y-94559380D02*
X210945457Y-93559380D01*
X211183552Y-93559380D01*
X211326409Y-93607000D01*
X211421647Y-93702238D01*
X211469266Y-93797476D01*
X211516885Y-93987952D01*
X211516885Y-94130809D01*
X211469266Y-94321285D01*
X211421647Y-94416523D01*
X211326409Y-94511761D01*
X211183552Y-94559380D01*
X210945457Y-94559380D01*
X211850219Y-93559380D02*
X212469266Y-93559380D01*
X212135933Y-93940333D01*
X212278790Y-93940333D01*
X212374028Y-93987952D01*
X212421647Y-94035571D01*
X212469266Y-94130809D01*
X212469266Y-94368904D01*
X212421647Y-94464142D01*
X212374028Y-94511761D01*
X212278790Y-94559380D01*
X211993076Y-94559380D01*
X211897838Y-94511761D01*
X211850219Y-94464142D01*
X213040695Y-93987952D02*
X212945457Y-93940333D01*
X212897838Y-93892714D01*
X212850219Y-93797476D01*
X212850219Y-93749857D01*
X212897838Y-93654619D01*
X212945457Y-93607000D01*
X213040695Y-93559380D01*
X213231171Y-93559380D01*
X213326409Y-93607000D01*
X213374028Y-93654619D01*
X213421647Y-93749857D01*
X213421647Y-93797476D01*
X213374028Y-93892714D01*
X213326409Y-93940333D01*
X213231171Y-93987952D01*
X213040695Y-93987952D01*
X212945457Y-94035571D01*
X212897838Y-94083190D01*
X212850219Y-94178428D01*
X212850219Y-94368904D01*
X212897838Y-94464142D01*
X212945457Y-94511761D01*
X213040695Y-94559380D01*
X213231171Y-94559380D01*
X213326409Y-94511761D01*
X213374028Y-94464142D01*
X213421647Y-94368904D01*
X213421647Y-94178428D01*
X213374028Y-94083190D01*
X213326409Y-94035571D01*
X213231171Y-93987952D01*
G04 #@! TO.C,LED41*
X231043361Y-94559380D02*
X230567171Y-94559380D01*
X230567171Y-93559380D01*
X231376695Y-94035571D02*
X231710028Y-94035571D01*
X231852885Y-94559380D02*
X231376695Y-94559380D01*
X231376695Y-93559380D01*
X231852885Y-93559380D01*
X232281457Y-94559380D02*
X232281457Y-93559380D01*
X232519552Y-93559380D01*
X232662409Y-93607000D01*
X232757647Y-93702238D01*
X232805266Y-93797476D01*
X232852885Y-93987952D01*
X232852885Y-94130809D01*
X232805266Y-94321285D01*
X232757647Y-94416523D01*
X232662409Y-94511761D01*
X232519552Y-94559380D01*
X232281457Y-94559380D01*
X233710028Y-93892714D02*
X233710028Y-94559380D01*
X233471933Y-93511761D02*
X233233838Y-94226047D01*
X233852885Y-94226047D01*
X234757647Y-94559380D02*
X234186219Y-94559380D01*
X234471933Y-94559380D02*
X234471933Y-93559380D01*
X234376695Y-93702238D01*
X234281457Y-93797476D01*
X234186219Y-93845095D01*
G04 #@! TO.C,LED45*
X252506361Y-94559380D02*
X252030171Y-94559380D01*
X252030171Y-93559380D01*
X252839695Y-94035571D02*
X253173028Y-94035571D01*
X253315885Y-94559380D02*
X252839695Y-94559380D01*
X252839695Y-93559380D01*
X253315885Y-93559380D01*
X253744457Y-94559380D02*
X253744457Y-93559380D01*
X253982552Y-93559380D01*
X254125409Y-93607000D01*
X254220647Y-93702238D01*
X254268266Y-93797476D01*
X254315885Y-93987952D01*
X254315885Y-94130809D01*
X254268266Y-94321285D01*
X254220647Y-94416523D01*
X254125409Y-94511761D01*
X253982552Y-94559380D01*
X253744457Y-94559380D01*
X255173028Y-93892714D02*
X255173028Y-94559380D01*
X254934933Y-93511761D02*
X254696838Y-94226047D01*
X255315885Y-94226047D01*
X256173028Y-93559380D02*
X255696838Y-93559380D01*
X255649219Y-94035571D01*
X255696838Y-93987952D01*
X255792076Y-93940333D01*
X256030171Y-93940333D01*
X256125409Y-93987952D01*
X256173028Y-94035571D01*
X256220647Y-94130809D01*
X256220647Y-94368904D01*
X256173028Y-94464142D01*
X256125409Y-94511761D01*
X256030171Y-94559380D01*
X255792076Y-94559380D01*
X255696838Y-94511761D01*
X255649219Y-94464142D01*
G04 #@! TO.C,LED4*
X45997952Y-113609380D02*
X45521761Y-113609380D01*
X45521761Y-112609380D01*
X46331285Y-113085571D02*
X46664619Y-113085571D01*
X46807476Y-113609380D02*
X46331285Y-113609380D01*
X46331285Y-112609380D01*
X46807476Y-112609380D01*
X47236047Y-113609380D02*
X47236047Y-112609380D01*
X47474142Y-112609380D01*
X47617000Y-112657000D01*
X47712238Y-112752238D01*
X47759857Y-112847476D01*
X47807476Y-113037952D01*
X47807476Y-113180809D01*
X47759857Y-113371285D01*
X47712238Y-113466523D01*
X47617000Y-113561761D01*
X47474142Y-113609380D01*
X47236047Y-113609380D01*
X48664619Y-112942714D02*
X48664619Y-113609380D01*
X48426523Y-112561761D02*
X48188428Y-113276047D01*
X48807476Y-113276047D01*
G04 #@! TO.C,LED7*
X67308552Y-113609380D02*
X66832361Y-113609380D01*
X66832361Y-112609380D01*
X67641885Y-113085571D02*
X67975219Y-113085571D01*
X68118076Y-113609380D02*
X67641885Y-113609380D01*
X67641885Y-112609380D01*
X68118076Y-112609380D01*
X68546647Y-113609380D02*
X68546647Y-112609380D01*
X68784742Y-112609380D01*
X68927600Y-112657000D01*
X69022838Y-112752238D01*
X69070457Y-112847476D01*
X69118076Y-113037952D01*
X69118076Y-113180809D01*
X69070457Y-113371285D01*
X69022838Y-113466523D01*
X68927600Y-113561761D01*
X68784742Y-113609380D01*
X68546647Y-113609380D01*
X69451409Y-112609380D02*
X70118076Y-112609380D01*
X69689504Y-113609380D01*
G04 #@! TO.C,LED11*
X86796761Y-113609380D02*
X86320571Y-113609380D01*
X86320571Y-112609380D01*
X87130095Y-113085571D02*
X87463428Y-113085571D01*
X87606285Y-113609380D02*
X87130095Y-113609380D01*
X87130095Y-112609380D01*
X87606285Y-112609380D01*
X88034857Y-113609380D02*
X88034857Y-112609380D01*
X88272952Y-112609380D01*
X88415809Y-112657000D01*
X88511047Y-112752238D01*
X88558666Y-112847476D01*
X88606285Y-113037952D01*
X88606285Y-113180809D01*
X88558666Y-113371285D01*
X88511047Y-113466523D01*
X88415809Y-113561761D01*
X88272952Y-113609380D01*
X88034857Y-113609380D01*
X89558666Y-113609380D02*
X88987238Y-113609380D01*
X89272952Y-113609380D02*
X89272952Y-112609380D01*
X89177714Y-112752238D01*
X89082476Y-112847476D01*
X88987238Y-112895095D01*
X90511047Y-113609380D02*
X89939619Y-113609380D01*
X90225333Y-113609380D02*
X90225333Y-112609380D01*
X90130095Y-112752238D01*
X90034857Y-112847476D01*
X89939619Y-112895095D01*
G04 #@! TO.C,LED19*
X124896761Y-113609380D02*
X124420571Y-113609380D01*
X124420571Y-112609380D01*
X125230095Y-113085571D02*
X125563428Y-113085571D01*
X125706285Y-113609380D02*
X125230095Y-113609380D01*
X125230095Y-112609380D01*
X125706285Y-112609380D01*
X126134857Y-113609380D02*
X126134857Y-112609380D01*
X126372952Y-112609380D01*
X126515809Y-112657000D01*
X126611047Y-112752238D01*
X126658666Y-112847476D01*
X126706285Y-113037952D01*
X126706285Y-113180809D01*
X126658666Y-113371285D01*
X126611047Y-113466523D01*
X126515809Y-113561761D01*
X126372952Y-113609380D01*
X126134857Y-113609380D01*
X127658666Y-113609380D02*
X127087238Y-113609380D01*
X127372952Y-113609380D02*
X127372952Y-112609380D01*
X127277714Y-112752238D01*
X127182476Y-112847476D01*
X127087238Y-112895095D01*
X128134857Y-113609380D02*
X128325333Y-113609380D01*
X128420571Y-113561761D01*
X128468190Y-113514142D01*
X128563428Y-113371285D01*
X128611047Y-113180809D01*
X128611047Y-112799857D01*
X128563428Y-112704619D01*
X128515809Y-112657000D01*
X128420571Y-112609380D01*
X128230095Y-112609380D01*
X128134857Y-112657000D01*
X128087238Y-112704619D01*
X128039619Y-112799857D01*
X128039619Y-113037952D01*
X128087238Y-113133190D01*
X128134857Y-113180809D01*
X128230095Y-113228428D01*
X128420571Y-113228428D01*
X128515809Y-113180809D01*
X128563428Y-113133190D01*
X128611047Y-113037952D01*
G04 #@! TO.C,LED23*
X142778361Y-124074180D02*
X142302171Y-124074180D01*
X142302171Y-123074180D01*
X143111695Y-123550371D02*
X143445028Y-123550371D01*
X143587885Y-124074180D02*
X143111695Y-124074180D01*
X143111695Y-123074180D01*
X143587885Y-123074180D01*
X144016457Y-124074180D02*
X144016457Y-123074180D01*
X144254552Y-123074180D01*
X144397409Y-123121800D01*
X144492647Y-123217038D01*
X144540266Y-123312276D01*
X144587885Y-123502752D01*
X144587885Y-123645609D01*
X144540266Y-123836085D01*
X144492647Y-123931323D01*
X144397409Y-124026561D01*
X144254552Y-124074180D01*
X144016457Y-124074180D01*
X144968838Y-123169419D02*
X145016457Y-123121800D01*
X145111695Y-123074180D01*
X145349790Y-123074180D01*
X145445028Y-123121800D01*
X145492647Y-123169419D01*
X145540266Y-123264657D01*
X145540266Y-123359895D01*
X145492647Y-123502752D01*
X144921219Y-124074180D01*
X145540266Y-124074180D01*
X145873600Y-123074180D02*
X146492647Y-123074180D01*
X146159314Y-123455133D01*
X146302171Y-123455133D01*
X146397409Y-123502752D01*
X146445028Y-123550371D01*
X146492647Y-123645609D01*
X146492647Y-123883704D01*
X146445028Y-123978942D01*
X146397409Y-124026561D01*
X146302171Y-124074180D01*
X146016457Y-124074180D01*
X145921219Y-124026561D01*
X145873600Y-123978942D01*
G04 #@! TO.C,LED27*
X157891361Y-124074180D02*
X157415171Y-124074180D01*
X157415171Y-123074180D01*
X158224695Y-123550371D02*
X158558028Y-123550371D01*
X158700885Y-124074180D02*
X158224695Y-124074180D01*
X158224695Y-123074180D01*
X158700885Y-123074180D01*
X159129457Y-124074180D02*
X159129457Y-123074180D01*
X159367552Y-123074180D01*
X159510409Y-123121800D01*
X159605647Y-123217038D01*
X159653266Y-123312276D01*
X159700885Y-123502752D01*
X159700885Y-123645609D01*
X159653266Y-123836085D01*
X159605647Y-123931323D01*
X159510409Y-124026561D01*
X159367552Y-124074180D01*
X159129457Y-124074180D01*
X160081838Y-123169419D02*
X160129457Y-123121800D01*
X160224695Y-123074180D01*
X160462790Y-123074180D01*
X160558028Y-123121800D01*
X160605647Y-123169419D01*
X160653266Y-123264657D01*
X160653266Y-123359895D01*
X160605647Y-123502752D01*
X160034219Y-124074180D01*
X160653266Y-124074180D01*
X160986600Y-123074180D02*
X161653266Y-123074180D01*
X161224695Y-124074180D01*
G04 #@! TO.C,LED31*
X173791761Y-113609380D02*
X173315571Y-113609380D01*
X173315571Y-112609380D01*
X174125095Y-113085571D02*
X174458428Y-113085571D01*
X174601285Y-113609380D02*
X174125095Y-113609380D01*
X174125095Y-112609380D01*
X174601285Y-112609380D01*
X175029857Y-113609380D02*
X175029857Y-112609380D01*
X175267952Y-112609380D01*
X175410809Y-112657000D01*
X175506047Y-112752238D01*
X175553666Y-112847476D01*
X175601285Y-113037952D01*
X175601285Y-113180809D01*
X175553666Y-113371285D01*
X175506047Y-113466523D01*
X175410809Y-113561761D01*
X175267952Y-113609380D01*
X175029857Y-113609380D01*
X175934619Y-112609380D02*
X176553666Y-112609380D01*
X176220333Y-112990333D01*
X176363190Y-112990333D01*
X176458428Y-113037952D01*
X176506047Y-113085571D01*
X176553666Y-113180809D01*
X176553666Y-113418904D01*
X176506047Y-113514142D01*
X176458428Y-113561761D01*
X176363190Y-113609380D01*
X176077476Y-113609380D01*
X175982238Y-113561761D01*
X175934619Y-113514142D01*
X177506047Y-113609380D02*
X176934619Y-113609380D01*
X177220333Y-113609380D02*
X177220333Y-112609380D01*
X177125095Y-112752238D01*
X177029857Y-112847476D01*
X176934619Y-112895095D01*
G04 #@! TO.C,LED35*
X189768361Y-124074180D02*
X189292171Y-124074180D01*
X189292171Y-123074180D01*
X190101695Y-123550371D02*
X190435028Y-123550371D01*
X190577885Y-124074180D02*
X190101695Y-124074180D01*
X190101695Y-123074180D01*
X190577885Y-123074180D01*
X191006457Y-124074180D02*
X191006457Y-123074180D01*
X191244552Y-123074180D01*
X191387409Y-123121800D01*
X191482647Y-123217038D01*
X191530266Y-123312276D01*
X191577885Y-123502752D01*
X191577885Y-123645609D01*
X191530266Y-123836085D01*
X191482647Y-123931323D01*
X191387409Y-124026561D01*
X191244552Y-124074180D01*
X191006457Y-124074180D01*
X191911219Y-123074180D02*
X192530266Y-123074180D01*
X192196933Y-123455133D01*
X192339790Y-123455133D01*
X192435028Y-123502752D01*
X192482647Y-123550371D01*
X192530266Y-123645609D01*
X192530266Y-123883704D01*
X192482647Y-123978942D01*
X192435028Y-124026561D01*
X192339790Y-124074180D01*
X192054076Y-124074180D01*
X191958838Y-124026561D01*
X191911219Y-123978942D01*
X193435028Y-123074180D02*
X192958838Y-123074180D01*
X192911219Y-123550371D01*
X192958838Y-123502752D01*
X193054076Y-123455133D01*
X193292171Y-123455133D01*
X193387409Y-123502752D01*
X193435028Y-123550371D01*
X193482647Y-123645609D01*
X193482647Y-123883704D01*
X193435028Y-123978942D01*
X193387409Y-124026561D01*
X193292171Y-124074180D01*
X193054076Y-124074180D01*
X192958838Y-124026561D01*
X192911219Y-123978942D01*
G04 #@! TO.C,LED39*
X209351761Y-113609380D02*
X208875571Y-113609380D01*
X208875571Y-112609380D01*
X209685095Y-113085571D02*
X210018428Y-113085571D01*
X210161285Y-113609380D02*
X209685095Y-113609380D01*
X209685095Y-112609380D01*
X210161285Y-112609380D01*
X210589857Y-113609380D02*
X210589857Y-112609380D01*
X210827952Y-112609380D01*
X210970809Y-112657000D01*
X211066047Y-112752238D01*
X211113666Y-112847476D01*
X211161285Y-113037952D01*
X211161285Y-113180809D01*
X211113666Y-113371285D01*
X211066047Y-113466523D01*
X210970809Y-113561761D01*
X210827952Y-113609380D01*
X210589857Y-113609380D01*
X211494619Y-112609380D02*
X212113666Y-112609380D01*
X211780333Y-112990333D01*
X211923190Y-112990333D01*
X212018428Y-113037952D01*
X212066047Y-113085571D01*
X212113666Y-113180809D01*
X212113666Y-113418904D01*
X212066047Y-113514142D01*
X212018428Y-113561761D01*
X211923190Y-113609380D01*
X211637476Y-113609380D01*
X211542238Y-113561761D01*
X211494619Y-113514142D01*
X212589857Y-113609380D02*
X212780333Y-113609380D01*
X212875571Y-113561761D01*
X212923190Y-113514142D01*
X213018428Y-113371285D01*
X213066047Y-113180809D01*
X213066047Y-112799857D01*
X213018428Y-112704619D01*
X212970809Y-112657000D01*
X212875571Y-112609380D01*
X212685095Y-112609380D01*
X212589857Y-112657000D01*
X212542238Y-112704619D01*
X212494619Y-112799857D01*
X212494619Y-113037952D01*
X212542238Y-113133190D01*
X212589857Y-113180809D01*
X212685095Y-113228428D01*
X212875571Y-113228428D01*
X212970809Y-113180809D01*
X213018428Y-113133190D01*
X213066047Y-113037952D01*
G04 #@! TO.C,LED42*
X228630361Y-113609380D02*
X228154171Y-113609380D01*
X228154171Y-112609380D01*
X228963695Y-113085571D02*
X229297028Y-113085571D01*
X229439885Y-113609380D02*
X228963695Y-113609380D01*
X228963695Y-112609380D01*
X229439885Y-112609380D01*
X229868457Y-113609380D02*
X229868457Y-112609380D01*
X230106552Y-112609380D01*
X230249409Y-112657000D01*
X230344647Y-112752238D01*
X230392266Y-112847476D01*
X230439885Y-113037952D01*
X230439885Y-113180809D01*
X230392266Y-113371285D01*
X230344647Y-113466523D01*
X230249409Y-113561761D01*
X230106552Y-113609380D01*
X229868457Y-113609380D01*
X231297028Y-112942714D02*
X231297028Y-113609380D01*
X231058933Y-112561761D02*
X230820838Y-113276047D01*
X231439885Y-113276047D01*
X231773219Y-112704619D02*
X231820838Y-112657000D01*
X231916076Y-112609380D01*
X232154171Y-112609380D01*
X232249409Y-112657000D01*
X232297028Y-112704619D01*
X232344647Y-112799857D01*
X232344647Y-112895095D01*
X232297028Y-113037952D01*
X231725600Y-113609380D01*
X232344647Y-113609380D01*
G04 #@! TO.C,LED46*
X250093361Y-113609380D02*
X249617171Y-113609380D01*
X249617171Y-112609380D01*
X250426695Y-113085571D02*
X250760028Y-113085571D01*
X250902885Y-113609380D02*
X250426695Y-113609380D01*
X250426695Y-112609380D01*
X250902885Y-112609380D01*
X251331457Y-113609380D02*
X251331457Y-112609380D01*
X251569552Y-112609380D01*
X251712409Y-112657000D01*
X251807647Y-112752238D01*
X251855266Y-112847476D01*
X251902885Y-113037952D01*
X251902885Y-113180809D01*
X251855266Y-113371285D01*
X251807647Y-113466523D01*
X251712409Y-113561761D01*
X251569552Y-113609380D01*
X251331457Y-113609380D01*
X252760028Y-112942714D02*
X252760028Y-113609380D01*
X252521933Y-112561761D02*
X252283838Y-113276047D01*
X252902885Y-113276047D01*
X253712409Y-112609380D02*
X253521933Y-112609380D01*
X253426695Y-112657000D01*
X253379076Y-112704619D01*
X253283838Y-112847476D01*
X253236219Y-113037952D01*
X253236219Y-113418904D01*
X253283838Y-113514142D01*
X253331457Y-113561761D01*
X253426695Y-113609380D01*
X253617171Y-113609380D01*
X253712409Y-113561761D01*
X253760028Y-113514142D01*
X253807647Y-113418904D01*
X253807647Y-113180809D01*
X253760028Y-113085571D01*
X253712409Y-113037952D01*
X253617171Y-112990333D01*
X253426695Y-112990333D01*
X253331457Y-113037952D01*
X253283838Y-113085571D01*
X253236219Y-113180809D01*
G04 #@! TD*
M02*
