G04 #@! TF.GenerationSoftware,KiCad,Pcbnew,(5.0.2)-1*
G04 #@! TF.CreationDate,2019-04-19T09:09:23-07:00*
G04 #@! TF.ProjectId,AngularRGB,416e6775-6c61-4725-9247-422e6b696361,v1.0*
G04 #@! TF.SameCoordinates,Original*
G04 #@! TF.FileFunction,Profile,NP*
%FSLAX46Y46*%
G04 Gerber Fmt 4.6, Leading zero omitted, Abs format (unit mm)*
G04 Created by KiCad (PCBNEW (5.0.2)-1) date 2019-04-19 9:09:23 AM*
%MOMM*%
%LPD*%
G01*
G04 APERTURE LIST*
%ADD10C,0.150000*%
G04 #@! TA.AperFunction,NonConductor*
%ADD11C,0.150000*%
G04 #@! TD*
G04 APERTURE END LIST*
D10*
X38074600Y-130225800D02*
G75*
G02X35026600Y-127177800I0J3048000D01*
G01*
X263626600Y-127177800D02*
G75*
G02X260578600Y-130225800I-3048000J0D01*
G01*
X260578600Y-54025800D02*
G75*
G02X263626600Y-57073800I0J-3048000D01*
G01*
X35026600Y-57073800D02*
G75*
G02X38074600Y-54025800I3048000J0D01*
G01*
X35026600Y-127177800D02*
X35026600Y-57073800D01*
X260578600Y-130225800D02*
X38074600Y-130225800D01*
X263626600Y-57073800D02*
X263626600Y-127177800D01*
X38074600Y-54025800D02*
X260578600Y-54025800D01*
D11*
G04 #@! TO.C,LED1*
X46426600Y-61232800D02*
X42676600Y-61232800D01*
X42676600Y-61232800D02*
X42676600Y-57232800D01*
X42676600Y-57232800D02*
X46426600Y-57232800D01*
X46426600Y-57232800D02*
X46426600Y-61232800D01*
G04 #@! TO.C,LED5*
X65476600Y-61232800D02*
X61726600Y-61232800D01*
X61726600Y-61232800D02*
X61726600Y-57232800D01*
X61726600Y-57232800D02*
X65476600Y-57232800D01*
X65476600Y-57232800D02*
X65476600Y-61232800D01*
G04 #@! TO.C,LED8*
X84526600Y-57232800D02*
X84526600Y-61232800D01*
X80776600Y-57232800D02*
X84526600Y-57232800D01*
X80776600Y-61232800D02*
X80776600Y-57232800D01*
X84526600Y-61232800D02*
X80776600Y-61232800D01*
G04 #@! TO.C,LED12*
X103576600Y-61232800D02*
X99826600Y-61232800D01*
X99826600Y-61232800D02*
X99826600Y-57232800D01*
X99826600Y-57232800D02*
X103576600Y-57232800D01*
X103576600Y-57232800D02*
X103576600Y-61232800D01*
G04 #@! TO.C,LED16*
X122626600Y-57232800D02*
X122626600Y-61232800D01*
X118876600Y-57232800D02*
X122626600Y-57232800D01*
X118876600Y-61232800D02*
X118876600Y-57232800D01*
X122626600Y-61232800D02*
X118876600Y-61232800D01*
G04 #@! TO.C,LED20*
X141676600Y-61232800D02*
X137926600Y-61232800D01*
X137926600Y-61232800D02*
X137926600Y-57232800D01*
X137926600Y-57232800D02*
X141676600Y-57232800D01*
X141676600Y-57232800D02*
X141676600Y-61232800D01*
G04 #@! TO.C,LED24*
X160726600Y-57232800D02*
X160726600Y-61232800D01*
X156976600Y-57232800D02*
X160726600Y-57232800D01*
X156976600Y-61232800D02*
X156976600Y-57232800D01*
X160726600Y-61232800D02*
X156976600Y-61232800D01*
G04 #@! TO.C,LED28*
X179776600Y-61232800D02*
X176026600Y-61232800D01*
X176026600Y-61232800D02*
X176026600Y-57232800D01*
X176026600Y-57232800D02*
X179776600Y-57232800D01*
X179776600Y-57232800D02*
X179776600Y-61232800D01*
G04 #@! TO.C,LED32*
X198826600Y-57232800D02*
X198826600Y-61232800D01*
X195076600Y-57232800D02*
X198826600Y-57232800D01*
X195076600Y-61232800D02*
X195076600Y-57232800D01*
X198826600Y-61232800D02*
X195076600Y-61232800D01*
G04 #@! TO.C,LED36*
X217876600Y-61232800D02*
X214126600Y-61232800D01*
X214126600Y-61232800D02*
X214126600Y-57232800D01*
X214126600Y-57232800D02*
X217876600Y-57232800D01*
X217876600Y-57232800D02*
X217876600Y-61232800D01*
G04 #@! TO.C,LED40*
X236926600Y-57232800D02*
X236926600Y-61232800D01*
X233176600Y-57232800D02*
X236926600Y-57232800D01*
X233176600Y-61232800D02*
X233176600Y-57232800D01*
X236926600Y-61232800D02*
X233176600Y-61232800D01*
G04 #@! TO.C,LED43*
X255976600Y-61232800D02*
X252226600Y-61232800D01*
X252226600Y-61232800D02*
X252226600Y-57232800D01*
X252226600Y-57232800D02*
X255976600Y-57232800D01*
X255976600Y-57232800D02*
X255976600Y-61232800D01*
G04 #@! TO.C,LED2*
X48839600Y-80282800D02*
X45089600Y-80282800D01*
X45089600Y-80282800D02*
X45089600Y-76282800D01*
X45089600Y-76282800D02*
X48839600Y-76282800D01*
X48839600Y-76282800D02*
X48839600Y-80282800D01*
G04 #@! TO.C,LED6*
X70302600Y-76282800D02*
X70302600Y-80282800D01*
X66552600Y-76282800D02*
X70302600Y-76282800D01*
X66552600Y-80282800D02*
X66552600Y-76282800D01*
X70302600Y-80282800D02*
X66552600Y-80282800D01*
G04 #@! TO.C,LED9*
X89352600Y-80282800D02*
X85602600Y-80282800D01*
X85602600Y-80282800D02*
X85602600Y-76282800D01*
X85602600Y-76282800D02*
X89352600Y-76282800D01*
X89352600Y-76282800D02*
X89352600Y-80282800D01*
G04 #@! TO.C,LED13*
X108402600Y-76282800D02*
X108402600Y-80282800D01*
X104652600Y-76282800D02*
X108402600Y-76282800D01*
X104652600Y-80282800D02*
X104652600Y-76282800D01*
X108402600Y-80282800D02*
X104652600Y-80282800D01*
G04 #@! TO.C,LED17*
X127452600Y-80282800D02*
X123702600Y-80282800D01*
X123702600Y-80282800D02*
X123702600Y-76282800D01*
X123702600Y-76282800D02*
X127452600Y-76282800D01*
X127452600Y-76282800D02*
X127452600Y-80282800D01*
G04 #@! TO.C,LED21*
X146502600Y-76282800D02*
X146502600Y-80282800D01*
X142752600Y-76282800D02*
X146502600Y-76282800D01*
X142752600Y-80282800D02*
X142752600Y-76282800D01*
X146502600Y-80282800D02*
X142752600Y-80282800D01*
G04 #@! TO.C,LED25*
X165552600Y-80282800D02*
X161802600Y-80282800D01*
X161802600Y-80282800D02*
X161802600Y-76282800D01*
X161802600Y-76282800D02*
X165552600Y-76282800D01*
X165552600Y-76282800D02*
X165552600Y-80282800D01*
G04 #@! TO.C,LED29*
X184602600Y-76282800D02*
X184602600Y-80282800D01*
X180852600Y-76282800D02*
X184602600Y-76282800D01*
X180852600Y-80282800D02*
X180852600Y-76282800D01*
X184602600Y-80282800D02*
X180852600Y-80282800D01*
G04 #@! TO.C,LED33*
X203652600Y-80282800D02*
X199902600Y-80282800D01*
X199902600Y-80282800D02*
X199902600Y-76282800D01*
X199902600Y-76282800D02*
X203652600Y-76282800D01*
X203652600Y-76282800D02*
X203652600Y-80282800D01*
G04 #@! TO.C,LED37*
X222702600Y-76282800D02*
X222702600Y-80282800D01*
X218952600Y-76282800D02*
X222702600Y-76282800D01*
X218952600Y-80282800D02*
X218952600Y-76282800D01*
X222702600Y-80282800D02*
X218952600Y-80282800D01*
G04 #@! TO.C,LED44*
X248864600Y-80282800D02*
X245114600Y-80282800D01*
X245114600Y-80282800D02*
X245114600Y-76282800D01*
X245114600Y-76282800D02*
X248864600Y-76282800D01*
X248864600Y-76282800D02*
X248864600Y-80282800D01*
G04 #@! TO.C,LED3*
X53665600Y-95332800D02*
X53665600Y-99332800D01*
X49915600Y-95332800D02*
X53665600Y-95332800D01*
X49915600Y-99332800D02*
X49915600Y-95332800D01*
X53665600Y-99332800D02*
X49915600Y-99332800D01*
G04 #@! TO.C,LED10*
X79827600Y-95332800D02*
X79827600Y-99332800D01*
X76077600Y-95332800D02*
X79827600Y-95332800D01*
X76077600Y-99332800D02*
X76077600Y-95332800D01*
X79827600Y-99332800D02*
X76077600Y-99332800D01*
G04 #@! TO.C,LED14*
X98877600Y-99332800D02*
X95127600Y-99332800D01*
X95127600Y-99332800D02*
X95127600Y-95332800D01*
X95127600Y-95332800D02*
X98877600Y-95332800D01*
X98877600Y-95332800D02*
X98877600Y-99332800D01*
G04 #@! TO.C,LED18*
X117927600Y-95332800D02*
X117927600Y-99332800D01*
X114177600Y-95332800D02*
X117927600Y-95332800D01*
X114177600Y-99332800D02*
X114177600Y-95332800D01*
X117927600Y-99332800D02*
X114177600Y-99332800D01*
G04 #@! TO.C,LED22*
X136977600Y-99332800D02*
X133227600Y-99332800D01*
X133227600Y-99332800D02*
X133227600Y-95332800D01*
X133227600Y-95332800D02*
X136977600Y-95332800D01*
X136977600Y-95332800D02*
X136977600Y-99332800D01*
G04 #@! TO.C,LED26*
X156027600Y-95332800D02*
X156027600Y-99332800D01*
X152277600Y-95332800D02*
X156027600Y-95332800D01*
X152277600Y-99332800D02*
X152277600Y-95332800D01*
X156027600Y-99332800D02*
X152277600Y-99332800D01*
G04 #@! TO.C,LED30*
X175077600Y-99332800D02*
X171327600Y-99332800D01*
X171327600Y-99332800D02*
X171327600Y-95332800D01*
X171327600Y-95332800D02*
X175077600Y-95332800D01*
X175077600Y-95332800D02*
X175077600Y-99332800D01*
G04 #@! TO.C,LED34*
X194127600Y-95332800D02*
X194127600Y-99332800D01*
X190377600Y-95332800D02*
X194127600Y-95332800D01*
X190377600Y-99332800D02*
X190377600Y-95332800D01*
X194127600Y-99332800D02*
X190377600Y-99332800D01*
G04 #@! TO.C,LED38*
X213177600Y-99332800D02*
X209427600Y-99332800D01*
X209427600Y-99332800D02*
X209427600Y-95332800D01*
X209427600Y-95332800D02*
X213177600Y-95332800D01*
X213177600Y-95332800D02*
X213177600Y-99332800D01*
G04 #@! TO.C,LED41*
X234513600Y-99332800D02*
X230763600Y-99332800D01*
X230763600Y-99332800D02*
X230763600Y-95332800D01*
X230763600Y-95332800D02*
X234513600Y-95332800D01*
X234513600Y-95332800D02*
X234513600Y-99332800D01*
G04 #@! TO.C,LED45*
X255976600Y-99332800D02*
X252226600Y-99332800D01*
X252226600Y-99332800D02*
X252226600Y-95332800D01*
X252226600Y-95332800D02*
X255976600Y-95332800D01*
X255976600Y-95332800D02*
X255976600Y-99332800D01*
G04 #@! TO.C,LED4*
X48839600Y-114382800D02*
X48839600Y-118382800D01*
X45089600Y-114382800D02*
X48839600Y-114382800D01*
X45089600Y-118382800D02*
X45089600Y-114382800D01*
X48839600Y-118382800D02*
X45089600Y-118382800D01*
G04 #@! TO.C,LED7*
X70302600Y-118382800D02*
X66552600Y-118382800D01*
X66552600Y-118382800D02*
X66552600Y-114382800D01*
X66552600Y-114382800D02*
X70302600Y-114382800D01*
X70302600Y-114382800D02*
X70302600Y-118382800D01*
G04 #@! TO.C,LED11*
X91638600Y-114382800D02*
X91638600Y-118382800D01*
X87888600Y-114382800D02*
X91638600Y-114382800D01*
X87888600Y-118382800D02*
X87888600Y-114382800D01*
X91638600Y-118382800D02*
X87888600Y-118382800D01*
G04 #@! TO.C,LED19*
X129738600Y-118382800D02*
X125988600Y-118382800D01*
X125988600Y-118382800D02*
X125988600Y-114382800D01*
X125988600Y-114382800D02*
X129738600Y-114382800D01*
X129738600Y-114382800D02*
X129738600Y-118382800D01*
G04 #@! TO.C,LED23*
X146248600Y-118573800D02*
X146248600Y-122573800D01*
X142498600Y-118573800D02*
X146248600Y-118573800D01*
X142498600Y-122573800D02*
X142498600Y-118573800D01*
X146248600Y-122573800D02*
X142498600Y-122573800D01*
G04 #@! TO.C,LED27*
X161361600Y-122573800D02*
X157611600Y-122573800D01*
X157611600Y-122573800D02*
X157611600Y-118573800D01*
X157611600Y-118573800D02*
X161361600Y-118573800D01*
X161361600Y-118573800D02*
X161361600Y-122573800D01*
G04 #@! TO.C,LED31*
X177363600Y-118382800D02*
X173613600Y-118382800D01*
X173613600Y-118382800D02*
X173613600Y-114382800D01*
X173613600Y-114382800D02*
X177363600Y-114382800D01*
X177363600Y-114382800D02*
X177363600Y-118382800D01*
G04 #@! TO.C,LED35*
X193238600Y-122573800D02*
X189488600Y-122573800D01*
X189488600Y-122573800D02*
X189488600Y-118573800D01*
X189488600Y-118573800D02*
X193238600Y-118573800D01*
X193238600Y-118573800D02*
X193238600Y-122573800D01*
G04 #@! TO.C,LED39*
X210637600Y-118382800D02*
X206887600Y-118382800D01*
X206887600Y-118382800D02*
X206887600Y-114382800D01*
X206887600Y-114382800D02*
X210637600Y-114382800D01*
X210637600Y-114382800D02*
X210637600Y-118382800D01*
G04 #@! TO.C,LED42*
X232100600Y-114382800D02*
X232100600Y-118382800D01*
X228350600Y-114382800D02*
X232100600Y-114382800D01*
X228350600Y-118382800D02*
X228350600Y-114382800D01*
X232100600Y-118382800D02*
X228350600Y-118382800D01*
G04 #@! TO.C,LED46*
X253563600Y-114382800D02*
X253563600Y-118382800D01*
X249813600Y-114382800D02*
X253563600Y-114382800D01*
X249813600Y-118382800D02*
X249813600Y-114382800D01*
X253563600Y-118382800D02*
X249813600Y-118382800D01*
G04 #@! TD*
M02*
