M48
;DRILL file {KiCad (5.0.2)-1} date 2019-04-19 9:09:47 AM
;FORMAT={-:-/ absolute / inch / decimal}
FMAT,2
INCH,TZ
T1C0.0157
T2C0.0236
T3C0.0394
T4C0.0579
T5C0.0866
%
G90
G05
T1
X1.45Y-4.96
X1.48Y-4.77
X1.505Y-5.03
X1.6Y-4.135
X1.66Y-3.11
X1.66Y-4.59
X1.7025Y-4.4
X1.715Y-4.84
X1.84Y-3.86
X1.87Y-3.645
X1.93Y-2.34
X1.955Y-3.675
X2.03Y-4.57
X2.03Y-4.62
X2.04Y-3.09
X2.17Y-4.925
X2.175Y-4.8
X2.19Y-3.87
X2.22Y-3.79
X2.265Y-3.015
X2.315Y-4.18
X2.33Y-3.45
X2.34Y-3.655
X2.34Y-4.045
X2.35Y-3.13
X2.46Y-4.29
X2.465Y-3.18
X2.47Y-3.13
X2.47Y-4.89
X2.51Y-3.08
X2.51Y-4.63
X2.58Y-3.68
X2.6Y-4.185
X2.61Y-4.035
X2.62Y-2.34
X2.625Y-3.82
X2.68Y-2.435
X2.69Y-2.69
X2.695Y-3.44
X2.79Y-2.845
X2.7953Y-2.6626
X2.8Y-2.195
X2.8Y-3.605
X2.82Y-3.205
X2.83Y-2.555
X2.86Y-2.76
X2.87Y-3.14
X2.87Y-4.56
X2.87Y-4.63
X2.871Y-2.327
X2.89Y-3.88
X2.905Y-2.82
X2.9091Y-2.4558
X2.92Y-3.03
X2.93Y-3.415
X2.955Y-2.195
X2.955Y-2.6
X2.96Y-3.17
X2.989Y-2.6218
X2.995Y-4.815
X3.Y-3.12
X3.Y-4.92
X3.055Y-4.24
X3.065Y-2.44
X3.07Y-3.415
X3.1Y-2.27
X3.12Y-2.56
X3.125Y-2.185
X3.125Y-2.45
X3.13Y-2.9686
X3.16Y-3.17
X3.175Y-4.295
X3.185Y-4.535
X3.187Y-3.12
X3.2Y-3.57
X3.205Y-4.325
X3.25Y-3.79
X3.25Y-3.84
X3.26Y-4.46
X3.285Y-3.645
X3.3Y-4.205
X3.34Y-4.535
X3.3448Y-4.3079
X3.3459Y-4.2685
X3.35Y-4.63
X3.365Y-4.37
X3.375Y-4.035
X3.415Y-4.41
X3.45Y-2.34
X3.5Y-3.84
X3.51Y-4.345
X3.52Y-4.235
X3.535Y-2.405
X3.54Y-4.955
X3.56Y-3.09
X3.58Y-4.145
X3.62Y-3.04
X3.64Y-3.88
X3.67Y-4.98
X3.7Y-5.01
X3.705Y-3.14
X3.705Y-4.685
X3.71Y-4.53
X3.72Y-4.62
X3.725Y-2.535
X3.73Y-4.92
X3.76Y-2.7
X3.76Y-4.67
X3.76Y-4.95
X3.765Y-3.445
X3.804Y-4.42
X3.81Y-4.37
X3.84Y-3.155
X3.84Y-4.92
X3.865Y-4.6
X3.89Y-4.555
X3.97Y-4.99
X3.975Y-4.49
X3.99Y-3.79
X4.Y-3.84
X4.Y-4.96
X4.01Y-3.13
X4.02Y-4.68
X4.02Y-4.885
X4.0254Y-4.6346
X4.035Y-4.2
X4.05Y-4.71
X4.05Y-4.76
X4.0546Y-4.6054
X4.06Y-4.44
X4.0612Y-5.0766
X4.0752Y-4.9302
X4.08Y-4.56
X4.09Y-4.41
X4.095Y-5.045
X4.12Y-4.38
X4.1233Y-5.0068
X4.13Y-4.285
X4.15Y-4.575
X4.15Y-5.04
X4.165Y-4.25
X4.19Y-2.875
X4.19Y-3.94
X4.21Y-2.34
X4.21Y-4.1025
X4.215Y-3.485
X4.24Y-4.365
X4.275Y-4.395
X4.28Y-4.995
X4.3178Y-4.5268
X4.325Y-4.395
X4.325Y-4.995
X4.34Y-4.46
X4.34Y-4.5593
X4.36Y-3.1
X4.37Y-3.04
X4.38Y-2.48
X4.385Y-2.7
X4.39Y-3.87
X4.415Y-4.59
X4.44Y-4.065
X4.44Y-4.67
X4.44Y-4.98
X4.455Y-4.405
X4.47Y-3.165
X4.5Y-3.3525
X4.53Y-2.6025
X4.59Y-4.605
X4.6Y-3.16
X4.6098Y-4.7898
X4.62Y-2.89
X4.6398Y-4.7598
X4.64Y-4.64
X4.64Y-4.68
X4.64Y-4.72
X4.64Y-4.72
X4.65Y-4.865
X4.685Y-5.045
X4.725Y-3.16
X4.7462Y-4.3362
X4.75Y-3.79
X4.75Y-3.84
X4.77Y-3.13
X4.855Y-4.21
X4.905Y-4.705
X4.91Y-2.89
X4.97Y-2.35
X4.995Y-4.425
X5.01Y-4.98
X5.02Y-3.88
X5.03Y-4.11
X5.04Y-4.905
X5.1Y-4.99
X5.105Y-2.495
X5.115Y-3.775
X5.12Y-3.04
X5.12Y-3.09
X5.12Y-4.215
X5.13Y-2.705
X5.15Y-3.88
X5.155Y-4.705
X5.185Y-3.46
X5.21Y-5.065
X5.27Y-4.62
X5.29Y-4.95
X5.31Y-4.43
X5.32Y-4.6017
X5.33Y-4.11
X5.36Y-3.165
X5.36Y-4.86
X5.405Y-4.655
X5.45Y-4.83
X5.46Y-4.325
X5.48Y-3.17
X5.49Y-3.79
X5.5Y-3.84
X5.5Y-4.79
X5.52Y-3.13
X5.57Y-3.94
X5.59Y-4.165
X5.6Y-3.84
X5.685Y-4.41
X5.7Y-2.34
X5.755Y-2.89
X5.755Y-3.9
X5.83Y-3.795
X5.845Y-4.155
X5.855Y-2.7
X5.86Y-4.7
X5.87Y-2.515
X5.87Y-3.04
X5.88Y-3.1
X5.89Y-3.88
X5.94Y-4.055
X5.945Y-3.465
X5.96Y-3.175
X6.07Y-4.59
X6.1Y-4.79
X6.115Y-3.18
X6.25Y-3.79
X6.25Y-3.85
X6.26Y-3.13
X6.34Y-2.88
X6.34Y-5.08
X6.445Y-4.175
X6.45Y-2.34
X6.46Y-4.69
X6.52Y-4.59
X6.565Y-3.78
X6.615Y-2.69
X6.62Y-3.04
X6.62Y-3.11
X6.62Y-4.1
X6.63Y-2.53
X6.64Y-3.87
X6.64Y-4.58
X6.695Y-4.825
X6.715Y-3.47
X6.73Y-4.63
X6.8Y-3.18
X6.92Y-3.18
X7.Y-3.79
X7.Y-3.84
X7.02Y-3.13
X7.09Y-4.57
X7.19Y-2.35
X7.21Y-4.47
X7.215Y-4.23
X7.26Y-2.88
X7.315Y-4.7
X7.345Y-3.79
X7.35Y-2.71
X7.35Y-4.79
X7.36Y-3.08
X7.37Y-3.04
X7.39Y-3.88
X7.395Y-2.525
X7.46Y-3.475
X7.505Y-4.475
X7.55Y-3.18
X7.66Y-4.55
X7.71Y-3.175
X7.71Y-4.7
X7.75Y-3.79
X7.76Y-3.13
X7.76Y-3.85
X7.86Y-4.31
X7.93Y-2.88
X7.94Y-2.34
X8.04Y-4.63
X8.08Y-3.8
X8.115Y-2.475
X8.12Y-3.04
X8.12Y-3.1
X8.14Y-3.88
X8.145Y-2.695
X8.205Y-2.295
X8.225Y-3.475
X8.37Y-3.185
X8.41Y-4.56
X8.42Y-4.67
X8.5Y-3.79
X8.51Y-3.13
X8.51Y-3.84
X8.53Y-4.43
X8.57Y-3.205
X8.68Y-4.74
X8.69Y-3.995
X8.695Y-4.235
X8.71Y-2.35
X8.86Y-3.12
X8.87Y-3.04
X8.8775Y-4.3275
X8.88Y-4.63
X8.885Y-2.48
X8.885Y-2.7
X8.94Y-3.485
X8.945Y-3.795
X8.96Y-3.2
X8.98Y-3.13
X8.98Y-3.88
X8.99Y-2.305
X9.0511Y-3.13
X9.11Y-3.265
X9.24Y-4.54
X9.32Y-2.97
X9.335Y-3.465
X9.34Y-3.86
X9.35Y-3.79
X9.45Y-2.36
X9.5Y-4.035
X9.51Y-3.68
X9.54Y-3.13
X9.61Y-4.4935
X9.66Y-2.565
X9.69Y-2.67
X9.73Y-4.63
X9.74Y-2.285
X9.75Y-3.68
X9.785Y-3.81
X9.82Y-3.88
X9.84Y-3.1
X9.915Y-3.15
X9.92Y-3.05
X10.04Y-3.68
X10.12Y-2.45
X10.12Y-4.625
X10.13Y-3.96
X10.19Y-2.31
X10.19Y-2.36
X10.19Y-3.85
T3
X1.47Y-3.58
X1.47Y-3.68
X1.47Y-3.78
X1.47Y-3.88
X1.47Y-3.98
X1.47Y-4.08
X1.47Y-4.18
X1.47Y-4.28
X1.47Y-4.38
T4
X9.9015Y-4.2015
X9.9031Y-4.1787
X10.0999Y-4.159
X10.1515Y-4.1015
X3.435Y-4.9525
X3.4366Y-4.9297
X3.6334Y-4.91
X3.685Y-4.8525
X2.9665Y-4.2025
X2.9681Y-4.1797
X3.1649Y-4.16
X3.2165Y-4.1025
X7.8425Y-3.4525
X7.8441Y-3.4297
X8.0409Y-3.41
X8.0925Y-3.3525
X6.9025Y-2.7025
X6.9041Y-2.6797
X7.1009Y-2.66
X7.1525Y-2.6025
X5.5925Y-3.4525
X5.5941Y-3.4297
X5.7909Y-3.41
X5.8425Y-3.3525
X4.4665Y-4.2025
X4.4681Y-4.1797
X4.6649Y-4.16
X4.7165Y-4.1025
X8.5925Y-3.4525
X8.5941Y-3.4297
X8.7909Y-3.41
X8.8425Y-3.3525
X8.965Y-4.9525
X8.9666Y-4.9297
X9.1634Y-4.91
X9.215Y-4.8525
X3.3425Y-3.4525
X3.3441Y-3.4297
X3.5409Y-3.41
X3.5925Y-3.3525
X9.1525Y-2.7025
X9.1541Y-2.6797
X9.3509Y-2.66
X9.4025Y-2.6025
X4.8425Y-3.4525
X4.8441Y-3.4297
X5.0409Y-3.41
X5.0925Y-3.3525
X5.4025Y-2.7025
X5.4041Y-2.6797
X5.6009Y-2.66
X5.6525Y-2.6025
X1.654Y-2.702
X1.6556Y-2.6792
X1.8524Y-2.6595
X1.904Y-2.602
X1.7475Y-4.9525
X1.7491Y-4.9297
X1.9459Y-4.91
X1.9975Y-4.8525
X7.4665Y-4.2025
X7.4681Y-4.1797
X7.6649Y-4.16
X7.7165Y-4.1025
X3.9025Y-2.7025
X3.9041Y-2.6797
X4.1009Y-2.66
X4.1525Y-2.6025
X4.0925Y-3.4525
X4.0941Y-3.4297
X4.2909Y-3.41
X4.3425Y-3.3525
X5.2165Y-4.2025
X5.2181Y-4.1797
X5.4149Y-4.16
X5.4665Y-4.1025
X4.9337Y-4.9525
X4.9353Y-4.9297
X5.1322Y-4.91
X5.1837Y-4.8525
X2.4025Y-2.7025
X2.4041Y-2.6797
X2.6009Y-2.66
X2.6525Y-2.6025
X9.8075Y-4.9525
X9.8091Y-4.9297
X10.0059Y-4.91
X10.0575Y-4.8525
X3.1525Y-2.7025
X3.1541Y-2.6797
X3.3509Y-2.66
X3.4025Y-2.6025
X5.9665Y-4.2025
X5.9681Y-4.1797
X6.1649Y-4.16
X6.2165Y-4.1025
X9.901Y-2.703
X9.9026Y-2.6802
X10.0994Y-2.6605
X10.151Y-2.603
X2.5925Y-4.9525
X2.5941Y-4.9297
X2.7909Y-4.91
X2.8425Y-4.8525
X7.6525Y-2.7025
X7.6541Y-2.6797
X7.8509Y-2.66
X7.9025Y-2.6025
X6.3425Y-3.4525
X6.3441Y-3.4297
X6.5409Y-3.41
X6.5925Y-3.3525
X8.2165Y-4.2025
X8.2181Y-4.1797
X8.4149Y-4.16
X8.4665Y-4.1025
X2.5925Y-3.4525
X2.5941Y-3.4297
X2.7909Y-3.41
X2.8425Y-3.3525
X1.7475Y-3.4525
X1.7491Y-3.4297
X1.9459Y-3.41
X1.9975Y-3.3525
X9.6205Y-3.4515
X9.6221Y-3.4287
X9.8189Y-3.409
X9.8705Y-3.3515
X1.935Y-4.2025
X1.9366Y-4.1797
X2.1334Y-4.16
X2.185Y-4.1025
X6.7165Y-4.2025
X6.7181Y-4.1797
X6.9149Y-4.16
X6.9665Y-4.1025
X3.7165Y-4.2025
X3.7181Y-4.1797
X3.9149Y-4.16
X3.9665Y-4.1025
X6.8087Y-4.9525
X6.8103Y-4.9297
X7.0072Y-4.91
X7.0587Y-4.8525
X8.4025Y-2.7025
X8.4041Y-2.6797
X8.6009Y-2.66
X8.6525Y-2.6025
X8.12Y-4.9525
X8.1216Y-4.9297
X8.3184Y-4.91
X8.37Y-4.8525
X4.6525Y-2.7025
X4.6541Y-2.6797
X4.8509Y-2.66
X4.9025Y-2.6025
X9.0605Y-4.2025
X9.0621Y-4.1797
X9.2589Y-4.16
X9.3105Y-4.1025
X7.0925Y-3.4525
X7.0941Y-3.4297
X7.2909Y-3.41
X7.3425Y-3.3525
X6.1525Y-2.7025
X6.1541Y-2.6797
X6.3509Y-2.66
X6.4025Y-2.6025
T5
X9.627Y-3.627
X6.628Y-2.878
X8.127Y-2.877
X5.127Y-2.878
X8.127Y-4.378
X5.127Y-4.378
X2.128Y-3.627
X6.628Y-4.377
X3.628Y-4.378
X3.628Y-2.877
T2
X2.7098Y-2.1736G85X2.7098Y-2.1972
G05
X2.7098Y-2.3283G85X2.7098Y-2.3717
G05
X3.05Y-2.1736G85X3.05Y-2.1972
G05
X3.05Y-2.3283G85X3.05Y-2.3717
G05
T0
M30
