M48
;DRILL file {KiCad (5.0.2)-1} date 2019-04-19 9:09:47 AM
;FORMAT={-:-/ absolute / inch / decimal}
FMAT,2
INCH,TZ
T1C0.0256
T2C0.0670
T3C0.1200
T4C0.1570
%
G90
G05
T1
X2.7661Y-2.3291
X2.9937Y-2.3291
T2
X8.4925Y-3.2525
X8.8925Y-3.2525
X8.865Y-4.7525
X9.265Y-4.7525
X3.2425Y-3.2525
X3.6425Y-3.2525
X9.0525Y-2.5025
X9.4525Y-2.5025
X4.7425Y-3.2525
X5.1425Y-3.2525
X5.3025Y-2.5025
X5.7025Y-2.5025
X1.554Y-2.502
X1.954Y-2.502
X1.6475Y-4.7525
X2.0475Y-4.7525
X7.3665Y-4.0025
X7.7665Y-4.0025
X3.8025Y-2.5025
X4.2025Y-2.5025
X3.9925Y-3.2525
X4.3925Y-3.2525
X5.1165Y-4.0025
X5.5165Y-4.0025
X4.8338Y-4.7525
X5.2337Y-4.7525
X2.3025Y-2.5025
X2.7025Y-2.5025
X9.7075Y-4.7525
X10.1075Y-4.7525
X3.0525Y-2.5025
X3.4525Y-2.5025
X5.8665Y-4.0025
X6.2665Y-4.0025
X9.801Y-2.503
X10.201Y-2.503
X2.4925Y-4.7525
X2.8925Y-4.7525
X7.5525Y-2.5025
X7.9525Y-2.5025
X6.2425Y-3.2525
X6.6425Y-3.2525
X8.1165Y-4.0025
X8.5165Y-4.0025
X2.4925Y-3.2525
X2.8925Y-3.2525
X1.6475Y-3.2525
X2.0475Y-3.2525
X9.5205Y-3.2515
X9.9205Y-3.2515
X1.835Y-4.0025
X2.235Y-4.0025
X6.6165Y-4.0025
X7.0165Y-4.0025
X3.6165Y-4.0025
X4.0165Y-4.0025
X6.7088Y-4.7525
X7.1087Y-4.7525
X8.3025Y-2.5025
X8.7025Y-2.5025
X8.02Y-4.7525
X8.42Y-4.7525
X4.5525Y-2.5025
X4.9525Y-2.5025
X8.9605Y-4.0025
X9.3605Y-4.0025
X6.9925Y-3.2525
X7.3925Y-3.2525
X6.0525Y-2.5025
X6.4525Y-2.5025
X9.8015Y-4.0015
X10.2015Y-4.0015
X3.335Y-4.7525
X3.735Y-4.7525
X2.8665Y-4.0025
X3.2665Y-4.0025
X7.7425Y-3.2525
X8.1425Y-3.2525
X6.8025Y-2.5025
X7.2025Y-2.5025
X5.4925Y-3.2525
X5.8925Y-3.2525
X4.3665Y-4.0025
X4.7665Y-4.0025
T3
X4.565Y-5.0275
X5.5025Y-5.0275
X6.44Y-5.0275
X7.3775Y-5.0275
T4
X1.754Y-2.502
X1.8475Y-4.7525
X7.5665Y-4.0025
X4.0025Y-2.5025
X4.1925Y-3.2525
X5.3165Y-4.0025
X4.565Y-4.4275
X5.0337Y-4.7525
X5.5025Y-4.4275
X2.5025Y-2.5025
X9.9075Y-4.7525
X3.2525Y-2.5025
X6.0665Y-4.0025
X10.001Y-2.503
X2.6925Y-4.7525
X7.7525Y-2.5025
X6.4425Y-3.2525
X8.3165Y-4.0025
X2.6925Y-3.2525
X1.8475Y-3.2525
X9.7205Y-3.2515
X2.035Y-4.0025
X6.8165Y-4.0025
X3.8165Y-4.0025
X6.44Y-4.4275
X6.9087Y-4.7525
X7.3775Y-4.4275
X8.5025Y-2.5025
X8.22Y-4.7525
X4.7525Y-2.5025
X9.1605Y-4.0025
X7.1925Y-3.2525
X6.2525Y-2.5025
X10.0015Y-4.0015
X3.535Y-4.7525
X3.0665Y-4.0025
X7.9425Y-3.2525
X7.0025Y-2.5025
X5.6925Y-3.2525
X4.5665Y-4.0025
X8.6925Y-3.2525
X9.065Y-4.7525
X3.4425Y-3.2525
X9.2525Y-2.5025
X4.9425Y-3.2525
X5.5025Y-2.5025
T0
M30
